<?xml version="1.0" encoding="UTF-8"?>
<svg version="1.1" xmlns="http://www.w3.org/2000/svg" width="125" height="125">
<path d="M0 0 C3.96 0 7.92 0 12 0 C12 0.66 12 1.32 12 2 C12.78375 2.309375 13.5675 2.61875 14.375 2.9375 C17 4 17 4 19 5 C19 5.66 19 6.32 19 7 C19.78375 7.309375 20.5675 7.61875 21.375 7.9375 C25.88059701 9.76119403 25.88059701 9.76119403 27.125 12.25 C28.00513321 15.01613295 28.1645438 17.12048351 28 20 C29.98 20.495 29.98 20.495 32 21 C32 21.66 32 22.32 32 23 C32.66 23 33.32 23 34 23 C36.1519437 26.22791555 36.20086443 27.28400809 36 31 C35.34 31 34.68 31 34 31 C33.67 32.65 33.34 34.3 33 36 C30.75 36.3125 30.75 36.3125 28 36 C25.6875 33.5 25.6875 33.5 24 31 C24 32.65 24 34.3 24 36 C16.73307672 36.0462955 9.46618512 36.08185493 2.19914436 36.10362434 C-1.17506994 36.11407142 -4.54918352 36.12824725 -7.92333984 36.15087891 C-11.80048318 36.17504885 -15.67748277 36.18646511 -19.5546875 36.1953125 C-20.76929657 36.20563507 -21.98390564 36.21595764 -23.23532104 36.22659302 C-24.35633209 36.22674408 -25.47734314 36.22689514 -26.63232422 36.22705078 C-27.62271698 36.231492 -28.61310974 36.23593323 -29.6335144 36.24050903 C-32 36 -32 36 -34 34 C-33.625 30.875 -33.625 30.875 -33 28 C-32.34 28 -31.68 28 -31 28 C-31 27.34 -31 26.68 -31 26 C-32.32 25.67 -33.64 25.34 -35 25 C-35.33 23.35 -35.66 21.7 -36 20 C-36.66 20 -37.32 20 -38 20 C-38 18.68 -38 17.36 -38 16 C-37.34 16 -36.68 16 -36 16 C-35.896875 15.401875 -35.79375 14.80375 -35.6875 14.1875 C-34.65140137 10.89082255 -32.92097409 9.54682837 -30 7.8125 C-28 7 -28 7 -25 7 C-25 6.34 -25 5.68 -25 5 C-13.52380741 1.09809452 -13.52380741 1.09809452 -8.375 3.625 C-5.65967376 5.24044726 -4.83223584 6.25164623 -3 9 C-2.67 7.02 -2.34 5.04 -2 3 C-1.34 3 -0.68 3 0 3 C0 2.01 0 1.02 0 0 Z M9 20 C10 23 10 23 10 23 Z M25 24 C24.67 24.66 24.34 25.32 24 26 C24.66 26 25.32 26 26 26 C26 26.66 26 27.32 26 28 C28.46326712 29.6446674 28.46326712 29.6446674 31 31 C31 29.02 31 27.04 31 25 C28.03 24.505 28.03 24.505 25 24 Z " fill="#C39B46" transform="translate(64,15)"/>
<path d="M0 0 C1.22111481 0.00007553 2.44222961 0.00015106 3.7003479 0.00022888 C5.03769979 0.00533587 6.37505127 0.01055187 7.71240234 0.01586914 C9.07717843 0.01773399 10.44195518 0.01915758 11.80673218 0.02015686 C15.40049077 0.02397676 18.99420902 0.03380256 22.58795166 0.04486084 C26.25442967 0.05508628 29.92091419 0.05965691 33.58740234 0.06469727 C40.78273325 0.07542529 47.97803089 0.0924954 55.17333984 0.11352539 C55.17333984 1.43352539 55.17333984 2.75352539 55.17333984 4.11352539 C54.18333984 4.77352539 53.19333984 5.43352539 52.17333984 6.11352539 C51.90521484 6.79415039 51.63708984 7.47477539 51.36083984 8.17602539 C50.17333984 10.11352539 50.17333984 10.11352539 47.23583984 10.92602539 C44.17333984 11.11352539 44.17333984 11.11352539 41.17333984 10.11352539 C41.28033203 11.3059082 41.38732422 12.49829102 41.49755859 13.72680664 C41.61948936 15.29314796 41.74053719 16.85955818 41.86083984 18.42602539 C41.93367188 19.21170898 42.00650391 19.99739258 42.08154297 20.80688477 C42.1637207 21.94287109 42.1637207 21.94287109 42.24755859 23.10180664 C42.30516357 23.79830322 42.36276855 24.4947998 42.42211914 25.21240234 C42.09011655 27.74950164 41.14007328 28.54107741 39.17333984 30.11352539 C36.91162109 31.06274414 36.91162109 31.06274414 34.48583984 31.80102539 C33.67759766 32.05239258 32.86935547 32.30375977 32.03662109 32.56274414 C31.42173828 32.74450195 30.80685547 32.92625977 30.17333984 33.11352539 C30.17333984 33.77352539 30.17333984 34.43352539 30.17333984 35.11352539 C27.20333984 35.11352539 24.23333984 35.11352539 21.17333984 35.11352539 C20.6682174 33.51096431 20.16942358 31.90640747 19.67333984 30.30102539 C19.39490234 29.40770508 19.11646484 28.51438477 18.82958984 27.59399414 C18.17333984 25.11352539 18.17333984 25.11352539 18.17333984 22.11352539 C17.51333984 22.11352539 16.85333984 22.11352539 16.17333984 22.11352539 C15.51333984 20.46352539 14.85333984 18.81352539 14.17333984 17.11352539 C12.85333984 17.11352539 11.53333984 17.11352539 10.17333984 17.11352539 C10.17333984 17.77352539 10.17333984 18.43352539 10.17333984 19.11352539 C6.19196154 20.44065149 2.32288757 20.18268452 -1.82666016 20.11352539 C-2.15666016 19.12352539 -2.48666016 18.13352539 -2.82666016 17.11352539 C-3.48666016 17.11352539 -4.14666016 17.11352539 -4.82666016 17.11352539 C-4.82666016 15.46352539 -4.82666016 13.81352539 -4.82666016 12.11352539 C-5.48666016 11.78352539 -6.14666016 11.45352539 -6.82666016 11.11352539 C-7.24072266 8.82836914 -7.24072266 8.82836914 -7.45166016 6.05102539 C-7.52642578 5.13192383 -7.60119141 4.21282227 -7.67822266 3.26586914 C-7.72720703 2.5555957 -7.77619141 1.84532227 -7.82666016 1.11352539 C-5.12376708 -0.23792115 -3.02596209 -0.00622626 0 0 Z " fill="#C59F4D" transform="translate(35.82666015625,74.886474609375)"/>
<path d="M0 0 C2.65580642 2.02679964 3.91893098 3.82372675 5.375 6.8125 C5.375 7.4725 5.375 8.1325 5.375 8.8125 C6.303125 9.2765625 6.303125 9.2765625 7.25 9.75 C8.625 10.4375 10 11.125 11.375 11.8125 C10.21660441 17.60447795 8.24285676 23.20892971 6.375 28.8125 C-3.525 28.8125 -13.425 28.8125 -23.625 28.8125 C-23.295 26.1725 -22.965 23.5325 -22.625 20.8125 C-23.945 20.4825 -25.265 20.1525 -26.625 19.8125 C-26.955 18.1625 -27.285 16.5125 -27.625 14.8125 C-28.285 14.8125 -28.945 14.8125 -29.625 14.8125 C-29.625 13.4925 -29.625 12.1725 -29.625 10.8125 C-28.965 10.8125 -28.305 10.8125 -27.625 10.8125 C-27.521875 10.214375 -27.41875 9.61625 -27.3125 9 C-26.50432076 6.42852059 -25.66727721 5.54449927 -23.625 3.8125 C-21.609375 2.93359375 -21.609375 2.93359375 -19.375 2.25 C-18.5809375 2.00507813 -17.786875 1.76015625 -16.96875 1.5078125 C-16.1953125 1.27835938 -15.421875 1.04890625 -14.625 0.8125 C-13.3875 0.420625 -12.15 0.02875 -10.875 -0.375 C-6.5925617 -1.44560958 -4.06447267 -1.83869002 0 0 Z " fill="#C29A44" transform="translate(55.625,20.1875)"/>
<path d="M0 0 C1.17755859 0.14888672 1.17755859 0.14888672 2.37890625 0.30078125 C4.4375 0.6875 4.4375 0.6875 6.4375 1.6875 C6.4375 3.6675 6.4375 5.6475 6.4375 7.6875 C5.7775 7.6875 5.1175 7.6875 4.4375 7.6875 C4.4375 8.3475 4.4375 9.0075 4.4375 9.6875 C5.4275 10.0175 6.4175 10.3475 7.4375 10.6875 C7.63085938 10.06101562 7.82421875 9.43453125 8.0234375 8.7890625 C8.41402344 7.56316406 8.41402344 7.56316406 8.8125 6.3125 C9.06773438 5.50039063 9.32296875 4.68828125 9.5859375 3.8515625 C10.4375 1.6875 10.4375 1.6875 12.4375 -0.3125 C14.9125 0.1825 14.9125 0.1825 17.4375 0.6875 C18.7575 4.9775 20.0775 9.2675 21.4375 13.6875 C21.7675 9.3975 22.0975 5.1075 22.4375 0.6875 C23.7575 0.3575 25.0775 0.0275 26.4375 -0.3125 C30.04404039 2.09186026 30.29202932 3.63429607 31.4375 7.6875 C31.7675 5.3775 32.0975 3.0675 32.4375 0.6875 C33.7575 0.6875 35.0775 0.6875 36.4375 0.6875 C36.4375 6.6275 36.4375 12.5675 36.4375 18.6875 C35.7775 18.6875 35.1175 18.6875 34.4375 18.6875 C34.4375 19.3475 34.4375 20.0075 34.4375 20.6875 C32.4375 20.6875 32.4375 20.6875 30.875 19.375 C29.4375 17.6875 29.4375 17.6875 28.4375 14.6875 C28.1075 16.0075 27.7775 17.3275 27.4375 18.6875 C20.6875 19.6875 20.6875 19.6875 18.4375 19.6875 C17.7775 18.3675 17.1175 17.0475 16.4375 15.6875 C15.1175 15.6875 13.7975 15.6875 12.4375 15.6875 C12.1075 16.3475 11.7775 17.0075 11.4375 17.6875 C10.7775 17.6875 10.1175 17.6875 9.4375 17.6875 C9.4375 18.3475 9.4375 19.0075 9.4375 19.6875 C8.86 19.31625 8.2825 18.945 7.6875 18.5625 C6.57375 18.129375 6.57375 18.129375 5.4375 17.6875 C4.86 17.996875 4.2825 18.30625 3.6875 18.625 C0.12325091 20.30811763 -2.72715121 19.37912027 -6.5625 18.6875 C-8.61264613 16.63735387 -7.79307975 12.55865412 -7.8125 9.75 C-7.833125 9.00814453 -7.85375 8.26628906 -7.875 7.50195312 C-7.890625 5.34765625 -7.890625 5.34765625 -7.5625 1.6875 C-4.24985796 -0.52092803 -3.72798604 -0.50975756 0 0 Z M-3.5625 4.6875 C-3.2325 5.6775 -2.9025 6.6675 -2.5625 7.6875 C-1.2425 7.3575 0.0775 7.0275 1.4375 6.6875 C1.4375 6.0275 1.4375 5.3675 1.4375 4.6875 C-0.2125 4.6875 -1.8625 4.6875 -3.5625 4.6875 Z M13.4375 5.6875 C13.4375 7.3375 13.4375 8.9875 13.4375 10.6875 C14.0975 10.3575 14.7575 10.0275 15.4375 9.6875 C14.7775 8.3675 14.1175 7.0475 13.4375 5.6875 Z M-4.5625 11.6875 C-4.2325 13.0075 -3.9025 14.3275 -3.5625 15.6875 C-1.9125 15.6875 -0.2625 15.6875 1.4375 15.6875 C1.4375 14.3675 1.4375 13.0475 1.4375 11.6875 C-0.5425 11.6875 -2.5225 11.6875 -4.5625 11.6875 Z " fill="#D7BC84" transform="translate(88.5625,53.3125)"/>
<path d="M0 0 C2.2578125 1.01171875 2.2578125 1.01171875 4 2 C4 5.66666667 4 9.33333333 4 13 C4.33 9.04 4.66 5.08 5 1 C6.32 0.67 7.64 0.34 9 0 C10 1 10 1 10.09765625 4.37890625 C10.09098369 5.77347077 10.07902532 7.16801743 10.0625 8.5625 C10.05798828 9.27341797 10.05347656 9.98433594 10.04882812 10.71679688 C10.03700864 12.47790013 10.01907263 14.23896036 10 16 C11.32 16 12.64 16 14 16 C14 11.05 14 6.1 14 1 C15.32 0.67 16.64 0.34 18 0 C19 1 19 1 19.09765625 4.81640625 C19.09098089 6.39846682 19.07901875 7.98051159 19.0625 9.5625 C19.05798828 10.36880859 19.05347656 11.17511719 19.04882812 12.00585938 C19.03700518 14.00393756 19.01906914 16.00197783 19 18 C15.35021433 19.36932044 12.67268608 20.30988134 8.8125 19.5625 C5.08793313 18.71996022 5.08793313 18.71996022 2 20 C-0.50037734 17.82575883 -1.43628586 16.26954202 -2 13 C-2.66 13 -3.32 13 -4 13 C-4.433125 14.7015625 -4.433125 14.7015625 -4.875 16.4375 C-5.24625 17.613125 -5.6175 18.78875 -6 20 C-6.66 20.33 -7.32 20.66 -8 21 C-8 20.34 -8 19.68 -8 19 C-8.66 19 -9.32 19 -10 19 C-10 13.06 -10 7.12 -10 1 C-6.86358252 -0.56820874 -3.42820517 -0.38163039 0 0 Z M-5 5 C-5 5.99 -5 6.98 -5 8 C-3.68 8 -2.36 8 -1 8 C-1 7.01 -1 6.02 -1 5 C-2.32 5 -3.64 5 -5 5 Z " fill="#DEC899" transform="translate(41,53)"/>
<path d="M0 0 C0 1.32 0 2.64 0 4 C0.66 4 1.32 4 2 4 C2.66 6.31 3.32 8.62 4 11 C4.33 7.37 4.66 3.74 5 0 C6.32 -0.33 7.64 -0.66 9 -1 C10 0 10 0 10.09765625 3.37890625 C10.09098369 4.77347077 10.07902532 6.16801743 10.0625 7.5625 C10.05798828 8.27341797 10.05347656 8.98433594 10.04882812 9.71679688 C10.03700864 11.47790013 10.01907263 13.23896036 10 15 C11.32 15 12.64 15 14 15 C14 10.05 14 5.1 14 0 C15.32 -0.33 16.64 -0.66 18 -1 C19 0 19 0 19.09765625 3.81640625 C19.09098089 5.39846682 19.07901875 6.98051159 19.0625 8.5625 C19.05798828 9.36880859 19.05347656 10.17511719 19.04882812 11.00585938 C19.03700518 13.00393756 19.01906914 15.00197783 19 17 C15.35021433 18.36932044 12.67268608 19.30988134 8.8125 18.5625 C5.08793313 17.71996022 5.08793313 17.71996022 2 19 C1.4121875 18.2575 1.4121875 18.2575 0.8125 17.5 C-0.93681178 15.78954136 -0.93681178 15.78954136 -3.5 15.625 C-6.37824511 16.05673677 -7.22510401 16.75802612 -9 19 C-9.66 18.67 -10.32 18.34 -11 18 C-11.33809914 12.47771408 -10.34683347 8.97528695 -8 4 C-7.835 3.21625 -7.67 2.4325 -7.5 1.625 C-7.335 1.08875 -7.17 0.5525 -7 0 C-3.86650268 -1.04449911 -3.01031744 -0.93423645 0 0 Z M-3 7 C-3.99 7.495 -3.99 7.495 -5 8 C-4.67 8.99 -4.34 9.98 -4 11 C-3.34 10.67 -2.68 10.34 -2 10 C-2.33 9.01 -2.66 8.02 -3 7 Z " fill="#E1CDA4" transform="translate(11,54)"/>
<path d="M0 0 C2.0625 2.1875 2.0625 2.1875 3 4 C3.33 2.02 3.66 0.04 4 -2 C4.66 -2 5.32 -2 6 -2 C5.95617188 -1.43152344 5.91234375 -0.86304688 5.8671875 -0.27734375 C5.87623641 2.43280484 6.09030233 4.43408146 7 7 C10.02257674 9.87995062 13.42269371 11.87889366 17 14 C18.34652209 14.98216905 19.68490832 15.97612909 21 17 C18.69 17.66 16.38 18.32 14 19 C14 18.01 14 17.02 14 16 C13.34 16 12.68 16 12 16 C12.28073073 18.14729141 12.57488499 20.29283193 12.875 22.4375 C13.03742188 23.63246094 13.19984375 24.82742187 13.3671875 26.05859375 C13.57601562 27.02925781 13.78484375 27.99992187 14 29 C14.99 29.495 14.99 29.495 16 30 C15.67 28.35 15.34 26.7 15 25 C15.66 25 16.32 25 17 25 C17.28875 25.639375 17.5775 26.27875 17.875 26.9375 C18.82823451 29.15206079 18.82823451 29.15206079 21 30 C20.34 28.35 19.68 26.7 19 25 C19.66 24.67 20.32 24.34 21 24 C21.66 25.98 22.32 27.96 23 30 C18.02179131 31.30151368 13.0639554 31.16186029 7.95703125 31.16796875 C6.99222336 31.17129715 6.02741547 31.17462555 5.03337097 31.17805481 C3.00019812 31.18310577 0.96701701 31.1854637 -1.06616211 31.18530273 C-4.18682282 31.18749952 -7.30713568 31.20570261 -10.42773438 31.22460938 C-12.40364462 31.22754154 -14.37955655 31.22952752 -16.35546875 31.23046875 C-17.2919072 31.23765427 -18.22834564 31.24483978 -19.19316101 31.25224304 C-20.05778458 31.24916641 -20.92240814 31.24608978 -21.81323242 31.24291992 C-22.57536545 31.24434494 -23.33749847 31.24576996 -24.12272644 31.24723816 C-26 31 -26 31 -28 29 C-27.625 25.875 -27.625 25.875 -27 23 C-26.34 23.33 -25.68 23.66 -25 24 C-25.33 25.65 -25.66 27.3 -26 29 C-16.1 29 -6.2 29 4 29 C4.33 26.69 4.66 24.38 5 22 C5.97265625 19.12890625 5.97265625 19.12890625 7.0625 16.5625 C7.42472656 15.69753906 7.78695312 14.83257812 8.16015625 13.94140625 C8.43730469 13.30074219 8.71445313 12.66007812 9 12 C8.38511719 11.70867188 7.77023438 11.41734375 7.13671875 11.1171875 C4.53260697 9.75562266 2.90454757 8.23291785 1 6 C0.855625 5.29875 0.71125 4.5975 0.5625 3.875 C0.1581727 1.78489431 0.1581727 1.78489431 -2.0625 0.6875 C-5.88043028 -0.20605815 -9.20520059 0.31945118 -13 1 C-14.7325 1.2784375 -14.7325 1.2784375 -16.5 1.5625 C-17.325 1.706875 -18.15 1.85125 -19 2 C-19 1.34 -19 0.68 -19 0 C-11.97992088 -2.85786102 -6.82511697 -3.83012893 0 0 Z " fill="#ECE0C6" transform="translate(58,20)"/>
<path d="M0 0 C0.66 0 1.32 0 2 0 C2.33 2.31 2.66 4.62 3 7 C4.32 7.33 5.64 7.66 7 8 C7 8.66 7 9.32 7 10 C7.66 10 8.32 10 9 10 C11.1519437 13.22791555 11.20086443 14.28400809 11 18 C10.34 18 9.68 18 9 18 C8.67 19.65 8.34 21.3 8 23 C5.75 23.3125 5.75 23.3125 3 23 C0.6875 20.5 0.6875 20.5 -1 18 C-1 19.65 -1 21.3 -1 23 C-3.31 23 -5.62 23 -8 23 C-8.66 20.69 -9.32 18.38 -10 16 C-10.66 16 -11.32 16 -12 16 C-11.34 17.98 -10.68 19.96 -10 22 C-11.9375 21.1875 -11.9375 21.1875 -14 20 C-14.33 19.01 -14.66 18.02 -15 17 C-15 18.65 -15 20.3 -15 22 C-15.99 21.67 -16.98 21.34 -18 21 C-18.33 16.71 -18.66 12.42 -19 8 C-18.34 8 -17.68 8 -17 8 C-16.67 8.66 -16.34 9.32 -16 10 C-15.278125 9.814375 -14.55625 9.62875 -13.8125 9.4375 C-10.87173027 8.98004693 -8.85896942 9.26483643 -6 10 C-5.67 10.99 -5.34 11.98 -5 13 C-4.38125 12.814375 -3.7625 12.62875 -3.125 12.4375 C-1 12 -1 12 1 13 C1 13.66 1 14.32 1 15 C2.32 15.66 3.64 16.32 5 17 C5.33 15.35 5.66 13.7 6 12 C3.03 11.505 3.03 11.505 0 11 C0.66 10.67 1.32 10.34 2 10 C1.34 6.7 0.68 3.4 0 0 Z " fill="#D6BA80" transform="translate(89,28)"/>
<path d="M0 0 C2.375 1.3125 2.375 1.3125 3.1875 3.4375 C3.249375 4.05625 3.31125 4.675 3.375 5.3125 C3.601875 4.69375 3.82875 4.075 4.0625 3.4375 C5.78462687 0.64929458 7.25300152 0.15010935 10.375 -0.6875 C11.365 -0.3575 12.355 -0.0275 13.375 0.3125 C13.375 6.2525 13.375 12.1925 13.375 18.3125 C12.385 18.6425 11.395 18.9725 10.375 19.3125 C9.715 18.9825 9.055 18.6525 8.375 18.3125 C8.375 16.3325 8.375 14.3525 8.375 12.3125 C7.715 12.3125 7.055 12.3125 6.375 12.3125 C6.375 13.9625 6.375 15.6125 6.375 17.3125 C3.88435112 17.99957555 1.99613708 18.3125 -0.625 18.3125 C-1.615 18.6425 -2.605 18.9725 -3.625 19.3125 C-4.285 18.9825 -4.945 18.6525 -5.625 18.3125 C-5.625 12.3725 -5.625 6.4325 -5.625 0.3125 C-2.625 -0.6875 -2.625 -0.6875 0 0 Z " fill="#E1CDA2" transform="translate(66.625,53.6875)"/>
<path d="M0 0 C19.8 0 39.6 0 60 0 C59 4 59 4 57.3125 5.8125 C54.16743437 7.4275337 52.36697267 6.8596526 49 6 C48.01 5.67 47.02 5.34 46 5 C46 4.01 46 3.02 46 2 C44.2828479 2.05329468 44.2828479 2.05329468 42.53100586 2.10766602 C38.26147879 2.23857848 33.99175266 2.36154401 29.72192383 2.48217773 C27.87811055 2.53536621 26.03435713 2.59067555 24.19067383 2.64819336 C21.53219506 2.73075481 18.8735905 2.80554803 16.21484375 2.87890625 C15.39789536 2.90594131 14.58094696 2.93297638 13.73924255 2.96083069 C9.02208927 3.08232191 4.65139657 2.80740198 0 2 C0 1.34 0 0.68 0 0 Z " fill="#BE9236" transform="translate(29,77)"/>
<path d="M0 0 C1.22111481 0.00007553 2.44222961 0.00015106 3.7003479 0.00022888 C5.03769979 0.00533587 6.37505127 0.01055187 7.71240234 0.01586914 C9.07717843 0.01773399 10.44195518 0.01915758 11.80673218 0.02015686 C15.40049077 0.02397676 18.99420902 0.03380256 22.58795166 0.04486084 C26.25442967 0.05508628 29.92091419 0.05965691 33.58740234 0.06469727 C40.78273325 0.07542529 47.97803089 0.0924954 55.17333984 0.11352539 C55.17333984 1.43352539 55.17333984 2.75352539 55.17333984 4.11352539 C54.18333984 4.44352539 53.19333984 4.77352539 52.17333984 5.11352539 C52.17333984 4.45352539 52.17333984 3.79352539 52.17333984 3.11352539 C22.96833984 2.61852539 22.96833984 2.61852539 -6.82666016 2.11352539 C-6.49666016 2.77352539 -6.16666016 3.43352539 -5.82666016 4.11352539 C-3.29932781 4.76907658 -3.29932781 4.76907658 -0.82666016 5.11352539 C-0.82666016 5.77352539 -0.82666016 6.43352539 -0.82666016 7.11352539 C-2.80666016 8.10352539 -2.80666016 8.10352539 -4.82666016 9.11352539 C-4.16666016 9.77352539 -3.50666016 10.43352539 -2.82666016 11.11352539 C-4.14666016 11.11352539 -5.46666016 11.11352539 -6.82666016 11.11352539 C-7.15666016 7.81352539 -7.48666016 4.51352539 -7.82666016 1.11352539 C-5.12376708 -0.23792115 -3.02596209 -0.00622626 0 0 Z " fill="#E1CCA1" transform="translate(35.82666015625,74.886474609375)"/>
<path d="M0 0 C0.99 0.33 1.98 0.66 3 1 C3 6.94 3 12.88 3 19 C2.34 19 1.68 19 1 19 C1 19.66 1 20.32 1 21 C0.34 21 -0.32 21 -1 21 C-1.83739781 18.8765984 -2.66980283 16.7512272 -3.5 14.625 C-4.19609375 12.84996094 -4.19609375 12.84996094 -4.90625 11.0390625 C-6 8 -6 8 -6 6 C-6.66 6 -7.32 6 -8 6 C-8 9.96 -8 13.92 -8 18 C-8.66 18 -9.32 18 -10 18 C-10 12.72 -10 7.44 -10 2 C-8.68 2.33 -7.36 2.66 -6 3 C-5.67 3.99 -5.34 4.98 -5 6 C-4.34 6 -3.68 6 -3 6 C-2.67 6.66 -2.34 7.32 -2 8 C-1.855625 6.865625 -1.71125 5.73125 -1.5625 4.5625 C-1 1 -1 1 0 0 Z " fill="#D0B06D" transform="translate(122,53)"/>
<path d="M0 0 C1.32 0.33 2.64 0.66 4 1 C4 6.61 4 12.22 4 18 C-2 20 -2 20 -8 19 C-8 13.39 -8 7.78 -8 2 C-7.34 2 -6.68 2 -6 2 C-6 6.62 -6 11.24 -6 16 C-4.35 16 -2.7 16 -1 16 C-1.01160156 14.92878906 -1.02320313 13.85757813 -1.03515625 12.75390625 C-1.04453299 11.35677257 -1.05363331 9.95963701 -1.0625 8.5625 C-1.07506836 7.50192383 -1.07506836 7.50192383 -1.08789062 6.41992188 C-1.09653588 4.61306441 -1.05220011 2.80612397 -1 1 C-0.67 0.67 -0.34 0.34 0 0 Z " fill="#C59E4C" transform="translate(56,53)"/>
<path d="M0 0 C0.66 0 1.32 0 2 0 C2.33 0.66 2.66 1.32 3 2 C4.98 1.67 6.96 1.34 9 1 C9 1.66 9 2.32 9 3 C9.66 3 10.32 3 11 3 C14 8.75 14 8.75 14 11 C14.99 11.33 15.98 11.66 17 12 C17 12.66 17 13.32 17 14 C15.02 14 13.04 14 11 14 C10.34 12.02 9.68 10.04 9 8 C8.34 8 7.68 8 7 8 C7.66 9.98 8.32 11.96 9 14 C7.0625 13.1875 7.0625 13.1875 5 12 C4.67 11.01 4.34 10.02 4 9 C4 10.65 4 12.3 4 14 C3.01 13.67 2.02 13.34 1 13 C0.67 8.71 0.34 4.42 0 0 Z " fill="#EADDC0" transform="translate(70,36)"/>
<path d="M0 0 C0.66 0 1.32 0 2 0 C3.28317892 3.84953676 3.06643637 6.94738135 3 11 C2.195625 10.979375 1.39125 10.95875 0.5625 10.9375 C-1.93354885 10.70366379 -1.93354885 10.70366379 -3 12 C-7.39998945 12.21832989 -11.80534812 12.18579146 -16.21020508 12.18530273 C-18.42483782 12.18748751 -20.63897123 12.20563531 -22.85351562 12.22460938 C-24.25520662 12.22754356 -25.6569 12.22952819 -27.05859375 12.23046875 C-28.34048584 12.23457764 -29.62237793 12.23868652 -30.94311523 12.24291992 C-34 12 -34 12 -36 10 C-35.625 6.875 -35.625 6.875 -35 4 C-34.34 4.33 -33.68 4.66 -33 5 C-33.33 6.65 -33.66 8.3 -34 10 C-24.1 10 -14.2 10 -4 10 C-3.67 7.69 -3.34 5.38 -3 3 C-2.01 3 -1.02 3 0 3 C0 2.01 0 1.02 0 0 Z " fill="#DCC595" transform="translate(66,39)"/>
<path d="M0 0 C1.85625 -0.061875 1.85625 -0.061875 3.75 -0.125 C4.79414062 -0.15980469 4.79414062 -0.15980469 5.859375 -0.1953125 C8.30155975 0.02751458 9.88636771 0.79085 12 2 C12 5.66666667 12 9.33333333 12 13 C12.33 9.04 12.66 5.08 13 1 C14.32 0.67 15.64 0.34 17 0 C18 1 18 1 18.09765625 4.37890625 C18.09098369 5.77347077 18.07902532 7.16801743 18.0625 8.5625 C18.05798828 9.27341797 18.05347656 9.98433594 18.04882812 10.71679688 C18.03700864 12.47790013 18.01907263 14.23896036 18 16 C17.67 16 17.34 16 17 16 C17 11.38 17 6.76 17 2 C16.34 2 15.68 2 15 2 C15 7.28 15 12.56 15 18 C13.35 18.66 11.7 19.32 10 20 C7.49962266 17.82575883 6.56371414 16.26954202 6 13 C7.32 13.99 8.64 14.98 10 16 C9.835 15.154375 9.67 14.30875 9.5 13.4375 C8.98670712 9.90861144 8.92878654 6.56067311 9 3 C6.03 2.67 3.06 2.34 0 2 C0 1.34 0 0.68 0 0 Z " fill="#E2CEA6" transform="translate(33,53)"/>
<path d="M0 0 C1.98 0.495 1.98 0.495 4 1 C4 5.95 4 10.9 4 16 C5.32 16 6.64 16 8 16 C8 11.05 8 6.1 8 1 C9.32 0.67 10.64 0.34 12 0 C13 1 13 1 13.09765625 4.81640625 C13.09098089 6.39846682 13.07901875 7.98051159 13.0625 9.5625 C13.05798828 10.36880859 13.05347656 11.17511719 13.04882812 12.00585938 C13.03700518 14.00393756 13.01906914 16.00197783 13 18 C8.46331559 19.66472173 5.74748444 20.13035344 1 19 C1 18.67 1 18.34 1 18 C4.3 18 7.6 18 11 18 C10.67 17.34 10.34 16.68 10 16 C9.67 16.33 9.34 16.66 9 17 C7.02 17 5.04 17 3 17 C3 12.05 3 7.1 3 2 C1.68 1.67 0.36 1.34 -1 1 C-0.67 0.67 -0.34 0.34 0 0 Z " fill="#E0CCA0" transform="translate(17,53)"/>
<path d="M0 0 C2.625 0.9375 2.625 0.9375 5 2 C4.67 3.32 4.34 4.64 4 6 C3.34 5.01 2.68 4.02 2 3 C1.01 2.67 0.02 2.34 -1 2 C-1 7.28 -1 12.56 -1 18 C-0.34 18 0.32 18 1 18 C1 14.04 1 10.08 1 6 C1.66 6 2.32 6 3 6 C3.6708712 7.6232687 4.33657029 9.24867578 5 10.875 C5.37125 11.77992187 5.7425 12.68484375 6.125 13.6171875 C7 16 7 16 7 18 C6.34 18 5.68 18 5 18 C4.67 17.01 4.34 16.02 4 15 C3.67 16.32 3.34 17.64 3 19 C-3.75 20 -3.75 20 -6 20 C-6.33 18.35 -6.66 16.7 -7 15 C-6.34 15.66 -5.68 16.32 -5 17 C-5 15.02 -5 13.04 -5 11 C-4.01 12.485 -4.01 12.485 -3 14 C-2.95101562 13.07316406 -2.90203125 12.14632812 -2.8515625 11.19140625 C-2.77679688 9.99386719 -2.70203125 8.79632813 -2.625 7.5625 C-2.55539063 6.36753906 -2.48578125 5.17257813 -2.4140625 3.94140625 C-2.27742188 2.97074219 -2.14078125 2.00007813 -2 1 C-1.34 0.67 -0.68 0.34 0 0 Z " fill="#E2CEA4" transform="translate(113,53)"/>
<path d="M0 0 C1.32 0 2.64 0 4 0 C4 9 4 9 3.875 11.625 C4.01675414 15.45236171 4.83703311 18.36572848 6 22 C3.625 21.5 3.625 21.5 1 20 C-1.29947108 13.64907987 -2.18199208 6.54597624 0 0 Z " fill="#EBDEC2" transform="translate(96,75)"/>
<path d="M0 0 C2.0625 2.1875 2.0625 2.1875 3 4 C3.33 2.02 3.66 0.04 4 -2 C4.66 -2 5.32 -2 6 -2 C6.02578125 -1.39671875 6.0515625 -0.7934375 6.078125 -0.171875 C6.40331983 5.10535339 6.40331983 5.10535339 9.0625 9.5625 C9.701875 10.036875 10.34125 10.51125 11 11 C10.34 12.32 9.68 13.64 9 15 C9 14.01 9 13.02 9 12 C8.13375 11.62875 8.13375 11.62875 7.25 11.25 C4.63816093 9.79897829 2.93789627 8.27201631 1 6 C0.855625 5.29875 0.71125 4.5975 0.5625 3.875 C0.1581727 1.78489431 0.1581727 1.78489431 -2.0625 0.6875 C-5.88043028 -0.20605815 -9.20520059 0.31945118 -13 1 C-14.7325 1.2784375 -14.7325 1.2784375 -16.5 1.5625 C-17.325 1.706875 -18.15 1.85125 -19 2 C-19 1.34 -19 0.68 -19 0 C-11.97992088 -2.85786102 -6.82511697 -3.83012893 0 0 Z " fill="#E3D1AB" transform="translate(58,20)"/>
<path d="M0 0 C1.32 0 2.64 0 4 0 C4 4.95 4 9.9 4 15 C5.98 14.67 7.96 14.34 10 14 C10.33 9.38 10.66 4.76 11 0 C11.33 0 11.66 0 12 0 C12 5.28 12 10.56 12 16 C10.39125 16.020625 8.7825 16.04125 7.125 16.0625 C5.76761719 16.07990234 5.76761719 16.07990234 4.3828125 16.09765625 C2 16 2 16 0 15 C0 10.05 0 5.1 0 0 Z " fill="#C19840" transform="translate(16,55)"/>
<path d="M0 0 C0 5.94 0 11.88 0 18 C-0.99 18.33 -1.98 18.66 -3 19 C-3.66 18.67 -4.32 18.34 -5 18 C-5 16.02 -5 14.04 -5 12 C-5.66 12 -6.32 12 -7 12 C-6.67 10.02 -6.34 8.04 -6 6 C-5.34 6 -4.68 6 -4 6 C-4 9.63 -4 13.26 -4 17 C-3.34 17 -2.68 17 -2 17 C-2 11.72 -2 6.44 -2 1 C-6.23578792 3.10390941 -6.23578792 3.10390941 -8 7 C-9 5 -9 5 -8.75 3 C-6.9594172 -1.77488748 -4.52778815 -0.90555763 0 0 Z " fill="#EADCBE" transform="translate(80,54)"/>
<path d="M0 0 C3.96 0 7.92 0 12 0 C12 0.66 12 1.32 12 2 C12.78375 2.309375 13.5675 2.61875 14.375 2.9375 C17 4 17 4 19 5 C19 5.66 19 6.32 19 7 C20.175625 7.4640625 20.175625 7.4640625 21.375 7.9375 C24 9 24 9 26 10 C26 10.66 26 11.32 26 12 C24.2265625 12.671875 24.2265625 12.671875 22 13 C20.1484375 11.890625 20.1484375 11.890625 18.375 10.25 C17.78460938 9.71890625 17.19421875 9.1878125 16.5859375 8.640625 C15 7 15 7 13 4 C10.6751982 3.45408938 10.6751982 3.45408938 8.0625 3.375 C5.06967211 3.18987663 2.86861844 2.95620615 0 2 C0 1.34 0 0.68 0 0 Z " fill="#D6BB82" transform="translate(64,15)"/>
<path d="M0 0 C0.66 0 1.32 0 2 0 C3.32 4.29 4.64 8.58 6 13 C5.34 9.04 4.68 5.08 4 1 C4.66 1 5.32 1 6 1 C6.19335938 1.77085938 6.38671875 2.54171875 6.5859375 3.3359375 C6.84632812 4.33882812 7.10671875 5.34171875 7.375 6.375 C7.63023438 7.37273437 7.88546875 8.37046875 8.1484375 9.3984375 C8.82404319 12.12541015 8.82404319 12.12541015 11 14 C9.35 14.66 7.7 15.32 6 16 C4 14.25 4 14.25 2 12 C2 10.68 2 9.36 2 8 C1.34 7.67 0.68 7.34 0 7 C0.66 7 1.32 7 2 7 C1.67 6.34 1.34 5.68 1 5 C0.34 5 -0.32 5 -1 5 C-0.67 3.35 -0.34 1.7 0 0 Z " fill="#E5D5B1" transform="translate(7,57)"/>
<path d="M0 0 C-3.465 1.485 -3.465 1.485 -7 3 C-6.67 4.98 -6.34 6.96 -6 9 C-6.66 9 -7.32 9 -8 9 C-8.66 7.35 -9.32 5.7 -10 4 C-11.32 4 -12.64 4 -14 4 C-14 4.66 -14 5.32 -14 6 C-17.9813783 7.3271261 -21.85045227 7.06915913 -26 7 C-26 6.01 -26 5.02 -26 4 C-25.36320312 4.226875 -24.72640625 4.45375 -24.0703125 4.6875 C-19.56530847 5.14602458 -16.06296641 3.55956374 -11.875 2 C-10.27122998 1.40846638 -8.66454532 0.82475916 -7.0546875 0.25 C-6.34812012 -0.01296875 -5.64155273 -0.2759375 -4.91357422 -0.546875 C-3 -1 -3 -1 0 0 Z " fill="#DCC595" transform="translate(60,88)"/>
<path d="M0 0 C1.2065625 0.0309375 1.2065625 0.0309375 2.4375 0.0625 C1.4475 0.7225 0.4575 1.3825 -0.5625 2.0625 C-1.50182455 5.18699417 -1.43579462 7.9276134 -0.5625 11.0625 C1.8992781 13.62685219 4.77417296 15.05842389 7.9375 16.625 C8.74832031 17.06134766 9.55914062 17.49769531 10.39453125 17.94726562 C12.39457319 19.01787631 14.40592787 20.05338837 16.4375 21.0625 C13.4375 22.0625 13.4375 22.0625 10.6953125 20.76953125 C9.66148438 20.14433594 8.62765625 19.51914062 7.5625 18.875 C6.53382812 18.26269531 5.50515625 17.65039062 4.4453125 17.01953125 C-1.25630526 13.30977736 -1.25630526 13.30977736 -3.5625 11.0625 C-4.0859375 8.51953125 -4.0859375 8.51953125 -3.9375 5.875 C-3.90398438 4.99457031 -3.87046875 4.11414063 -3.8359375 3.20703125 C-3.43663571 0.07536435 -3.20031856 0.07805655 0 0 Z " fill="#BD9135" transform="translate(67.5625,15.9375)"/>
<path d="M0 0 C1.32 0 2.64 0 4 0 C4 0.66 4 1.32 4 2 C4.66 2 5.32 2 6 2 C9 7.75 9 7.75 9 10 C9.99 10.33 10.98 10.66 12 11 C12 11.66 12 12.32 12 13 C10.02 13 8.04 13 6 13 C4.99491199 11.21118264 3.99607264 9.41885304 3 7.625 C2.1646875 6.12839844 2.1646875 6.12839844 1.3125 4.6015625 C0 2 0 2 0 0 Z " fill="#C0953C" transform="translate(75,37)"/>
<path d="M0 0 C1.134375 0.020625 2.26875 0.04125 3.4375 0.0625 C3.4375 0.3925 3.4375 0.7225 3.4375 1.0625 C1.4575 1.0625 -0.5225 1.0625 -2.5625 1.0625 C-2.5625 3.0425 -2.5625 5.0225 -2.5625 7.0625 C0.9025 6.5675 0.9025 6.5675 4.4375 6.0625 C4.4375 6.7225 4.4375 7.3825 4.4375 8.0625 C5.0975 8.0625 5.7575 8.0625 6.4375 8.0625 C6.47991723 10.39544775 6.47842937 12.72952567 6.4375 15.0625 C5.4375 16.0625 5.4375 16.0625 3.37109375 16.16015625 C2.54738281 16.14855469 1.72367187 16.13695313 0.875 16.125 C0.04871094 16.11597656 -0.77757813 16.10695313 -1.62890625 16.09765625 C-2.58603516 16.08025391 -2.58603516 16.08025391 -3.5625 16.0625 C-3.8925 14.7425 -4.2225 13.4225 -4.5625 12.0625 C-3.9025 12.7225 -3.2425 13.3825 -2.5625 14.0625 C0.52097826 14.22931109 0.52097826 14.22931109 3.4375 14.0625 C3.4375 12.4125 3.4375 10.7625 3.4375 9.0625 C2.303125 8.918125 1.16875 8.77375 0 8.625 C-3.5625 8.0625 -3.5625 8.0625 -4.5625 7.0625 C-4.6875 4.0625 -4.6875 4.0625 -4.5625 1.0625 C-3.5625 0.0625 -3.5625 0.0625 0 0 Z " fill="#BA8C2B" transform="translate(86.5625,54.9375)"/>
<path d="M0 0 C0.99 0 1.98 0 3 0 C3 5.28 3 10.56 3 16 C2.34 16 1.68 16 1 16 C1 12.37 1 8.74 1 5 C0.34 5 -0.32 5 -1 5 C-1.33 6.98 -1.66 8.96 -2 11 C-2.66 10.01 -3.32 9.02 -4 8 C-3.15955106 4.56816682 -2.51471866 2.51471866 0 0 Z " fill="#BE9338" transform="translate(75,55)"/>
<path d="M0 0 C3.3 1.65 6.6 3.3 10 5 C7.64046906 7.35953094 6.22104383 7.49141413 3 8 C3 7.01 3 6.02 3 5 C2.34 5 1.68 5 1 5 C1 6.32 1 7.64 1 9 C-0.32 8.67 -1.64 8.34 -3 8 C-3 8.99 -3 9.98 -3 11 C-3.66 11 -4.32 11 -5 11 C-4.46884894 6.48521602 -2.63379708 3.65333143 0 0 Z " fill="#E6D6B4" transform="translate(69,31)"/>
<path d="M0 0 C2.475 0.99 2.475 0.99 5 2 C5 2.66 5 3.32 5 4 C6.32 3.67 7.64 3.34 9 3 C8.67 4.32 8.34 5.64 8 7 C8.66 7.33 9.32 7.66 10 8 C9.67 8.33 9.34 8.66 9 9 C8.95936168 10.66617115 8.957279 12.33388095 9 14 C6.69 14 4.38 14 2 14 C2 13.67 2 13.34 2 13 C3.98 13 5.96 13 8 13 C7.566875 12.45730469 7.13375 11.91460937 6.6875 11.35546875 C6.130625 10.64003906 5.57375 9.92460938 5 9.1875 C4.443125 8.47980469 3.88625 7.77210937 3.3125 7.04296875 C2 5 2 5 2 2 C1.34 2 0.68 2 0 2 C0 1.34 0 0.68 0 0 Z " fill="#DBC28F" transform="translate(79,37)"/>
<path d="M0 0 C0 0.66 0 1.32 0 2 C-0.969375 2.474375 -1.93875 2.94875 -2.9375 3.4375 C-5.80477437 4.70193947 -5.80477437 4.70193947 -7 6 C-7.07205511 7.68608966 -7.08386068 9.37500659 -7.0625 11.0625 C-7.04896484 12.44115234 -7.04896484 12.44115234 -7.03515625 13.84765625 C-7.02355469 14.55792969 -7.01195312 15.26820312 -7 16 C-6.34 16.33 -5.68 16.66 -5 17 C-5.33 17.66 -5.66 18.32 -6 19 C-6.99 18.67 -7.98 18.34 -9 18 C-9.33 16.35 -9.66 14.7 -10 13 C-10.66 13 -11.32 13 -12 13 C-12 11.68 -12 10.36 -12 9 C-11.34 9 -10.68 9 -10 9 C-9.896875 8.401875 -9.79375 7.80375 -9.6875 7.1875 C-8.64340967 3.8653944 -6.90547121 2.52133191 -3.9375 0.8125 C-2 0 -2 0 0 0 Z " fill="#DAC08C" transform="translate(38,22)"/>
<path d="M0 0 C6.93359375 -0.09765625 6.93359375 -0.09765625 9 0 C10 1 10 1 10.0625 3.36328125 C10.02099882 5.3216181 9.97933348 7.27995147 9.9375 9.23828125 C9.99306926 11.69374808 10.28956469 13.66333387 11 16 C9.29115995 14.37660195 7.62553283 12.70680947 6 11 C6 10.34 6 9.68 6 9 C5.34 8.67 4.68 8.34 4 8 C5.32 7.67 6.64 7.34 8 7 C8 5.35 8 3.7 8 2 C6.02 2 4.04 2 2 2 C1.67 6.62 1.34 11.24 1 16 C0.67 16 0.34 16 0 16 C0 10.72 0 5.44 0 0 Z " fill="#B5841D" transform="translate(33,55)"/>
<path d="M0 0 C0.66 0 1.32 0 2 0 C2.36237263 1.62318979 2.71465157 3.2486358 3.0625 4.875 C3.25972656 5.77992187 3.45695312 6.68484375 3.66015625 7.6171875 C4 10 4 10 3 12 C1.68 12 0.36 12 -1 12 C-1.33 12.66 -1.66 13.32 -2 14 C-2.66 14 -3.32 14 -4 14 C-3.71572583 12.41532272 -3.42225182 10.8322943 -3.125 9.25 C-2.96257812 8.36828125 -2.80015625 7.4865625 -2.6328125 6.578125 C-2.03203736 4.13052256 -1.22002883 2.19400143 0 0 Z M0 2 C0 3.65 0 5.3 0 7 C0.66 6.67 1.32 6.34 2 6 C1.34 4.68 0.68 3.36 0 2 Z " fill="#E4D2AD" transform="translate(102,57)"/>
<path d="M0 0 C1.65 0.33 3.3 0.66 5 1 C5.53093324 2.93475671 6.04942317 4.87293155 6.5625 6.8125 C6.85253906 7.89144531 7.14257812 8.97039063 7.44140625 10.08203125 C8 13 8 13 7 16 C4.77343836 11.25645564 3.53851968 7.27749285 3 2 C2.34 2 1.68 2 1 2 C0.01 4.97 -0.98 7.94 -2 11 C-3.28485596 5.86057616 -2.22194431 4.62164416 0 0 Z " fill="#BC8F30" transform="translate(6,55)"/>
<path d="M0 0 C0.66 0 1.32 0 2 0 C2.33 2.64 2.66 5.28 3 8 C3.66 8 4.32 8 5 8 C5 8.66 5 9.32 5 10 C4.4225 9.62875 3.845 9.2575 3.25 8.875 C2.13625 8.441875 2.13625 8.441875 1 8 C0.4225 8.309375 -0.155 8.61875 -0.75 8.9375 C-4.31424909 10.62061763 -7.16465121 9.69162027 -11 9 C-12 8 -12 8 -12.0625 4.9375 C-12.041875 3.968125 -12.02125 2.99875 -12 2 C-11.67 2 -11.34 2 -11 2 C-10.67 3.65 -10.34 5.3 -10 7 C-7.03 7 -4.06 7 -1 7 C-0.67 4.69 -0.34 2.38 0 0 Z " fill="#E5D3AE" transform="translate(93,63)"/>
<path d="M0 0 C4 1 4 1 6 4 C5.625 6.1875 5.625 6.1875 5 8 C4.67 6.68 4.34 5.36 4 4 C3.34 4 2.68 4 2 4 C2 7.96 2 11.92 2 16 C1.34 16 0.68 16 0 16 C0 10.72 0 5.44 0 0 Z " fill="#BD9033" transform="translate(112,55)"/>
<path d="M0 0 C1.32 0 2.64 0 4 0 C4 2.64 4 5.28 4 8 C3.67 8 3.34 8 3 8 C2.67 9.98 2.34 11.96 2 14 C-0.28062828 10.57905758 -0.21925007 9.31812778 -0.125 5.3125 C-0.10695313 4.31863281 -0.08890625 3.32476562 -0.0703125 2.30078125 C-0.04710938 1.54152344 -0.02390625 0.78226562 0 0 Z " fill="#CBA961" transform="translate(96,75)"/>
<path d="M0 0 C1.32 0.33 2.64 0.66 4 1 C5.69726294 4.73397847 6.23990744 7.92157346 6 12 C4 9 4 9 3.5 6.875 C3.335 6.25625 3.17 5.6375 3 5 C2.34 4.67 1.68 4.34 1 4 C1 7.96 1 11.92 1 16 C0.67 16 0.34 16 0 16 C0 10.72 0 5.44 0 0 Z " fill="#B78721" transform="translate(63,55)"/>
<path d="M0 0 C0.33 0 0.66 0 1 0 C1 1.98 1 3.96 1 6 C2.5159375 5.7834375 2.5159375 5.7834375 4.0625 5.5625 C9.53125 4.78125 9.53125 4.78125 15 4 C11.43291518 7.41199418 6.85259181 8.68721784 2 9 C1.01 8.34 0.02 7.68 -1 7 C-0.67 4.69 -0.34 2.38 0 0 Z " fill="#BE9236" transform="translate(34,85)"/>
<path d="M0 0 C0.66 0 1.32 0 2 0 C5.42857143 7.28571429 5.42857143 7.28571429 5 12 C3.68 12.33 2.36 12.66 1 13 C0.67 8.71 0.34 4.42 0 0 Z " fill="#D5B97F" transform="translate(68,59)"/>
<path d="M0 0 C7.875 0.875 7.875 0.875 9 2 C9.125 4.5 9.125 4.5 9 7 C8 8 8 8 4.9375 8.0625 C3.968125 8.041875 2.99875 8.02125 2 8 C0.74335022 5.09399739 0 3.20395416 0 0 Z M2 3 C2.33 4.32 2.66 5.64 3 7 C4.65 7 6.3 7 8 7 C8 5.68 8 4.36 8 3 C6.02 3 4.04 3 2 3 Z " fill="#D5B97F" transform="translate(82,62)"/>
<path d="M0 0 C2.0625 0.4375 2.0625 0.4375 4 1 C3.01 1.33 2.02 1.66 1 2 C1 6.62 1 11.24 1 16 C0.34 16 -0.32 16 -1 16 C-1.02685095 13.52076199 -1.04676547 11.0418116 -1.0625 8.5625 C-1.07506836 7.50192383 -1.07506836 7.50192383 -1.08789062 6.41992188 C-1.09653588 4.61306441 -1.05220011 2.80612397 -1 1 C-0.67 0.67 -0.34 0.34 0 0 Z " fill="#ECDFC5" transform="translate(56,53)"/>
<path d="M0 0 C0.66 0 1.32 0 2 0 C2.02578125 0.60328125 2.0515625 1.2065625 2.078125 1.828125 C2.40331983 7.10535339 2.40331983 7.10535339 5.0625 11.5625 C6.0215625 12.2740625 6.0215625 12.2740625 7 13 C6.34 14.32 5.68 15.64 5 17 C5 16.01 5 15.02 5 14 C4.38125 13.690625 3.7625 13.38125 3.125 13.0625 C1.75 12.375 0.375 11.6875 -1 11 C-0.67 10.34 -0.34 9.68 0 9 C0.06950541 7.45976004 0.08452357 5.91665012 0.0625 4.375 C0.05347656 3.55773437 0.04445312 2.74046875 0.03515625 1.8984375 C0.02355469 1.27195312 0.01195312 0.64546875 0 0 Z " fill="#D9C08B" transform="translate(62,18)"/>
<path d="M0 0 C0.66 0 1.32 0 2 0 C4.1519437 3.22791555 4.20086443 4.28400809 4 8 C3.34 8 2.68 8 2 8 C1.67 9.65 1.34 11.3 1 13 C-0.65 13 -2.3 13 -4 13 C-4.66 11.68 -5.32 10.36 -6 9 C-5.34 9 -4.68 9 -4 9 C-3.67 9.66 -3.34 10.32 -3 11 C-2.01 11 -1.02 11 0 11 C0 7.37 0 3.74 0 0 Z " fill="#E6D6B3" transform="translate(96,38)"/>
<path d="M0 0 C0.66 0 1.32 0 2 0 C2.6708712 1.6232687 3.33657029 3.24867578 4 4.875 C4.556875 6.23238281 4.556875 6.23238281 5.125 7.6171875 C6 10 6 10 6 12 C5.34 12 4.68 12 4 12 C3.67 10.02 3.34 8.04 3 6 C2.34 6 1.68 6 1 6 C0.67 7.32 0.34 8.64 0 10 C0 6.7 0 3.4 0 0 Z " fill="#E5D4AF" transform="translate(114,59)"/>
<path d="M0 0 C0.33 0.99 0.66 1.98 1 3 C-2.87501924 5.58334616 -4.53388926 4.64961611 -9 4 C-9.66 4.66 -10.32 5.32 -11 6 C-11 4.35 -11 2.7 -11 1 C-10.37351562 1.09539062 -9.74703125 1.19078125 -9.1015625 1.2890625 C-7.87566406 1.45535156 -7.87566406 1.45535156 -6.625 1.625 C-5.81289062 1.74101563 -5.00078125 1.85703125 -4.1640625 1.9765625 C-3.44992188 1.98429687 -2.73578125 1.99203125 -2 2 C-1.34 1.34 -0.68 0.68 0 0 Z " fill="#E0CB9F" transform="translate(86,81)"/>
<path d="M0 0 C2.67927341 4.01891012 2.15601248 6.24161923 2 11 C0.35 11 -1.3 11 -3 11 C-3.33 10.34 -3.66 9.68 -4 9 C-3.01 9 -2.02 9 -1 9 C-0.67 6.03 -0.34 3.06 0 0 Z " fill="#BF943A" transform="translate(67,39)"/>
<path d="M0 0 C7.625 1.75 7.625 1.75 11 4 C11 4.66 11 5.32 11 6 C9.234375 6.6796875 9.234375 6.6796875 7 7 C5.078125 5.8203125 5.078125 5.8203125 3.25 4.125 C2.63640625 3.57070313 2.0228125 3.01640625 1.390625 2.4453125 C0 1 0 1 0 0 Z " fill="#D1B271" transform="translate(79,21)"/>
<path d="M0 0 C0.66 0 1.32 0 2 0 C2.66 4.62 3.32 9.24 4 14 C3.01 13.67 2.02 13.34 1 13 C0.67 8.71 0.34 4.42 0 0 Z " fill="#C29945" transform="translate(70,36)"/>
<path d="M0 0 C1.99954746 -0.04254356 4.00041636 -0.04080783 6 0 C7 1 7 1 7.0625 3.5625 C7.041875 4.366875 7.02125 5.17125 7 6 C5.35 6.33 3.7 6.66 2 7 C2 6.34 2 5.68 2 5 C2.99 5 3.98 5 5 5 C5 4.01 5 3.02 5 2 C3.35 1.67 1.7 1.34 0 1 C0 0.67 0 0.34 0 0 Z " fill="#D5B97E" transform="translate(35,56)"/>
<path d="M0 0 C1.32 0.33 2.64 0.66 4 1 C3.25 5.75 3.25 5.75 1 8 C0 7 0 7 -0.0625 3.4375 C-0.041875 2.303125 -0.02125 1.16875 0 0 Z " fill="#D2B374" transform="translate(0,65)"/>
<path d="M0 0 C0.33 0 0.66 0 1 0 C1.125 5.75 1.125 5.75 0 8 C0.66 8 1.32 8 2 8 C2 8.66 2 9.32 2 10 C0.35 10 -1.3 10 -3 10 C-2.01 6.7 -1.02 3.4 0 0 Z " fill="#E4D3AE" transform="translate(64,100)"/>
<path d="M0 0 C0.66 0 1.32 0 2 0 C2 3.63 2 7.26 2 11 C2.66 11 3.32 11 4 11 C3.67 11.66 3.34 12.32 3 13 C2.34 12.67 1.68 12.34 1 12 C1 10.02 1 8.04 1 6 C0.34 6 -0.32 6 -1 6 C-0.67 4.02 -0.34 2.04 0 0 Z " fill="#DFCA9E" transform="translate(74,60)"/>
<path d="M0 0 C1.32 0 2.64 0 4 0 C4 0.66 4 1.32 4 2 C4.66 2 5.32 2 6 2 C6 2.66 6 3.32 6 4 C5.34 4 4.68 4 4 4 C3.67 4.99 3.34 5.98 3 7 C0 2.25 0 2.25 0 0 Z " fill="#BD9134" transform="translate(75,37)"/>
<path d="M0 0 C1.32 0 2.64 0 4 0 C4 2.64 4 5.28 4 8 C3.34 7.67 2.68 7.34 2 7 C2 5.35 2 3.7 2 2 C1.34 2 0.68 2 0 2 C0 1.34 0 0.68 0 0 Z " fill="#E9DBBC" transform="translate(96,75)"/>
<path d="M0 0 C1.125 1.625 1.125 1.625 2 4 C1.125 7.25 1.125 7.25 0 10 C-0.66 10 -1.32 10 -2 10 C-1.46274105 6.62294375 -0.88935377 3.303314 0 0 Z " fill="#BD9134" transform="translate(98,61)"/>
<path d="M0 0 C0.66 0 1.32 0 2 0 C4.04169485 2.90548882 5 4.40142046 5 8 C4.67 7.34 4.34 6.68 4 6 C3.01 5.67 2.02 5.34 1 5 C1 4.34 1 3.68 1 3 C0.34 3 -0.32 3 -1 3 C-0.67 2.01 -0.34 1.02 0 0 Z " fill="#C39A47" transform="translate(88,41)"/>
<path d="M0 0 C2.79872437 2.52788007 4.45773019 4.20411134 5 8 C3.0625 7.375 3.0625 7.375 1 6 C0.25 2.875 0.25 2.875 0 0 Z " fill="#BF943A" transform="translate(74,42)"/>
<path d="M0 0 C3 1 3 1 4.6875 4.0625 C5.120625 5.031875 5.55375 6.00125 6 7 C5.01 7 4.02 7 3 7 C0 2.77777778 0 2.77777778 0 0 Z " fill="#C49C49" transform="translate(79,41)"/>
</svg>
