<?xml version="1.0" encoding="UTF-8"?>
<svg version="1.1" xmlns="http://www.w3.org/2000/svg" width="512" height="512">
<path d="M0 0 C1.27177094 -0.00838898 2.54354187 -0.01677795 3.85385132 -0.02542114 C5.26600952 -0.01445402 6.67816466 -0.00308805 8.09031677 0.00863647 C9.57518346 0.00649097 11.0600485 0.0026138 12.54490662 -0.00286865 C16.58002352 -0.01257332 20.61469889 0.00275432 24.64976239 0.02303743 C28.86756733 0.04058404 33.08535814 0.03708384 37.30319214 0.03631592 C44.38579208 0.03818973 51.46822078 0.05556542 58.55076599 0.08285522 C66.74704185 0.11431903 74.94313017 0.12485105 83.13946205 0.12338412 C91.01557752 0.12216472 98.89163173 0.13236418 106.76772881 0.14896774 C110.12375809 0.15604079 113.4797657 0.15969529 116.83580208 0.16075516 C120.78467075 0.16275979 124.7333811 0.17493447 128.68219757 0.19508743 C130.13426431 0.20094382 131.58634926 0.20338688 133.03842735 0.20223236 C135.01473036 0.20125541 136.99102656 0.21376625 138.96728516 0.22705078 C140.62896398 0.23207831 140.62896398 0.23207831 142.32421207 0.23720741 C144.92015076 0.49447632 144.92015076 0.49447632 146.92015076 2.49447632 C147.17183304 4.42166138 147.17183304 4.42166138 147.17411804 6.82162476 C147.17975769 7.7302124 147.18539734 8.63880005 147.19120789 9.57492065 C147.18513519 11.07424133 147.18513519 11.07424133 147.17893982 12.60385132 C147.18419678 14.17954895 147.18419678 14.17954895 147.18955994 15.78707886 C147.19839054 19.27294447 147.19252335 22.75860851 147.18577576 26.24447632 C147.18712202 28.6582137 147.18906223 31.07195081 147.1915741 33.48568726 C147.19452717 38.54984107 147.19022181 43.61392443 147.18089294 48.67807007 C147.16949837 55.18193163 147.17605686 61.68562814 147.18803787 68.18948364 C147.19525152 73.17531588 147.19297082 78.16110874 147.18778229 83.14694214 C147.18644442 85.54562398 147.18809827 87.94430934 147.19274139 90.34298706 C147.19779845 93.69045537 147.19010782 97.03765325 147.17893982 100.38510132 C147.18298828 101.38464844 147.18703674 102.38419556 147.19120789 103.41403198 C147.18274841 104.77691345 147.18274841 104.77691345 147.17411804 106.16732788 C147.17336399 106.9593158 147.17260994 107.75130371 147.17183304 108.56729126 C146.92015076 110.49447632 146.92015076 110.49447632 144.92015076 112.49447632 C124.79015076 112.49447632 104.66015076 112.49447632 83.92015076 112.49447632 C84.25015076 161.99447632 84.58015076 211.49447632 84.92015076 262.49447632 C90.53015076 262.49447632 96.14015076 262.49447632 101.92015076 262.49447632 C116.25292402 265.36103097 128.96356865 272.39104557 137.79515076 284.30697632 C143.68916556 293.3605231 147.05774911 302.53627792 147.09715271 313.28549194 C147.10372391 314.06659332 147.1102951 314.8476947 147.11706543 315.65246582 C147.13675767 318.23522041 147.14845565 320.81791678 147.15843201 323.40072632 C147.16250753 324.28675034 147.16658306 325.17277435 147.17078209 326.08564758 C147.19163147 330.78084071 147.20593471 335.47600476 147.21531677 340.17123413 C147.22634274 344.99494323 147.26070152 349.81818614 147.30048847 354.64173126 C147.32678242 358.37208852 147.33502017 362.10233718 147.33859825 365.83277893 C147.34343598 367.6091881 147.35496854 369.38559335 147.37363625 371.16191101 C147.51774452 385.7907607 145.41984928 397.18605212 136.92015076 409.49447632 C136.50378357 410.10807007 136.08741638 410.72166382 135.65843201 411.35385132 C127.7778558 421.67196311 114.56535675 428.51522668 101.92015076 430.49447632 C84.89803665 431.3995376 70.04712929 428.68980738 56.60765076 417.30697632 C46.18240421 407.29940792 40.69492185 394.69264505 38.92015076 380.49447632 C38.92015076 371.58447632 38.92015076 362.67447632 38.92015076 353.49447632 C-4.30984924 353.49447632 -47.53984924 353.49447632 -92.07984924 353.49447632 C-92.07984924 367.68447632 -92.07984924 381.87447632 -92.07984924 396.49447632 C-81.57942424 396.33685032 -81.57942424 396.33685032 -71.07984924 396.13412476 C-61.85692085 396.01522438 -55.65007684 396.65133038 -48.32984924 402.80697632 C-42.21108628 410.11549875 -40.89966435 416.35854991 -40.89234924 425.61947632 C-40.88010315 426.44318726 -40.86785706 427.26689819 -40.85523987 428.11557007 C-40.85001659 430.24318346 -40.95722604 432.37039308 -41.07984924 434.49447632 C-43.57569871 436.99032579 -45.05300803 436.73605198 -48.45861816 436.76196313 C-49.59177208 436.75527096 -49.59177208 436.75527096 -50.74781799 436.7484436 C-51.54849197 436.75156358 -52.34916595 436.75468357 -53.17410278 436.75789809 C-55.87192527 436.76591075 -58.56952486 436.75954181 -61.26734924 436.75326538 C-63.19541049 436.75597379 -65.1234707 436.75953388 -67.05152893 436.7638855 C-72.29933696 436.77302958 -77.54706664 436.76945695 -82.7948761 436.76312733 C-88.27658811 436.75807776 -93.75829323 436.76275586 -99.24000549 436.76589966 C-108.44704904 436.76954236 -117.65406055 436.76473225 -126.86109924 436.75521851 C-137.51864184 436.74433338 -148.17610794 436.74785875 -158.83364868 436.75887132 C-167.96995704 436.76793556 -177.10624231 436.76923371 -186.24255371 436.76399398 C-191.7054215 436.76086952 -197.16825328 436.76047795 -202.63111877 436.76706696 C-207.76596168 436.77282726 -212.90070556 436.76886773 -218.03553772 436.75727844 C-219.92461482 436.75462479 -221.8137002 436.75540888 -223.70277405 436.75980377 C-226.27259026 436.76523298 -228.84208501 436.75845731 -231.41188049 436.7484436 C-232.16731644 436.75290505 -232.92275238 436.75736649 -233.70108032 436.76196313 C-238.85154911 436.72277645 -238.85154911 436.72277645 -241.07984924 434.49447632 C-242.02552672 423.85010658 -242.29232975 413.25521836 -235.50172424 404.44760132 C-230.87839674 399.40775783 -225.99432215 396.74796405 -219.16407776 396.15390015 C-217.76221404 396.15463732 -216.36028093 396.17070392 -214.95875549 396.20150757 C-214.29742615 396.20452881 -213.6360968 396.20755005 -212.95472717 396.21066284 C-210.51710592 396.22619444 -208.07970958 396.26807678 -205.64234924 396.30697632 C-200.17672424 396.36885132 -194.71109924 396.43072632 -189.07984924 396.49447632 C-189.07984924 382.30447632 -189.07984924 368.11447632 -189.07984924 353.49447632 C-196.19644104 353.51804199 -196.19644104 353.51804199 -203.45680237 353.54208374 C-219.12694033 353.59177848 -234.79708138 353.62507774 -250.46727753 353.64991283 C-259.96870952 353.66537201 -269.47006678 353.68644339 -278.97145081 353.72079468 C-287.25427918 353.75072609 -295.53705342 353.77005822 -303.81993437 353.7767418 C-308.20437542 353.78064772 -312.58866162 353.78980738 -316.97305298 353.81166649 C-321.10327934 353.83209078 -325.23328766 353.83829815 -329.36355972 353.83379936 C-330.87601533 353.83462191 -332.38847855 353.84055215 -333.90089035 353.85209274 C-350.80414175 353.97470335 -350.80414175 353.97470335 -357.76734924 348.30697632 C-363.97964256 340.75148445 -365.81658785 335.67537233 -365.70803833 325.80453491 C-365.71513272 324.64361517 -365.7222271 323.48269543 -365.72953647 322.2865963 C-365.74404438 319.08173174 -365.73626598 315.87783537 -365.71881354 312.67301464 C-365.70540467 309.21008039 -365.72088916 305.74725588 -365.7326355 302.28433228 C-365.75099038 295.50744188 -365.74251432 288.73084031 -365.72454727 281.95395899 C-365.71050723 276.44504417 -365.70663148 270.93620761 -365.70998955 265.42727661 C-365.71046699 264.64246772 -365.71094443 263.85765883 -365.71143634 263.04906785 C-365.7124627 261.45461796 -365.71351806 259.86016808 -365.71460211 258.26571822 C-365.72316481 244.17459552 -365.70650817 230.08361202 -365.67677307 215.99252319 C-365.6479367 202.32709913 -365.64085267 188.66187559 -365.65626526 174.99642944 C-365.67303578 160.10664903 -365.67705296 145.21696377 -365.6595549 130.32718086 C-365.65771056 128.73867926 -365.65587583 127.15017765 -365.65405083 125.56167603 C-365.65313874 124.78015431 -365.65222665 123.99863259 -365.65128692 123.1934284 C-365.64568681 117.69274817 -365.6489838 112.19211447 -365.65559578 106.69143677 C-365.66333658 99.98559923 -365.65654965 93.27995891 -365.63142074 86.57416105 C-365.61894283 83.15436599 -365.61275809 79.73487768 -365.6239624 76.31507111 C-365.63264921 72.60453071 -365.61671184 68.89488345 -365.59451294 65.18441772 C-365.60275371 64.1081481 -365.61099447 63.03187847 -365.61948496 61.92299461 C-365.53775049 54.52259677 -364.27186224 49.26950539 -359.36891174 43.47103882 C-358.81977112 43.02502319 -358.27063049 42.57900757 -357.70484924 42.11947632 C-357.16086487 41.65799194 -356.61688049 41.19650757 -356.05641174 40.72103882 C-351.61271857 37.96349009 -347.20297654 37.24457009 -342.04727364 37.24838066 C-340.85445624 37.24439856 -339.66163885 37.24041647 -338.43267548 37.2363137 C-337.13112106 37.24213938 -335.82956663 37.24796507 -334.48857117 37.25396729 C-333.08508472 37.2530948 -331.68159859 37.25134302 -330.2781142 37.24878895 C-326.42649495 37.24431989 -322.57498706 37.25231303 -318.723382 37.26234508 C-314.56802947 37.27098362 -310.4126832 37.26805913 -306.25732422 37.26654053 C-299.05955137 37.26549193 -291.86181478 37.27176588 -284.66405106 37.2830162 C-274.25730351 37.29927169 -263.85057349 37.30447926 -253.44381462 37.30699219 C-236.55946205 37.31136921 -219.67512882 37.32467853 -202.79078674 37.34359741 C-186.38942054 37.36195601 -169.98805959 37.37611262 -153.58668518 37.38461304 C-152.57567002 37.38513848 -151.56465486 37.38566393 -150.52300288 37.3862053 C-145.45102656 37.38881538 -140.37905021 37.39134279 -135.30707383 37.39382911 C-93.23131886 37.41456184 -51.15558516 37.44978759 -9.07984924 37.49447632 C-9.09555969 36.51575562 -9.11127014 35.53703491 -9.12745667 34.52865601 C-9.18183495 30.89088194 -9.21622773 27.25314368 -9.24464417 23.61508179 C-9.25971288 22.0417781 -9.2801717 20.4685163 -9.3061676 18.89535522 C-9.34263663 16.63141536 -9.35959433 14.36803175 -9.37281799 12.10385132 C-9.38830185 11.40266174 -9.40378571 10.70147217 -9.41973877 9.97903442 C-9.42080026 6.88541992 -9.23861852 4.78234734 -7.73164994 2.0500015 C-5.25724539 -0.28018192 -3.35335227 -0.00329698 0 0 Z " fill="#E7F4FE" transform="translate(365.07984924316406,49.505523681640625)"/>
<path d="M0 0 C1.19630079 -0.0039821 2.39260157 -0.00796419 3.6251539 -0.01206696 C4.93059927 -0.00624128 6.23604464 -0.00041559 7.58104897 0.00558662 C8.98866021 0.00471414 10.39627114 0.00296237 11.80388033 0.00040829 C15.66690103 -0.00406086 19.5298107 0.0039325 23.39281726 0.01396441 C27.56043984 0.02260283 31.72805618 0.01967848 35.8956852 0.01815987 C43.11473893 0.01711126 50.3337565 0.02338529 57.55280113 0.03463554 C67.99031777 0.05089091 78.42781692 0.05609859 88.86534484 0.05861153 C105.79961167 0.06298857 122.73385924 0.07629793 139.66811562 0.09521675 C156.11798443 0.1135753 172.567848 0.12773193 189.01772499 0.13623238 C190.53872822 0.13702055 190.53872822 0.13702055 192.0904588 0.13782464 C197.17741918 0.14043472 202.26437961 0.14296213 207.35134006 0.14544845 C249.55150924 0.16618124 291.75165673 0.20155572 333.95180702 0.24609566 C333.95180702 5.19609566 333.95180702 10.14609566 333.95180702 15.24609566 C331.36123939 15.24691281 331.36123939 15.24691281 328.71833706 15.24774647 C287.74347145 15.26178346 246.76869839 15.30150342 205.79389085 15.37295128 C200.75318679 15.38171828 195.71248238 15.39026804 190.67177773 15.39868355 C189.66824271 15.40036261 188.6647077 15.40204167 187.63076254 15.40377162 C171.37082113 15.43045857 155.11091497 15.43953791 138.85095391 15.44213708 C122.17302735 15.44519399 105.49520289 15.46711022 88.81732243 15.50662023 C78.52192872 15.53041306 68.22673868 15.53940599 57.93132123 15.52960876 C50.87622384 15.52430268 43.82130936 15.53727631 36.76626406 15.56475856 C32.69270131 15.58008272 28.61954777 15.58721865 24.54597282 15.57269287 C20.8180479 15.55957717 17.09091738 15.56936345 13.36308231 15.59753338 C11.37252065 15.60657055 9.38189447 15.5909496 7.39138013 15.574516 C0.47418751 15.40615642 0.47418751 15.40615642 -5.34179974 18.58418941 C-7.4912988 21.93732329 -7.70274512 24.10720767 -7.75522423 28.07812691 C-7.78422813 29.37041206 -7.81323204 30.66269722 -7.84311485 31.99414253 C-7.84950317 33.34895785 -7.85535586 34.70377579 -7.86069298 36.05859566 C-7.88385046 37.43298406 -7.90921843 38.8073371 -7.93686485 40.18164253 C-7.9957264 43.53675081 -8.03201634 46.89055439 -8.04819298 50.24609566 C-7.22093712 50.22514839 -6.39368126 50.20420113 -5.54135704 50.18261909 C-1.79375927 50.09947946 1.95364451 50.04744035 5.70180702 49.99609566 C7.00376015 49.96258003 8.30571327 49.92906441 9.64711952 49.89453316 C10.89751015 49.88164253 12.14790077 49.86875191 13.43618202 49.85547066 C15.16433144 49.82404976 15.16433144 49.82404976 16.92739296 49.79199409 C20.70275888 50.35884755 21.62834516 51.26359059 23.95180702 54.24609566 C24.45517159 57.1321888 24.45517159 57.1321888 24.45974159 60.54663277 C24.47102089 61.84213051 24.48230019 63.13762825 24.49392128 64.4723835 C24.48614423 65.90607104 24.47795157 67.33975637 24.46938515 68.77343941 C24.47480585 70.28476829 24.48192823 71.79609189 24.49062538 73.30740547 C24.50886804 77.41074377 24.5017875 81.51368 24.48910904 85.61702538 C24.47898618 89.9099785 24.48837273 94.20289705 24.4946537 98.49585152 C24.5019322 105.70530571 24.49233714 112.91459603 24.4732914 120.12402534 C24.45152219 128.46067722 24.45857343 136.79693781 24.48059702 145.13358021 C24.49874529 152.28953687 24.50131217 159.44537569 24.49084234 166.60134792 C24.48460423 170.87605199 24.48378041 175.15057209 24.4969883 179.42526436 C24.50853794 183.44403474 24.50053776 187.46230035 24.47741127 191.48101616 C24.47211937 192.95643335 24.47364625 194.43189298 24.48246193 195.90729332 C24.49338005 197.92003303 24.47726518 199.93286551 24.45974159 201.94555855 C24.45823349 203.07232506 24.45672539 204.19909157 24.45517159 205.36000252 C23.83636727 208.90798152 22.79267412 210.09353544 19.95180702 212.24609566 C16.92739296 212.70019722 16.92739296 212.70019722 13.43618202 212.63672066 C11.74573769 212.62173531 11.74573769 212.62173531 10.02114296 212.60644722 C8.5957621 212.5700312 7.17038124 212.53361519 5.70180702 212.49609566 C1.16430702 212.41359566 -3.37319298 212.33109566 -8.04819298 212.24609566 C-8.04819298 221.81609566 -8.04819298 231.38609566 -8.04819298 241.24609566 C125.60180702 241.24609566 259.25180702 241.24609566 396.95180702 241.24609566 C394.97180702 243.88609566 392.99180702 246.52609566 390.95180702 249.24609566 C389.57885273 251.83229848 388.31874191 254.33215266 387.13930702 256.99609566 C386.84088905 257.64191597 386.54247108 258.28773628 386.23501015 258.95312691 C377.8592353 277.36848741 382.43678464 292.96717001 381.95180702 316.24609566 C338.39180702 316.24609566 294.83180702 316.24609566 249.95180702 316.24609566 C249.95180702 330.43609566 249.95180702 344.62609566 249.95180702 359.24609566 C260.45223203 359.08846966 260.45223203 359.08846966 270.95180702 358.88574409 C280.17473541 358.76684372 286.38157942 359.40294972 293.70180702 365.55859566 C299.82056999 372.86711809 301.13199191 379.11016925 301.13930702 388.37109566 C301.15155312 389.19480659 301.16379921 390.01851753 301.1764164 390.86718941 C301.18163967 392.9948028 301.07443022 395.12201242 300.95180702 397.24609566 C298.45595755 399.74194513 296.97864823 399.48767132 293.5730381 399.51358247 C292.43988419 399.5068903 292.43988419 399.5068903 291.28383827 399.50006294 C290.48316429 399.50318292 289.68249031 399.50630291 288.85755348 399.50951743 C286.159731 399.51753009 283.4621314 399.51116115 280.76430702 399.50488472 C278.83624578 399.50759313 276.90818557 399.51115322 274.98012733 399.51550484 C269.73231931 399.52464892 264.48458962 399.52107629 259.23678017 399.51474667 C253.75506816 399.50969709 248.27336303 399.5143752 242.79165077 399.517519 C233.58460722 399.52116169 224.37759571 399.51635159 215.17055702 399.50683784 C204.51301442 399.49595272 193.85554833 399.49947808 183.19800758 399.51049066 C174.06169923 399.5195549 164.92541395 399.52085304 155.78910255 399.51561332 C150.32623477 399.51248886 144.86340299 399.51209728 139.40053749 399.51868629 C134.26569459 399.5244466 129.13095071 399.52048707 123.99611855 399.50889778 C122.10704145 399.50624413 120.21795607 399.50702822 118.32888222 399.51142311 C115.759066 399.51685232 113.18957126 399.51007665 110.61977577 399.50006294 C109.86433983 399.50452439 109.10890388 399.50898583 108.33057594 399.51358247 C103.18010715 399.47439579 103.18010715 399.47439579 100.95180702 397.24609566 C100.00612955 386.60172592 99.73932652 376.0068377 106.52993202 367.19922066 C111.15325952 362.15937717 116.03733411 359.49958339 122.86757851 358.90551949 C124.26944222 358.90625666 125.67137533 358.92232326 127.07290077 358.95312691 C127.73423012 358.95614815 128.39555946 358.95916939 129.07692909 358.96228218 C131.51455034 358.97781378 133.95194669 359.01969612 136.38930702 359.05859566 C141.85493202 359.12047066 147.32055702 359.18234566 152.95180702 359.24609566 C152.95180702 345.05609566 152.95180702 330.86609566 152.95180702 316.24609566 C145.83521523 316.26966133 145.83521523 316.26966133 138.5748539 316.29370308 C122.90471594 316.34339782 107.23457489 316.37669708 91.56437874 316.40153217 C82.06294674 316.41699135 72.56158948 316.43806273 63.06020546 316.47241402 C54.77737709 316.50234543 46.49460285 316.52167756 38.2117219 316.52836114 C33.82728085 316.53226706 29.44299464 316.54142672 25.05860329 316.56328583 C20.92837693 316.58371012 16.79836861 316.58991749 12.66809654 316.5854187 C11.15564093 316.58624125 9.64317772 316.59217149 8.13076591 316.60371208 C-8.77248549 316.72632268 -8.77248549 316.72632268 -15.73569298 311.05859566 C-21.9479863 303.50310378 -23.78493158 298.42699167 -23.67638206 288.55615425 C-23.68347645 287.39523451 -23.69057084 286.23431477 -23.69788021 285.03821564 C-23.71238811 281.83335108 -23.70460971 278.62945471 -23.68715727 275.42463398 C-23.6737484 271.96169973 -23.6892329 268.49887522 -23.70097923 265.03595161 C-23.71933412 258.25906122 -23.71085806 251.48245965 -23.69289101 244.70557833 C-23.67885096 239.1966635 -23.67497522 233.68782695 -23.67833328 228.17889595 C-23.67881072 227.39408706 -23.67928817 226.60927817 -23.67978008 225.80068719 C-23.68080643 224.2062373 -23.68186179 222.61178742 -23.68294584 221.01733756 C-23.69150855 206.92621486 -23.67485191 192.83523136 -23.64511681 178.74414253 C-23.61628044 165.07871847 -23.6091964 151.41349493 -23.62460899 137.74804878 C-23.64137951 122.85826837 -23.64539669 107.96858311 -23.62789863 93.0788002 C-23.62605429 91.4902986 -23.62421957 89.90179699 -23.62239456 88.31329536 C-23.62148247 87.53177365 -23.62057038 86.75025193 -23.61963065 85.94504774 C-23.61403054 80.44436751 -23.61732753 74.94373381 -23.62393951 69.44305611 C-23.63168031 62.73721857 -23.62489339 56.03157825 -23.59976447 49.32578039 C-23.58728656 45.90598533 -23.58110183 42.48649702 -23.59230614 39.06669044 C-23.60099295 35.35615005 -23.58505558 31.64650279 -23.56285667 27.93603706 C-23.57109744 26.85976744 -23.57933821 25.78349781 -23.5878287 24.67461395 C-23.50609422 17.27421611 -22.24020598 12.02112473 -17.33725548 6.22265816 C-16.78811485 5.77664253 -16.23897423 5.33062691 -15.67319298 4.87109566 C-15.1292086 4.40961128 -14.58522423 3.94812691 -14.02475548 3.47265816 C-9.57545135 0.71162753 -5.16191277 -0.00380392 0 0 Z " fill="#514397" transform="translate(23.048192977905273,86.75390434265137)"/>
<path d="M0 0 C1.27177094 -0.00838898 2.54354187 -0.01677795 3.85385132 -0.02542114 C5.26600952 -0.01445402 6.67816466 -0.00308805 8.09031677 0.00863647 C9.57518346 0.00649097 11.0600485 0.0026138 12.54490662 -0.00286865 C16.58002352 -0.01257332 20.61469889 0.00275432 24.64976239 0.02303743 C28.86756733 0.04058404 33.08535814 0.03708384 37.30319214 0.03631592 C44.38579208 0.03818973 51.46822078 0.05556542 58.55076599 0.08285522 C66.74704185 0.11431903 74.94313017 0.12485105 83.13946205 0.12338412 C91.01557752 0.12216472 98.89163173 0.13236418 106.76772881 0.14896774 C110.12375809 0.15604079 113.4797657 0.15969529 116.83580208 0.16075516 C120.78467075 0.16275979 124.7333811 0.17493447 128.68219757 0.19508743 C130.13426431 0.20094382 131.58634926 0.20338688 133.03842735 0.20223236 C135.01473036 0.20125541 136.99102656 0.21376625 138.96728516 0.22705078 C140.62896398 0.23207831 140.62896398 0.23207831 142.32421207 0.23720741 C144.92015076 0.49447632 144.92015076 0.49447632 146.92015076 2.49447632 C147.17183304 4.42166138 147.17183304 4.42166138 147.17411804 6.82162476 C147.17975769 7.7302124 147.18539734 8.63880005 147.19120789 9.57492065 C147.18513519 11.07424133 147.18513519 11.07424133 147.17893982 12.60385132 C147.18419678 14.17954895 147.18419678 14.17954895 147.18955994 15.78707886 C147.19839054 19.27294447 147.19252335 22.75860851 147.18577576 26.24447632 C147.18712202 28.6582137 147.18906223 31.07195081 147.1915741 33.48568726 C147.19452717 38.54984107 147.19022181 43.61392443 147.18089294 48.67807007 C147.16949837 55.18193163 147.17605686 61.68562814 147.18803787 68.18948364 C147.19525152 73.17531588 147.19297082 78.16110874 147.18778229 83.14694214 C147.18644442 85.54562398 147.18809827 87.94430934 147.19274139 90.34298706 C147.19779845 93.69045537 147.19010782 97.03765325 147.17893982 100.38510132 C147.18298828 101.38464844 147.18703674 102.38419556 147.19120789 103.41403198 C147.18556824 104.32261963 147.17992859 105.23120728 147.17411804 106.16732788 C147.17298697 107.35530975 147.17298697 107.35530975 147.17183304 108.56729126 C146.92015076 110.49447632 146.92015076 110.49447632 144.92015076 112.49447632 C124.79015076 112.49447632 104.66015076 112.49447632 83.92015076 112.49447632 C84.25015076 161.99447632 84.58015076 211.49447632 84.92015076 262.49447632 C90.53015076 262.49447632 96.14015076 262.49447632 101.92015076 262.49447632 C116.25292402 265.36103097 128.96356865 272.39104557 137.79515076 284.30697632 C143.68916556 293.3605231 147.05774911 302.53627792 147.09715271 313.28549194 C147.10372391 314.06659332 147.1102951 314.8476947 147.11706543 315.65246582 C147.13675767 318.23522041 147.14845565 320.81791678 147.15843201 323.40072632 C147.16250753 324.28675034 147.16658306 325.17277435 147.17078209 326.08564758 C147.19163147 330.78084071 147.20593471 335.47600476 147.21531677 340.17123413 C147.22634274 344.99494323 147.26070152 349.81818614 147.30048847 354.64173126 C147.32678242 358.37208852 147.33502017 362.10233718 147.33859825 365.83277893 C147.34343598 367.6091881 147.35496854 369.38559335 147.37363625 371.16191101 C147.51774452 385.7907607 145.41984928 397.18605212 136.92015076 409.49447632 C136.50378357 410.10807007 136.08741638 410.72166382 135.65843201 411.35385132 C127.7778558 421.67196311 114.56535675 428.51522668 101.92015076 430.49447632 C84.89803665 431.3995376 70.04712929 428.68980738 56.60765076 417.30697632 C45.85768634 406.98769958 39.39210613 392.99874261 38.82981873 378.10116577 C38.78305021 375.23135288 38.78173036 372.36465221 38.79515076 369.49447632 C38.80240173 367.81998413 38.80240173 367.81998413 38.80979919 366.11166382 C38.83185358 362.73116796 38.86296716 359.350934 38.89732361 355.97055054 C38.92268641 353.21943223 38.94057209 350.4683108 38.95823669 347.71713257 C38.99500438 342.38817867 39.05596557 337.05985751 39.12968445 331.73129272 C39.15648203 329.58780938 39.17687432 327.44423558 39.19059753 325.30062866 C39.34578215 303.19821204 39.34578215 303.19821204 43.92015076 294.49447632 C44.55388611 293.2308728 44.55388611 293.2308728 45.20042419 291.94174194 C47.6708522 287.1176319 50.33632401 283.79506841 53.92015076 279.49447632 C-65.53984924 279.16447632 -184.99984924 278.83447632 -308.07984924 278.49447632 C-308.07984924 278.16447632 -308.07984924 277.83447632 -308.07984924 277.49447632 C-307.31131752 277.49501839 -306.5427858 277.49556046 -305.75096524 277.49611896 C-260.19858666 277.52736125 -214.64633693 277.52219023 -169.09397388 277.46975135 C-163.62409668 277.46348604 -158.15421918 277.45752487 -152.68434143 277.45175171 C-151.59539014 277.45059727 -150.50643886 277.44944283 -149.38448904 277.4482534 C-131.7537629 277.43028761 -114.12312783 277.43695919 -96.49240328 277.45274048 C-78.40079554 277.46838572 -60.30934339 277.45754378 -42.21776283 277.42212874 C-31.05476767 277.40111107 -19.89216416 277.40073786 -8.729178 277.42679615 C-1.0736332 277.44268744 6.58160947 277.4328437 14.23711078 277.40281617 C18.65368963 277.38625115 23.0695164 277.38098204 27.48607063 277.40629005 C31.53334958 277.4292311 35.579233 277.41970129 39.62641479 277.38483638 C41.08687213 277.37789837 42.54744434 277.38266227 44.00780784 277.40061342 C52.38676922 277.49623917 58.50022033 276.86094758 65.14058864 271.44101328 C67.76669762 268.56849866 68.16684663 266.55604895 68.16065979 262.69236755 C68.17328759 262.04526886 68.18591539 261.39817016 68.19892585 260.73146242 C68.22891746 258.58096874 68.18816748 256.43790974 68.14720154 254.28768921 C68.1542496 252.73985294 68.16569232 251.1920314 68.18118286 249.64425659 C68.21070996 245.45590002 68.17896603 241.27000747 68.13601923 237.08185124 C68.10157247 232.70022506 68.12374264 228.31888954 68.1398468 223.93721008 C68.16174753 215.64619035 68.13290469 207.35615865 68.08572376 199.06527561 C68.03447412 189.62387346 68.03995441 180.18276907 68.05014443 170.74126446 C68.06983158 151.32532716 68.01845746 131.91015673 67.92015076 112.49447632 C67.01226303 112.50113815 66.10437531 112.50779999 65.16897583 112.5146637 C56.61985878 112.57473386 48.07081245 112.62042986 39.52153301 112.64991283 C35.1260752 112.66557982 30.73079154 112.68683676 26.33543396 112.72079468 C22.09496152 112.75335156 17.85465675 112.77132155 13.61406898 112.77910805 C11.99490023 112.78465819 10.37574082 112.7954961 8.7566433 112.81166649 C6.49152553 112.83339249 4.22710372 112.83644535 1.9618988 112.83505249 C0.67172348 112.84171432 -0.61845184 112.84837616 -1.94772339 112.85523987 C-5.07984924 112.49447632 -5.07984924 112.49447632 -6.99503803 111.15269661 C-8.7124903 108.52743411 -8.48283118 106.17294776 -8.51222229 103.06820679 C-8.52241394 102.41851929 -8.53260559 101.76883179 -8.54310608 101.09945679 C-8.57342022 98.93677219 -8.58255737 96.77453407 -8.59156799 94.61166382 C-8.60846308 93.08073536 -8.62661957 91.54982035 -8.64596558 90.0189209 C-8.6936501 85.95783896 -8.72325597 81.89681062 -8.74940491 77.83554077 C-8.77849586 73.83761225 -8.82562566 69.83990489 -8.87086487 65.84213257 C-8.94845373 58.74638868 -8.99901016 51.65078634 -9.03445244 44.5547142 C-9.06004088 39.79531095 -9.10773603 35.03674055 -9.17272091 30.27771568 C-9.21242067 27.20656921 -9.23997626 24.13538813 -9.26500893 21.06409073 C-9.27945457 19.61976089 -9.29908828 18.17547252 -9.32420921 16.73128891 C-9.35798902 14.74514996 -9.37139321 12.75869576 -9.38380432 10.77230835 C-9.39752579 9.65180084 -9.41124725 8.53129333 -9.42538452 7.37683105 C-8.68305323 1.18451947 -5.90126519 -0.00580207 0 0 Z " fill="#FEE4C1" transform="translate(365.07984924316406,49.505523681640625)"/>
<path d="M0 0 C1.13657075 0.00276538 1.13657075 0.00276538 2.29610252 0.00558662 C3.16550972 0.0028373 4.03491692 0.00008797 4.93066978 -0.00274467 C5.8866053 0.00444588 6.84254082 0.01163643 7.82744408 0.01904488 C8.8323539 0.01875282 9.83726372 0.01846077 10.87262535 0.01815987 C14.20579624 0.0195571 17.53874566 0.03513684 20.87187767 0.05078316 C23.17830343 0.05451189 25.48473077 0.05735952 27.79115868 0.0593586 C33.87066053 0.06700607 39.95006728 0.08666412 46.02953148 0.10876656 C52.22957129 0.12920102 58.42962642 0.13835517 64.62969017 0.14843941 C76.80160702 0.16990895 88.9734532 0.20405831 101.14531517 0.24609566 C99.89252542 3.44847437 98.60354469 6.32579721 96.74687767 9.22265816 C96.03724876 10.33737495 96.03724876 10.33737495 95.31328392 11.47461128 C94.80410423 12.26545113 94.29492455 13.05629097 93.77031517 13.87109566 C92.67905927 15.58196296 91.58791656 17.29290246 90.49687767 19.00390816 C89.93903587 19.87563667 89.38119408 20.74736519 88.80644798 21.64550972 C86.23653901 25.66882988 83.69157344 29.70778393 81.14531517 33.74609566 C80.15322514 35.31646974 79.16103715 36.88678194 78.16875267 38.45703316 C76.08752883 41.75196484 74.00991803 45.04914362 71.93437767 48.34765816 C71.40457298 49.18877144 70.8747683 50.02988472 70.32890892 50.89648628 C69.32795072 52.48572693 68.32787448 54.07552359 67.32890892 55.66601753 C66.86871361 56.39627144 66.4085183 57.12652534 65.93437767 57.87890816 C65.48610619 58.59337105 65.0378347 59.30783394 64.57597923 60.04394722 C63.56121924 61.60591567 62.50660824 63.14231646 61.42558861 64.65918159 C60.58689232 65.84302437 60.58689232 65.84302437 59.73125267 67.05078316 C59.21353294 67.7596064 58.69581322 68.46842964 58.16240501 69.19873238 C56.74717385 71.49188504 56.74717385 71.49188504 58.14531517 75.24609566 C89.82531517 75.74109566 89.82531517 75.74109566 122.14531517 76.24609566 C122.18656517 83.95984566 122.22781517 91.67359566 122.27031517 99.62109566 C122.28852318 102.05661812 122.30673119 104.49214058 122.32549095 107.00146675 C122.33133019 108.92415331 122.33642709 110.84684232 122.34062767 112.76953316 C122.3508596 113.77411568 122.36109154 114.7786982 122.37163353 115.81372261 C122.37199608 117.24470284 122.37199608 117.24470284 122.37236595 118.70459175 C122.37680717 119.53510048 122.3812484 120.36560921 122.3858242 121.22128487 C122.14531517 123.24609566 122.14531517 123.24609566 120.14531517 125.24609566 C117.97828293 125.49219131 117.97828293 125.49219131 115.23525047 125.48660469 C113.67871506 125.49072868 113.67871506 125.49072868 112.09073448 125.49493599 C110.37630905 125.48415016 110.37630905 125.48415016 108.62724876 125.47314644 C106.82727692 125.47358452 106.82727692 125.47358452 104.990942 125.47403145 C101.69561331 125.47287477 98.40053354 125.46282712 95.10524893 125.44888353 C91.66325898 125.43640223 88.22126591 125.43520773 84.77925682 125.43283272 C78.25921173 125.42661028 71.73923351 125.41018918 65.2192179 125.39013374 C57.79731488 125.36779844 50.37540872 125.35678728 42.95348048 125.34674287 C27.68405328 125.32582358 12.41469284 125.29063283 -2.85468483 125.24609566 C-4.08479214 122.78588104 -3.9832037 121.17711909 -3.9883976 118.42541695 C-3.99266258 117.4074453 -3.99692757 116.38947365 -4.00132179 115.34065437 C-4.00086861 114.21954765 -4.00041542 113.09844093 -3.9999485 111.94336128 C-4.00330711 110.76609978 -4.00666573 109.58883827 -4.01012611 108.37590218 C-4.01801286 105.14250836 -4.0213045 101.90915303 -4.0219419 98.67575073 C-4.02289032 95.97925488 -4.02656775 93.28276523 -4.030114 90.58627176 C-4.03826091 84.22694556 -4.04069797 77.86763351 -4.03998756 71.50830269 C-4.03938633 64.94062002 -4.0499466 58.37301936 -4.06573123 51.80535746 C-4.07878915 46.17220754 -4.08417222 40.5390845 -4.08353215 34.90591955 C-4.0832767 31.53896103 -4.08615403 28.17207541 -4.09671021 24.80513191 C-4.1064522 21.05296099 -4.10365517 17.30100403 -4.09760475 13.54883003 C-4.10322426 12.42772331 -4.10884377 11.30661659 -4.11463356 10.15153694 C-4.11043907 9.13356529 -4.10624458 8.11559364 -4.10192299 7.06677437 C-4.10246776 6.17891998 -4.10301252 5.2910656 -4.1035738 4.37630653 C-3.77240262 1.54185206 -2.89104837 0.38360935 0 0 Z " fill="#0ED190" transform="translate(173.8546848297119,163.75390434265137)"/>
<path d="M0 0 C3.09835993 0.22295652 4.5597681 0.51538627 6.67822266 2.84741211 C7.1685498 3.64928955 7.65887695 4.45116699 8.1640625 5.27734375 C9.00215454 6.62203735 9.00215454 6.62203735 9.85717773 7.99389648 C10.44055908 8.96528564 11.02394043 9.9366748 11.625 10.9375 C12.2425415 11.936604 12.86008301 12.93570801 13.49633789 13.96508789 C15.34718405 16.96712546 17.17646453 19.98131296 19 23 C19.94347017 24.55241179 20.88742971 26.10452636 21.83203125 27.65625 C23.13741783 29.80069241 24.44228028 31.94539618 25.74243164 34.09301758 C29.55339821 40.3555236 33.54401298 46.49410292 37.5625 52.625 C42.0636203 59.49411089 46.55722443 66.36547459 50.9375 73.3125 C51.35652588 73.97008301 51.77555176 74.62766602 52.20727539 75.30517578 C55 79.76366219 55 79.76366219 55 82 C55.7528125 81.6390625 56.505625 81.278125 57.28125 80.90625 C68.299312 76.09253359 79.01126913 74.66279432 90.5 79.125 C101.40840372 84.40944998 110.14230322 92.35618557 114.33984375 104.00390625 C116.86034476 115.44310313 115.76212899 127.1500352 109.64453125 137.234375 C103.44944218 146.07026611 95.20445179 151.59851607 85 155 C71.00406899 155.91999115 60.24819215 154.66574112 49.22265625 145.1953125 C40.98592565 137.0599125 36.7944013 127.03346251 36.6875 115.5 C36.76134992 111.98629858 36.88829744 109.33510769 38 106 C36.10865829 106.00666183 36.10865829 106.00666183 34.17910767 106.01345825 C22.31852826 106.05393444 10.4579628 106.08395072 -1.40266991 106.10362434 C-7.50089767 106.11407861 -13.59906986 106.12826772 -19.69726562 106.15087891 C-25.57813694 106.17254877 -31.45895467 106.18455623 -37.33986282 106.18975449 C-39.58783436 106.1934608 -41.83580285 106.20069788 -44.08375168 106.21146011 C-47.22305479 106.2258972 -50.36213409 106.22798121 -53.50146484 106.22705078 C-54.43869888 106.23424133 -55.37593292 106.24143188 -56.34156799 106.24884033 C-57.19414688 106.246091 -58.04672577 106.24334167 -58.92514038 106.24050903 C-59.66810553 106.24235262 -60.41107067 106.24419621 -61.17654991 106.24609566 C-63 106 -63 106 -65 104 C-64.63167402 100.5533561 -62.93912826 98.01990382 -61.11328125 95.1328125 C-60.51185303 94.17616699 -59.9104248 93.21952148 -59.29077148 92.23388672 C-58.63794189 91.2079541 -57.9851123 90.18202148 -57.3125 89.125 C-56.63840088 88.05652832 -55.96430176 86.98805664 -55.26977539 85.88720703 C-53.18573575 82.58770074 -51.09383667 79.29329602 -49 76 C-47.79424106 74.09897722 -46.58851034 72.19793653 -45.3828125 70.296875 C-42.50883602 65.77102028 -39.62711184 61.25015109 -36.74267578 56.73095703 C-33.78347551 52.09357763 -30.82906563 47.45315133 -27.875 42.8125 C-27.29661377 41.90435547 -26.71822754 40.99621094 -26.12231445 40.06054688 C-22.78650939 34.81957527 -19.46627416 29.56915228 -16.15795898 24.31079102 C-2.31489995 2.31489995 -2.31489995 2.31489995 0 0 Z " fill="#FC4755" transform="translate(295,134)"/>
<path d="M0 0 C1.89577274 0.45053683 3.79000948 0.90753945 5.68359375 1.3671875 C6.73861084 1.62097168 7.79362793 1.87475586 8.88061523 2.13623047 C21.09289007 5.51785592 31.62011091 13.74068719 38.5 24.30859375 C43.33460195 32.98317902 46.14073481 40.89742052 46.17700195 50.79101562 C46.18357315 51.572117 46.19014435 52.35321838 46.19691467 53.1579895 C46.21660691 55.74074409 46.22830489 58.32344047 46.23828125 60.90625 C46.24235678 61.79227402 46.2464323 62.67829803 46.25063133 63.59117126 C46.27148072 68.28636439 46.28578396 72.98152844 46.29516602 77.67675781 C46.30619198 82.50046691 46.34055076 87.32370982 46.38033772 92.14725494 C46.40663167 95.8776122 46.41486941 99.60786087 46.41844749 103.33830261 C46.42328522 105.11471178 46.43481778 106.89111703 46.45348549 108.66743469 C46.59759377 123.29628438 44.49969853 134.6915758 36 147 C35.58363281 147.61359375 35.16726563 148.2271875 34.73828125 148.859375 C28.27940016 157.31604813 16.48720297 165.1639615 6 167 C0.36791978 166.67608928 -3.9394635 164.96381942 -8.875 162.4375 C-9.57681396 162.07962402 -10.27862793 161.72174805 -11.00170898 161.35302734 C-23.08143223 154.97587203 -31.22983149 145.4489859 -36.17578125 132.71484375 C-39.09571581 123.09704982 -39.3106557 114.05394432 -39.30078125 104.1015625 C-39.3046763 102.45925795 -39.30901261 100.81695439 -39.31376648 99.1746521 C-39.3211974 95.74368006 -39.32096031 92.31281099 -39.31567383 88.88183594 C-39.30988438 84.51222333 -39.32681268 80.14303532 -39.3500185 75.77349281 C-39.36483959 72.3845885 -39.36561621 68.99578447 -39.36250877 65.60685349 C-39.36301782 63.99710627 -39.36817614 62.38735281 -39.37832069 60.77763748 C-39.47729598 42.87832255 -35.67032329 28.43724015 -23.1484375 15.05859375 C-17.86907021 10 -17.86907021 10 -15 10 C-14.85481818 14.0829596 -14.76596653 18.16525641 -14.6875 22.25 C-14.64560547 23.40886719 -14.60371094 24.56773437 -14.56054688 25.76171875 C-14.43550915 34.41432923 -14.43550915 34.41432923 -17.39453125 37.484375 C-18.25433594 37.98453125 -19.11414063 38.4846875 -20 39 C-22.57956577 43.37201329 -22.33264593 48.00174747 -22.3125 52.9375 C-22.32861328 53.72318359 -22.34472656 54.50886719 -22.36132812 55.31835938 C-22.36553643 60.34728184 -21.57128645 63.55621999 -19 68 C-19 68.66 -19 69.32 -19 70 C-18.38125 70.309375 -17.7625 70.61875 -17.125 70.9375 C-15.75 71.625 -14.375 72.3125 -13 73 C-8.01933027 73.54644038 -4.1041693 73.54204675 0.4375 71.3125 C3.71373651 68.35589632 5.74378741 66.13787632 6.28588867 61.61450195 C6.40410818 58.73697234 6.40892278 55.87966722 6.375 53 C6.38660156 52.01515625 6.39820313 51.0303125 6.41015625 50.015625 C6.42481465 42.98442299 6.42481465 42.98442299 3 37 C2.01 36.34 1.02 35.68 0 35 C-0.26686213 32.30459685 -0.34818073 29.84152536 -0.29296875 27.1484375 C-0.28872391 26.37440582 -0.28447906 25.60037415 -0.28010559 24.80288696 C-0.26328998 22.32657323 -0.22563395 19.85106842 -0.1875 17.375 C-0.17245682 15.69792841 -0.15876778 14.02084408 -0.14648438 12.34375 C-0.11337721 8.22885419 -0.06157637 4.11456431 0 0 Z " fill="#E9F5FE" transform="translate(466,312)"/>
<path d="M0 0 C0.84302585 -0.01002678 1.6860517 -0.02005356 2.55462378 -0.03038418 C5.39117856 -0.06257253 8.22774715 -0.08744554 11.06437683 -0.11209106 C13.09493765 -0.13308639 15.12549588 -0.1543327 17.15605164 -0.17581177 C35.78872589 -0.36442455 54.42229775 -0.466634 73.05571461 -0.54795647 C86.80219547 -0.60924449 100.54701417 -0.71226885 114.29272538 -0.87065113 C123.98315549 -0.97848799 133.67313526 -1.03513752 143.36413687 -1.05608761 C149.13510117 -1.0700326 154.9038943 -1.10549639 160.67418861 -1.19732285 C186.24074185 -1.58712676 207.40307307 -1.11840761 230.06894493 11.69067001 C233.35138197 13.49372726 236.71550993 14.92975545 240.19772053 16.29861641 C241.83073425 17.20773315 241.83073425 17.20773315 242.89323425 19.95773315 C242.87260925 20.70023315 242.85198425 21.44273315 242.83073425 22.20773315 C239.06619338 24.57115566 235.23222584 26.46369718 231.17448425 28.2741394 C230.54973206 28.5536998 229.92497986 28.83326019 229.28129578 29.12129211 C227.9675452 29.70847364 226.65312036 30.29414868 225.33805847 30.87838745 C223.33545791 31.76813445 221.33488582 32.66231501 219.3346405 33.55734253 C215.83800675 35.11836314 212.34122075 36.67801635 208.83073425 38.20773315 C208.11924477 38.56067035 207.40775528 38.91360754 206.67470551 39.2772398 C202.84023238 40.53180654 199.16661977 40.48702707 195.17680359 40.46842957 C194.30626264 40.47225511 193.43572169 40.47608066 192.53880072 40.48002213 C189.62237856 40.49033925 186.70615375 40.48636243 183.78971863 40.48239136 C181.69859637 40.48673849 179.60747571 40.49192165 177.51635742 40.49787903 C171.83672893 40.51127886 166.15716693 40.51184668 160.47752571 40.50931573 C155.73821968 40.50824686 150.99892715 40.51312713 146.259624 40.51792115 C135.08133149 40.52901936 123.90307258 40.52945172 112.72477722 40.52340698 C101.18618455 40.51736348 89.64771371 40.5296871 78.10914183 40.55097705 C68.20670146 40.5685775 58.30429994 40.57459694 48.4018445 40.57133931 C42.48562591 40.56952411 36.56949425 40.57218644 30.65328979 40.58605385 C25.09156647 40.59860251 19.53003352 40.59671614 13.96831322 40.58364296 C11.92568587 40.58127131 9.88304525 40.58403283 7.84043312 40.59226608 C5.05495435 40.60268526 2.27012016 40.5946718 -0.51533508 40.58195496 C-1.32613226 40.58932924 -2.13692945 40.59670353 -2.97229624 40.60430127 C-7.54929849 40.5602537 -10.52684937 40.04781185 -14.16926575 37.20773315 C-17.57110101 32.40355072 -16.57908924 25.96028895 -16.60676575 20.33273315 C-16.63963684 19.16097534 -16.67250793 17.98921753 -16.70637512 16.7819519 C-16.76655641 7.14200332 -16.76655641 7.14200332 -13.829422 3.44992065 C-9.46141894 -0.23177355 -5.45226437 0.04100426 0 0 Z " fill="#FAC600" transform="translate(23.169265747070313,25.792266845703125)"/>
<path d="M0 0 C5.28 0 10.56 0 16 0 C16.33 49.5 16.66 99 17 150 C22.28 150 27.56 150 33 150 C33.01417969 152.46855469 33.02835937 154.93710937 33.04296875 157.48046875 C33.07361228 159.88010184 33.11269466 162.27946003 33.15258789 164.67895508 C33.17573666 166.34226712 33.19015631 168.0057251 33.19555664 169.66918945 C33.2048698 172.06553751 33.24590551 174.45960059 33.29296875 176.85546875 C33.28706978 177.96513252 33.28706978 177.96513252 33.28105164 179.09721375 C33.39380907 183.11743107 33.8215696 184.79264158 36.48168945 187.8840332 C37.72825317 188.93143677 37.72825317 188.93143677 39 190 C40.92084137 193.84168274 40.2718631 198.52376189 40.3125 202.75 C40.35600586 204.235 40.35600586 204.235 40.40039062 205.75 C40.4535121 211.86305643 40.07578307 215.35256794 36 220 C31.65181995 223.93406766 28.08131359 224.6480511 22.3984375 224.375 C18.66974416 223.79201212 16.72535807 222.59557911 14 220 C10.28401517 214.42805512 9.39008244 209.47136213 9.5625 202.875 C9.55541016 202.10285156 9.54832031 201.33070313 9.54101562 200.53515625 C9.60441694 194.80953017 10.81065601 190.62721279 14.5625 186.125 C16 185 16 185 18 185 C18 176.75 18 168.5 18 160 C5.82568669 169.46891035 -2.74100881 180.34369092 -5 196 C-5.31211884 201.58582411 -5.33071786 207.1644557 -5.3359375 212.7578125 C-5.34237984 214.39053458 -5.34910922 216.02325556 -5.35610962 217.65597534 C-5.36803897 221.07015655 -5.37179514 224.48423694 -5.37060547 227.8984375 C-5.37040298 232.23189117 -5.39765218 236.56468394 -5.43214989 240.89798164 C-5.45460628 244.26989595 -5.45843728 247.64165619 -5.45738602 251.01363754 C-5.45971595 252.60892885 -5.46838864 254.20422617 -5.48405075 255.79944229 C-5.61367624 270.36993266 -3.88693255 283.89316435 5 296 C5.76957031 297.05960937 5.76957031 297.05960937 6.5546875 298.140625 C13.87394458 307.31596163 24.25361611 311.93025252 35 316 C34.67 316.66 34.34 317.32 34 318 C16.84283298 318.54307563 2.32008042 316.3588825 -11.3125 304.8125 C-22.06246442 294.49322326 -28.52804463 280.50426629 -29.09033203 265.60668945 C-29.13710055 262.73687656 -29.1384204 259.87017589 -29.125 257 C-29.11774902 255.32550781 -29.11774902 255.32550781 -29.11035156 253.6171875 C-29.08829718 250.23669164 -29.05718359 246.85645768 -29.02282715 243.47607422 C-28.99746434 240.72495591 -28.97957867 237.97383448 -28.96191406 235.22265625 C-28.92514638 229.89370235 -28.86418519 224.56538119 -28.79046631 219.23681641 C-28.76366872 217.09333306 -28.74327644 214.94975927 -28.72955322 212.80615234 C-28.5743686 190.70373572 -28.5743686 190.70373572 -24 182 C-23.36626465 180.73639648 -23.36626465 180.73639648 -22.71972656 179.44726562 C-20.24929856 174.62315558 -17.58382675 171.3005921 -14 167 C-133.46 166.67 -252.92 166.34 -376 166 C-376 165.67 -376 165.34 -376 165 C-375.23146828 165.00054207 -374.46293656 165.00108415 -373.67111599 165.00164264 C-328.11873741 165.03288494 -282.56648768 165.02771391 -237.01412464 164.97527504 C-231.54424743 164.96900972 -226.07436993 164.96304855 -220.60449219 164.95727539 C-219.5155409 164.95612095 -218.42658961 164.95496651 -217.3046398 164.95377708 C-199.67391366 164.93581129 -182.04327858 164.94248287 -164.41255404 164.95826416 C-146.32094629 164.97390941 -128.22949415 164.96306746 -110.13791358 164.92765242 C-98.97491843 164.90663475 -87.81231492 164.90626154 -76.64932875 164.93231983 C-68.99378396 164.94821112 -61.33854128 164.93836739 -53.68303998 164.90833985 C-49.26646113 164.89177483 -44.85063435 164.88650572 -40.43408012 164.91181374 C-36.38680118 164.93475478 -32.34091775 164.92522497 -28.29373597 164.89036006 C-26.83327863 164.88342206 -25.37270641 164.88818596 -23.91234292 164.9061371 C-15.53338154 165.00176286 -9.41993043 164.36647126 -2.77956212 158.94653696 C-0.15345314 156.07402234 0.24669587 154.06157263 0.24050903 150.19789124 C0.25945073 149.22724319 0.25945073 149.22724319 0.2787751 148.2369861 C0.3087667 146.08649242 0.26801672 143.94343342 0.22705078 141.79321289 C0.23409885 140.24537662 0.24554156 138.69755508 0.2610321 137.14978027 C0.2905592 132.9614237 0.25881527 128.77553115 0.21586847 124.58737493 C0.18142171 120.20574874 0.20359188 115.82441322 0.21969604 111.44273376 C0.24159678 103.15171403 0.21275393 94.86168233 0.165573 86.57079929 C0.11432336 77.12939714 0.11980366 67.68829275 0.12999368 58.24678814 C0.14968084 38.83083021 0.09629469 19.41570536 0 0 Z " fill="#D8EBFD" transform="translate(433,162)"/>
<path d="M0 0 C0.67003903 -0.00538554 1.34007807 -0.01077108 2.03042132 -0.01631981 C4.25660213 -0.03053044 6.4821825 -0.02351321 8.70838928 -0.01637268 C10.31218948 -0.02207988 11.91598562 -0.02904549 13.51977539 -0.03717041 C17.86279355 -0.05507821 22.2056094 -0.05393795 26.54865336 -0.04822803 C30.17932984 -0.04513277 33.80996764 -0.05123236 37.4406386 -0.05726677 C46.0081118 -0.07130253 54.57548526 -0.06975857 63.14295959 -0.05836487 C71.97092771 -0.04688391 80.79859201 -0.06096105 89.6265201 -0.08776134 C97.21655408 -0.10993776 104.80649284 -0.11655137 112.39655691 -0.11068493 C116.92509937 -0.10731887 121.4534471 -0.10970707 125.9819622 -0.12693596 C130.24124126 -0.14243408 134.50007116 -0.138418 138.75933266 -0.11963081 C140.31854544 -0.11595287 141.87779171 -0.11903021 143.43697357 -0.1295166 C153.17021054 -0.18995884 160.0203792 0.21206358 167.73597717 6.70018005 C173.85474014 14.00870249 175.16616207 20.25175365 175.17347717 29.51268005 C175.18572327 30.33639099 175.19796936 31.16010193 175.21058655 32.0087738 C175.21580982 34.1363872 175.10860037 36.26359682 174.98597717 38.38768005 C172.4901277 40.88352952 171.01281838 40.62925572 167.60720825 40.65516686 C166.85177231 40.65070542 166.09633636 40.64624398 165.31800842 40.64164734 C164.51733444 40.64476732 163.71666046 40.6478873 162.89172363 40.65110183 C160.19390115 40.65911449 157.49630156 40.65274554 154.79847717 40.64646912 C152.87041593 40.64917753 150.94235572 40.65273762 149.01429749 40.65708923 C143.76648946 40.66623331 138.51875977 40.66266068 133.27095032 40.65633106 C127.78923831 40.65128149 122.30753318 40.6559596 116.82582092 40.65910339 C107.61877737 40.66274609 98.41176586 40.65793599 89.20472717 40.64842224 C78.54718457 40.63753712 67.88971848 40.64106248 57.23217773 40.65207505 C48.09586938 40.66113929 38.9595841 40.66243744 29.82327271 40.65719771 C24.36040492 40.65407325 18.89757314 40.65368168 13.43470764 40.66027069 C8.29986474 40.666031 3.16512086 40.66207147 -1.9697113 40.65048218 C-3.8587884 40.64782853 -5.74787378 40.64861262 -7.63694763 40.65300751 C-10.20676385 40.65843672 -12.77625859 40.65166104 -15.34605408 40.64164734 C-16.10149002 40.64610878 -16.85692596 40.65057023 -17.63525391 40.65516686 C-22.7857227 40.61598019 -22.7857227 40.61598019 -25.01402283 38.38768005 C-25.9597003 27.74331031 -26.22650333 17.1484221 -19.43589783 8.34080505 C-13.92811422 2.33682472 -8.09408305 0.01649221 0 0 Z " fill="#54469C" transform="translate(149.01402282714844,445.61231994628906)"/>
<path d="M0 0 C11.55 0 23.1 0 35 0 C35 6.93 35 13.86 35 21 C37.76600586 20.98952637 40.53201172 20.97905273 43.38183594 20.96826172 C52.51410261 20.93514285 61.64637192 20.91303865 70.77868271 20.89637566 C76.3163546 20.88593225 81.85396504 20.87176282 87.39160156 20.84912109 C92.73432267 20.82741268 98.0769846 20.81543557 103.4197464 20.81024551 C105.45952537 20.80654617 107.49930105 20.79932241 109.53905487 20.78853989 C112.39297012 20.77405165 115.24663991 20.77202095 118.10058594 20.77294922 C118.94647278 20.76575867 119.79235962 20.75856812 120.66387939 20.75115967 C128.02788559 20.77712946 128.02788559 20.77712946 131 23 C133.32749345 26.49124017 133.50299316 27.89222251 133 32 C131.1329009 34.30275556 129.64352259 35.67823871 127 37 C124.10117436 37.09337788 121.22653426 37.12574273 118.32763672 37.11352539 C117.43001617 37.11367142 116.53239563 37.11381744 115.60757446 37.1139679 C112.63158782 37.11326953 109.65566325 37.10548067 106.6796875 37.09765625 C104.61988357 37.0957918 102.56007919 37.09436802 100.50027466 37.09336853 C95.07182598 37.08954548 89.64340395 37.07971699 84.21496582 37.06866455 C78.67847046 37.05844588 73.14197081 37.05386993 67.60546875 37.04882812 C56.73696744 37.03809455 45.86848594 37.02102065 35 37 C35 39.64 35 42.28 35 45 C36.13429443 44.96072388 36.13429443 44.96072388 37.29150391 44.9206543 C40.73578915 44.81637002 44.17974177 44.75157228 47.625 44.6875 C48.81480469 44.64560547 50.00460937 44.60371094 51.23046875 44.56054688 C61.1236393 44.4223741 61.1236393 44.4223741 64.796875 47.328125 C67 50 67 50 67.625 53.0625 C66.87539823 56.58562834 65.78875524 57.78540025 63 60 C60.28598706 61.35700647 58.15153684 61.1123861 55.1171875 61.09765625 C53.95058594 61.09443359 52.78398437 61.09121094 51.58203125 61.08789062 C50.35871094 61.07951172 49.13539063 61.07113281 47.875 61.0625 C46.64394531 61.05798828 45.41289062 61.05347656 44.14453125 61.04882812 C41.09630608 61.0370133 38.04817686 61.02054028 35 61 C35.13854088 64.29201643 35.28707024 67.58350709 35.4375 70.875 C35.47681641 71.81214844 35.51613281 72.74929687 35.55664062 73.71484375 C35.59853516 74.61074219 35.64042969 75.50664062 35.68359375 76.4296875 C35.73858032 77.67081299 35.73858032 77.67081299 35.79467773 78.93701172 C35.88238327 81.06179429 35.88238327 81.06179429 37 83 C32.19451403 83.04936883 27.38917506 83.08570443 22.58349609 83.10986328 C20.94805328 83.11993254 19.31262851 83.13358881 17.67724609 83.15087891 C15.3290563 83.17508705 12.98110412 83.18647357 10.6328125 83.1953125 C9.53273361 83.21079636 9.53273361 83.21079636 8.41043091 83.22659302 C6.60537303 83.22699368 4.8009217 83.12212755 3 83 C0.11831656 80.11831656 0.69227217 77.19924658 0.68115234 73.33740234 C0.67110672 72.54707108 0.6610611 71.75673981 0.65071106 70.94245911 C0.61975866 68.32362615 0.60281067 65.70489595 0.5859375 63.0859375 C0.56723553 61.27274687 0.54766285 59.45956502 0.5272522 57.64639282 C0.47582235 52.86903047 0.43625487 48.09163987 0.39910889 43.31414795 C0.35913709 38.44113108 0.30801371 33.56823283 0.2578125 28.6953125 C0.16092472 19.13028318 0.07759152 9.56520534 0 0 Z " fill="#FECF9E" transform="translate(356,78)"/>
<path d="M0 0 C9.57268891 5.40878387 17.15526903 12.94182946 20.953125 23.48046875 C23.47362601 34.91966563 22.37541024 46.6265977 16.2578125 56.7109375 C10.06272343 65.54682861 1.81773304 71.07507857 -8.38671875 74.4765625 C-22.38264976 75.39655365 -33.1385266 74.14230362 -44.1640625 64.671875 C-52.4007931 56.536475 -56.59231745 46.51002501 -56.69921875 34.9765625 C-56.62536883 31.46286108 -56.49842131 28.81167019 -55.38671875 25.4765625 C-45.81671875 25.1465625 -36.24671875 24.8165625 -26.38671875 24.4765625 C-27.18080995 18.93580317 -27.18080995 18.93580317 -29.671875 14.6796875 C-30.11982422 14.03128906 -30.56777344 13.38289063 -31.02929688 12.71484375 C-31.49787109 12.05871094 -31.96644531 11.40257812 -32.44921875 10.7265625 C-37.38671875 3.70763344 -37.38671875 3.70763344 -37.38671875 1.4765625 C-25.12658808 -5.02502194 -12.65331518 -6.12975215 0 0 Z " fill="#FDD403" transform="translate(388.38671875,214.5234375)"/>
<path d="M0 0 C11.22 0 22.44 0 34 0 C34 41.25 34 82.5 34 125 C22.45 125 10.9 125 -1 125 C-2.23010731 122.53978538 -2.12851887 120.93102344 -2.13371277 118.17932129 C-2.13797775 117.16134964 -2.14224274 116.14337799 -2.14663696 115.09455872 C-2.14618378 113.973452 -2.14573059 112.85234528 -2.14526367 111.69726562 C-2.14862228 110.52000412 -2.1519809 109.34274261 -2.15544128 108.12980652 C-2.16332803 104.8964127 -2.16661967 101.66305737 -2.16725707 98.42965508 C-2.16820549 95.73315923 -2.17188292 93.03666957 -2.17542917 90.34017611 C-2.18357608 83.9808499 -2.18601314 77.62153786 -2.18530273 71.26220703 C-2.1847015 64.69452436 -2.19526177 58.12692371 -2.2110464 51.5592618 C-2.22410432 45.92611188 -2.22948739 40.29298884 -2.22884732 34.65982389 C-2.22859187 31.29286537 -2.2314692 27.92597975 -2.24202538 24.55903625 C-2.25176737 20.80686533 -2.24897034 17.05490837 -2.24291992 13.30273438 C-2.24853943 12.18162766 -2.25415894 11.06052094 -2.25994873 9.90544128 C-2.25575424 8.88746964 -2.25155975 7.86949799 -2.24723816 6.82067871 C-2.24778293 5.93282433 -2.24832769 5.04496994 -2.24888897 4.13021088 C-2 2 -2 2 0 0 Z " fill="#01C285" transform="translate(172,164)"/>
<path d="M0 0 C1.10816291 0.00108953 2.21632582 0.00217907 3.35806942 0.00330162 C4.62984035 -0.00508736 5.90161129 -0.01347633 7.21192074 -0.02211952 C8.62407894 -0.0111524 10.03623408 0.00021357 11.44838619 0.0119381 C12.93325288 0.00979259 14.41811792 0.00591542 15.90297604 0.00043297 C19.93809294 -0.0092717 23.97276831 0.00605594 28.00783181 0.02633905 C32.22563675 0.04388566 36.44342756 0.04038546 40.66126156 0.03961754 C47.7438615 0.04149135 54.8262902 0.05886704 61.90883541 0.08615685 C70.10511127 0.11762065 78.30119959 0.12815267 86.49753147 0.12668574 C94.37364694 0.12546634 102.24970115 0.1356658 110.12579823 0.15226936 C113.48182751 0.15934241 116.83783512 0.16299691 120.1938715 0.16405678 C124.14274017 0.16606141 128.09145052 0.17823609 132.04026699 0.19838905 C133.49233373 0.20424544 134.94441868 0.2066885 136.39649677 0.20553398 C138.37279978 0.20455703 140.34909598 0.21706787 142.32535458 0.2303524 C143.9870334 0.23537993 143.9870334 0.23537993 145.68228149 0.24050903 C148.27822018 0.49777794 148.27822018 0.49777794 150.27822018 2.49777794 C150.27822018 11.07777794 150.27822018 19.65777794 150.27822018 28.49777794 C98.79822018 28.49777794 47.31822018 28.49777794 -5.72177982 28.49777794 C-5.72177982 1.04643871 -5.72177982 1.04643871 0 0 Z " fill="#6D61B5" transform="translate(361.7217798233032,49.50222206115723)"/>
<path d="M0 0 C31.68 0 63.36 0 96 0 C96 14.52 96 29.04 96 44 C64.32 44 32.64 44 0 44 C0 29.48 0 14.96 0 0 Z " fill="#6D60B5" transform="translate(176,402)"/>
<path d="M0 0 C0.33 0 0.66 0 1 0 C1.09339417 20.00998091 1.16395506 40.01991767 1.20724869 60.03007126 C1.22788396 69.32090282 1.25602295 78.61159905 1.30175781 87.90234375 C1.34159609 95.99908705 1.36742579 104.09573235 1.37635398 112.19257092 C1.38157386 116.48080655 1.39386229 120.76876179 1.42292023 125.05690765 C1.45004194 129.09195868 1.45845167 133.12661346 1.45243073 137.16174698 C1.45353243 138.64364143 1.46150592 140.12554894 1.4768219 141.60736465 C1.49669486 143.62899471 1.48956096 145.65083671 1.48101807 147.67254639 C1.48470524 148.80450817 1.48839241 149.93646996 1.49219131 151.10273361 C1 154 1 154 -3 158 C-12.24 158 -21.48 158 -31 158 C-31 115.43 -31 72.86 -31 29 C-20.77 29 -10.54 29 0 29 C0 19.43 0 9.86 0 0 Z " fill="#6F63B7" transform="translate(46,141)"/>
<path d="M0 0 C51.48 0 102.96 0 156 0 C156 7.59 156 15.18 156 23 C136.1030985 23.04626198 116.20621215 23.0819708 96.309268 23.10362434 C87.0711503 23.11394488 77.83306659 23.12802003 68.5949707 23.15087891 C60.54474945 23.17078903 52.49455281 23.18371078 44.44430763 23.18817699 C40.18022955 23.19078841 35.91622191 23.19694245 31.65216637 23.21146011 C27.64099923 23.22500649 23.62993173 23.22922863 19.6187439 23.22621536 C18.14450858 23.22676685 16.67027003 23.23076182 15.19605446 23.23841095 C13.18713906 23.24832558 11.17817054 23.24478566 9.16923523 23.24050903 C8.043726 23.24235262 6.91821676 23.24419621 5.75860119 23.24609566 C3 23 3 23 0 21 C0 14.07 0 7.14 0 0 Z " fill="#FED302" transform="translate(69,26)"/>
<path d="M0 0 C3.11764981 0.22663824 4.58104094 0.55885289 6.76098633 2.85424805 C7.53865356 4.04594604 7.53865356 4.04594604 8.33203125 5.26171875 C8.90244141 6.13376953 9.47285156 7.00582031 10.06054688 7.90429688 C10.63869141 8.82275391 11.21683594 9.74121094 11.8125 10.6875 C12.40998047 11.58662109 13.00746094 12.48574219 13.62304688 13.41210938 C16.69146953 18.19183518 18.58202021 21.15634113 18 27 C17.18066406 28.94018555 17.18066406 28.94018555 16.015625 30.63671875 C15.5812915 31.28624512 15.14695801 31.93577148 14.69946289 32.60498047 C14.22114014 33.29221191 13.74281738 33.97944336 13.25 34.6875 C12.23181296 36.20358167 11.21493215 37.72054124 10.19921875 39.23828125 C9.66989746 40.02154785 9.14057617 40.80481445 8.59521484 41.61181641 C6.00811867 45.48493773 3.53709995 49.4294241 1.0625 53.375 C0.05358732 54.9766897 -0.9555285 56.57825145 -1.96484375 58.1796875 C-2.46612793 58.97600586 -2.96741211 59.77232422 -3.48388672 60.59277344 C-5.487926 63.7747102 -7.49591178 66.95414196 -9.50512695 70.1328125 C-10.49614076 71.70212001 -11.48558037 73.2724228 -12.47338867 74.84375 C-15.08862114 78.99981651 -17.73318199 83.1331962 -20.421875 87.2421875 C-20.97875 88.10134766 -21.535625 88.96050781 -22.109375 89.84570312 C-23.17830238 91.49363283 -24.25602652 93.13590017 -25.34375 94.77148438 C-25.82328125 95.51462891 -26.3028125 96.25777344 -26.796875 97.0234375 C-27.22323242 97.67231934 -27.64958984 98.32120117 -28.08886719 98.98974609 C-29.2014928 101.44455835 -29.16299917 103.33479022 -29 106 C-33.80548597 106.04936883 -38.61082494 106.08570443 -43.41650391 106.10986328 C-45.05194672 106.11993254 -46.68737149 106.13358881 -48.32275391 106.15087891 C-50.6709437 106.17508705 -53.01889588 106.18647357 -55.3671875 106.1953125 C-56.46726639 106.21079636 -56.46726639 106.21079636 -57.58956909 106.22659302 C-59.39462697 106.22699368 -61.1990783 106.12212755 -63 106 C-63.66 105.34 -64.32 104.68 -65 104 C-64.63167402 100.5533561 -62.93912826 98.01990382 -61.11328125 95.1328125 C-60.51185303 94.17616699 -59.9104248 93.21952148 -59.29077148 92.23388672 C-58.63794189 91.2079541 -57.9851123 90.18202148 -57.3125 89.125 C-56.63840088 88.05652832 -55.96430176 86.98805664 -55.26977539 85.88720703 C-53.18573575 82.58770074 -51.09383667 79.29329602 -49 76 C-47.79424106 74.09897722 -46.58851034 72.19793653 -45.3828125 70.296875 C-42.50883602 65.77102028 -39.62711184 61.25015109 -36.74267578 56.73095703 C-33.78347551 52.09357763 -30.82906563 47.45315133 -27.875 42.8125 C-27.29661377 41.90435547 -26.71822754 40.99621094 -26.12231445 40.06054688 C-22.78650939 34.81957527 -19.46627416 29.56915228 -16.15795898 24.31079102 C-2.31489995 2.31489995 -2.31489995 2.31489995 0 0 Z " fill="#FA2C3A" transform="translate(295,134)"/>
<path d="M0 0 C5.28 0 10.56 0 16 0 C16 49.83 16 99.66 16 151 C2 156 2 156 0 156 C0 104.52 0 53.04 0 0 Z " fill="#54479D" transform="translate(433,162)"/>
<path d="M0 0 C1.16648575 0.00424484 2.3329715 0.00848969 3.5348053 0.01286316 C7.24349499 0.02959353 10.95163207 0.06723654 14.66015625 0.10546875 C17.18163275 0.12052282 19.70311781 0.13420996 22.22460938 0.14648438 C28.39081207 0.17947865 34.55669467 0.22962229 40.72265625 0.29296875 C38.73118941 2.28443559 37.50366003 2.89645356 34.97265625 3.98046875 C29.69649263 6.55139939 26.38641096 10.28129073 23.5703125 15.37890625 C22.30251339 19.73733084 22.47395004 23.96731644 22.53515625 28.48046875 C22.53580078 29.39505859 22.53644531 30.30964844 22.53710938 31.25195312 C22.40137772 35.92867955 22.40137772 35.92867955 23.72265625 40.29296875 C16.3537081 40.3435502 8.98480447 40.37865208 1.61572266 40.40283203 C-0.8927579 40.41290886 -3.40122667 40.42657054 -5.90966797 40.44384766 C-9.50881863 40.46802212 -13.10781442 40.47943487 -16.70703125 40.48828125 C-17.8341452 40.49860382 -18.96125916 40.50892639 -20.12252808 40.51956177 C-21.16345612 40.51971283 -22.20438416 40.51986389 -23.27685547 40.52001953 C-24.19618866 40.52446075 -25.11552185 40.52890198 -26.06271362 40.53347778 C-28.27734375 40.29296875 -28.27734375 40.29296875 -30.27734375 38.29296875 C-31.22302123 27.64859901 -31.48982426 17.05371079 -24.69921875 8.24609375 C-17.47224525 0.36804156 -10.22000724 -0.1408901 0 0 Z " fill="#463B84" transform="translate(154.27734375,445.70703125)"/>
<path d="M0 0 C31.68 0 63.36 0 96 0 C96 0.33 96 0.66 96 1 C75.54 1 55.08 1 34 1 C34 15.19 34 29.38 34 44 C22.78 44 11.56 44 0 44 C0 29.48 0 14.96 0 0 Z " fill="#6253B0" transform="translate(176,402)"/>
<path d="M0 0 C0.97926956 -0.00700928 1.95853912 -0.01401855 2.96748352 -0.02124023 C6.20582399 -0.03885136 9.44329121 -0.02718603 12.68164062 -0.01367188 C14.93078784 -0.01636588 17.17993392 -0.02024754 19.42907715 -0.02526855 C24.14342332 -0.03116785 28.85746639 -0.02258649 33.57177734 -0.00390625 C39.61820348 0.01888319 45.66391945 0.00576247 51.71031952 -0.01819611 C56.35485191 -0.03264223 60.99921561 -0.02805346 65.64375305 -0.01768494 C67.8733173 -0.01501439 70.1028968 -0.01829889 72.33244324 -0.02760315 C75.44730262 -0.03774889 78.56100795 -0.02229448 81.67578125 0 C83.06142021 -0.01214539 83.06142021 -0.01214539 84.47505188 -0.02453613 C90.69711326 0.0580731 90.69711326 0.0580731 93.91052246 2.36242676 C95.86997962 5.32096743 95.91779233 7.03816788 95.33789062 10.51757812 C93.91052246 12.67272949 93.91052246 12.67272949 91.33789062 14.51757812 C88.12129013 15.11979186 84.94030551 15.06377042 81.67578125 15.03515625 C80.69651169 15.04216553 79.71724213 15.0491748 78.70829773 15.05639648 C75.46995726 15.07400761 72.23249004 15.06234228 68.99414062 15.04882812 C66.74499341 15.05152213 64.49584733 15.05540379 62.2467041 15.0604248 C57.53235793 15.0663241 52.81831486 15.05774274 48.10400391 15.0390625 C42.05757777 15.01627306 36.0118618 15.02939378 29.96546173 15.05335236 C25.32092934 15.06779848 20.67656564 15.06320971 16.0320282 15.05284119 C13.80246395 15.05017064 11.57288445 15.05345514 9.34333801 15.0627594 C6.22847863 15.07290514 3.1147733 15.05745073 0 15.03515625 C-1.38563896 15.04730164 -1.38563896 15.04730164 -2.79927063 15.05969238 C-9.02133201 14.97708315 -9.02133201 14.97708315 -12.23474121 12.67272949 C-14.19419837 9.71418882 -14.24201108 7.99698837 -13.66210938 4.51757812 C-10.20005689 -0.70969773 -5.69222947 -0.04989346 0 0 Z " fill="#FE7701" transform="translate(393.662109375,99.482421875)"/>
<path d="M0 0 C1.69419067 0.00374634 1.69419067 0.00374634 3.42260742 0.00756836 C5.57433472 0.02122437 5.57433472 0.02122437 7.76953125 0.03515625 C12.32765625 0.05578125 16.88578125 0.07640625 21.58203125 0.09765625 C21.58203125 13.29765625 21.58203125 26.49765625 21.58203125 40.09765625 C16.90015625 40.15953125 12.21828125 40.22140625 7.39453125 40.28515625 C5.19180542 40.32612427 5.19180542 40.32612427 2.94458008 40.36791992 C1.77950928 40.3754126 0.61443848 40.38290527 -0.5859375 40.390625 C-1.77469482 40.40633545 -2.96345215 40.4220459 -4.18823242 40.43823242 C-7.78320604 40.05914192 -9.59131715 39.32462946 -12.41796875 37.09765625 C-15.81980402 32.29347382 -14.82779225 25.85021204 -14.85546875 20.22265625 C-14.88833984 19.05089844 -14.92121094 17.87914062 -14.95507812 16.671875 C-15.01525942 7.03192641 -15.01525942 7.03192641 -12.078125 3.33984375 C-8.0446416 -0.05989116 -5.11454175 -0.02314272 0 0 Z " fill="#FC4654" transform="translate(21.41796875,25.90234375)"/>
<path d="M0 0 C8.58 0 17.16 0 26 0 C25.95875 2.10375 25.9175 4.2075 25.875 6.375 C25.93356776 18.04169779 27.90092521 26.45389565 35 36 C39.40634867 40.32984956 44.35174395 43.53793967 50 46 C50 46.66 50 47.32 50 48 C41.4297372 50.85675427 29.70750965 49.94502697 21.4921875 46.38671875 C10.56724165 40.3077912 3.6997781 31.83269964 -0.31640625 20.05078125 C-1.75541816 13.62867665 -2.09609527 6.28828581 0 0 Z " fill="#F9C602" transform="translate(333,240)"/>
<path d="M0 0 C4.19144741 2.46237886 6.90430778 4.48329103 8.87109375 9.05859375 C9.32985512 12.71098209 9.33518693 16.31898209 9.30859375 19.99609375 C9.33856445 21.46079102 9.33856445 21.46079102 9.36914062 22.95507812 C9.36504634 28.99415425 8.87040959 32.4597461 4.87109375 37.05859375 C0.5229137 40.99266141 -3.04759266 41.70664485 -8.73046875 41.43359375 C-12.45916209 40.85060587 -14.40354818 39.65417286 -17.12890625 37.05859375 C-20.84489108 31.48664887 -21.73882381 26.52995588 -21.56640625 19.93359375 C-21.57349609 19.16144531 -21.58058594 18.38929688 -21.58789062 17.59375 C-21.52586968 11.99278185 -20.53221526 7.6934716 -16.62890625 3.4140625 C-11.4849087 -0.59128976 -6.40630956 -2.83288184 0 0 Z " fill="#03C387" transform="translate(464.12890625,344.94140625)"/>
<path d="M0 0 C4.558125 -0.04125 9.11625 -0.0825 13.8125 -0.125 C15.96422729 -0.15231201 15.96422729 -0.15231201 18.15942383 -0.18017578 C19.28888428 -0.1851709 20.41834473 -0.19016602 21.58203125 -0.1953125 C22.73936768 -0.20578613 23.8967041 -0.21625977 25.08911133 -0.22705078 C28 0 28 0 31 2 C31.34057617 5.07275391 31.34057617 5.07275391 31.29296875 8.9765625 C31.28172974 10.85722412 31.28172974 10.85722412 31.27026367 12.77587891 C31.24295166 14.37608887 31.21563965 15.97629883 31.1875 17.625 C31.125625 22.69875 31.06375 27.7725 31 33 C20.77 33 10.54 33 0 33 C0 22.11 0 11.22 0 0 Z " fill="#54469C" transform="translate(15,137)"/>
<path d="M0 0 C1.27141846 -0.00938095 2.54283691 -0.0187619 3.8527832 -0.02842712 C5.24170605 -0.01794911 6.63062242 -0.00658014 8.01953125 0.00561523 C9.44295322 0.00546027 10.86637563 0.00397179 12.28979492 0.00120544 C15.272488 -0.00017913 18.25470055 0.01238831 21.23730469 0.03515625 C25.06091032 0.06354181 28.88371748 0.06080472 32.7073822 0.04806614 C35.64651308 0.04111167 38.58545934 0.04889544 41.52456665 0.06132317 C42.93436983 0.06583998 44.34419282 0.06617245 45.7539978 0.06225777 C47.72405256 0.05934819 49.69410363 0.07800316 51.6640625 0.09765625 C52.78530518 0.10305923 53.90654785 0.10846222 55.06176758 0.11402893 C57.83203125 0.50170898 57.83203125 0.50170898 59.6862793 1.78086853 C61.29884148 4.20282577 61.2940457 6.61777149 61.42578125 9.46655273 C60.49742282 12.6486234 58.532699 13.68757905 55.83203125 15.50170898 C52.98657227 16.01637268 52.98657227 16.01637268 49.8359375 16.03515625 C48.6512085 16.05099258 47.46647949 16.06682892 46.24584961 16.08314514 C44.97491455 16.07818527 43.70397949 16.0732254 42.39453125 16.06811523 C41.08170166 16.07431381 39.76887207 16.08051239 38.41625977 16.0868988 C35.64223648 16.09728699 32.86872668 16.09276467 30.09472656 16.078125 C26.54678906 16.06092966 23.00046998 16.08444618 19.45271301 16.1196146 C16.05822411 16.14690332 12.66412475 16.13685185 9.26953125 16.13061523 C7.99859619 16.14387344 6.72766113 16.15713165 5.41821289 16.17079163 C-4.37272232 16.06721445 -4.37272232 16.06721445 -7.4765625 13.15380859 C-9.54435774 9.9115367 -9.81101556 8.27960898 -9.16796875 4.50170898 C-6.83982277 0.12840483 -4.78754974 0.00070952 0 0 Z " fill="#64B9FF" transform="translate(83.16796875,205.498291015625)"/>
<path d="M0 0 C1.184729 -0.01260864 2.36945801 -0.02521729 3.59008789 -0.03820801 C4.86102295 -0.03011108 6.13195801 -0.02201416 7.44140625 -0.01367188 C8.75423584 -0.01749878 10.06706543 -0.02132568 11.41967773 -0.02526855 C14.1937144 -0.03115354 16.96723451 -0.02263407 19.74121094 -0.00390625 C23.28896706 0.01888404 26.83551273 0.00575539 30.38322449 -0.01819611 C33.77771429 -0.03616323 37.1718821 -0.02356693 40.56640625 -0.01367188 C42.47280884 -0.02581726 42.47280884 -0.02581726 44.41772461 -0.03820801 C46.19481812 -0.01929504 46.19481812 -0.01929504 48.0078125 0 C49.56737671 0.00477356 49.56737671 0.00477356 51.15844727 0.00964355 C54.76280918 0.65304767 56.44863362 1.93155213 59.00390625 4.51757812 C59.56640625 8.01757812 59.56640625 8.01757812 59.00390625 11.51757812 C56.87751176 14.32668357 55.69671777 15.39225038 52.19604492 16.0255127 C51.11556885 16.02869507 50.03509277 16.03187744 48.921875 16.03515625 C47.69380127 16.04776489 46.46572754 16.06037354 45.20043945 16.07336426 C43.8640892 16.06620439 42.5277442 16.05800039 41.19140625 16.04882812 C39.8166476 16.05152389 38.44189081 16.05540702 37.06713867 16.0604248 C34.18877981 16.06631605 31.31091816 16.05776989 28.43261719 16.0390625 C24.74686609 16.01627201 21.06228003 16.02939726 17.37657166 16.05335236 C14.53860732 16.06782111 11.70091827 16.06319966 8.86294556 16.05284119 C7.50419984 16.05017682 6.14542897 16.05343353 4.78671265 16.0627594 C2.88645926 16.07294053 0.98611801 16.05466542 -0.9140625 16.03515625 C-1.99453857 16.03197388 -3.07501465 16.0287915 -4.18823242 16.0255127 C-7.68890527 15.39225038 -8.86969926 14.32668357 -10.99609375 11.51757812 C-11.55859375 8.01757812 -11.55859375 8.01757812 -10.99609375 4.51757812 C-7.43592643 0.91456327 -5.00999513 0.01533474 0 0 Z " fill="#63B8FF" transform="translate(84.99609375,241.482421875)"/>
<path d="M0 0 C1.184729 -0.01260864 2.36945801 -0.02521729 3.59008789 -0.03820801 C4.86102295 -0.03011108 6.13195801 -0.02201416 7.44140625 -0.01367188 C8.75423584 -0.01749878 10.06706543 -0.02132568 11.41967773 -0.02526855 C14.1937144 -0.03115354 16.96723451 -0.02263407 19.74121094 -0.00390625 C23.28896706 0.01888404 26.83551273 0.00575539 30.38322449 -0.01819611 C33.77771429 -0.03616323 37.1718821 -0.02356693 40.56640625 -0.01367188 C42.47280884 -0.02581726 42.47280884 -0.02581726 44.41772461 -0.03820801 C46.19481812 -0.01929504 46.19481812 -0.01929504 48.0078125 0 C49.56737671 0.00477356 49.56737671 0.00477356 51.15844727 0.00964355 C54.76280918 0.65304767 56.44863362 1.93155213 59.00390625 4.51757812 C59.56640625 8.01757812 59.56640625 8.01757812 59.00390625 11.51757812 C56.87751176 14.32668357 55.69671777 15.39225038 52.19604492 16.0255127 C51.11556885 16.02869507 50.03509277 16.03187744 48.921875 16.03515625 C47.69380127 16.04776489 46.46572754 16.06037354 45.20043945 16.07336426 C43.8640892 16.06620439 42.5277442 16.05800039 41.19140625 16.04882812 C39.8166476 16.05152389 38.44189081 16.05540702 37.06713867 16.0604248 C34.18877981 16.06631605 31.31091816 16.05776989 28.43261719 16.0390625 C24.74686609 16.01627201 21.06228003 16.02939726 17.37657166 16.05335236 C14.53860732 16.06782111 11.70091827 16.06319966 8.86294556 16.05284119 C7.50419984 16.05017682 6.14542897 16.05343353 4.78671265 16.0627594 C2.88645926 16.07294053 0.98611801 16.05466542 -0.9140625 16.03515625 C-1.99453857 16.03197388 -3.07501465 16.0287915 -4.18823242 16.0255127 C-7.68890527 15.39225038 -8.86969926 14.32668357 -10.99609375 11.51757812 C-11.55859375 8.01757812 -11.55859375 8.01757812 -10.99609375 4.51757812 C-7.43592643 0.91456327 -5.00999513 0.01533474 0 0 Z " fill="#63B8FF" transform="translate(84.99609375,155.482421875)"/>
<path d="M0 0 C1.22807373 -0.01260864 2.45614746 -0.02521729 3.72143555 -0.03820801 C5.0577858 -0.03104814 6.3941308 -0.02284414 7.73046875 -0.01367188 C9.1052274 -0.01636764 10.47998419 -0.02025077 11.85473633 -0.02526855 C14.73309519 -0.0311598 17.61095684 -0.02261364 20.48925781 -0.00390625 C24.17500891 0.01888424 27.85959497 0.00575899 31.54530334 -0.01819611 C34.38326768 -0.03266486 37.22095673 -0.02804341 40.05892944 -0.01768494 C41.41767516 -0.01502057 42.77644603 -0.01827728 44.13516235 -0.02760315 C46.03541574 -0.03778428 47.93575699 -0.01950917 49.8359375 0 C51.45665161 0.00477356 51.45665161 0.00477356 53.11010742 0.00964355 C56.61078027 0.64290587 57.79157426 1.70847268 59.91796875 4.51757812 C60.48046875 8.01757812 60.48046875 8.01757812 59.91796875 11.51757812 C57.34619799 14.12843299 55.66243359 15.38674091 52.02781677 16.0255127 C50.43708092 16.03028625 50.43708092 16.03028625 48.81420898 16.03515625 C47.60623154 16.04776489 46.39825409 16.06037354 45.15367126 16.07336426 C43.85772537 16.06526733 42.56177948 16.05717041 41.2265625 16.04882812 C39.87565329 16.05152484 38.52474597 16.05540876 37.17384338 16.0604248 C34.34853558 16.06630959 31.52373499 16.05778952 28.69848633 16.0390625 C25.08113808 16.01625039 21.46497553 16.0294149 17.84767056 16.05335236 C15.06031895 16.06782 12.27324766 16.06320057 9.48588753 16.05284119 C7.50502372 16.04888497 5.52414892 16.06100756 3.5433197 16.07336426 C2.33849442 16.06075562 1.13366913 16.04814697 -0.10766602 16.03515625 C-1.16736099 16.03197388 -2.22705597 16.0287915 -3.31886292 16.0255127 C-6.78709067 15.38797181 -7.97191333 14.30043463 -10.08203125 11.51757812 C-10.58203125 8.01757812 -10.58203125 8.01757812 -10.08203125 4.51757812 C-7.06965873 0.52862321 -4.89875762 0.01442852 0 0 Z " fill="#61B7FF" transform="translate(84.08203125,266.482421875)"/>
<path d="M0 0 C1.20805298 -0.00615326 2.41610596 -0.01230652 3.6607666 -0.01864624 C4.96187378 -0.00427521 6.26298096 0.01009583 7.60351562 0.02490234 C8.95584945 0.0272881 10.30818663 0.02819181 11.66052246 0.02767944 C14.49182959 0.03080415 17.32262915 0.04734249 20.15380859 0.07421875 C23.77876184 0.10819855 27.40315779 0.11584712 31.02825165 0.11432838 C33.81985776 0.11487286 36.61134261 0.12585232 39.40290833 0.14033127 C41.38817878 0.14977 43.37347466 0.15325073 45.35876465 0.15664673 C46.56681763 0.16940643 47.77487061 0.18216614 49.01953125 0.1953125 C50.08224243 0.2029361 51.14495361 0.21055969 52.23986816 0.21841431 C55.02856192 0.48765457 56.67993152 0.95823927 59.00976562 2.48583984 C60.5740681 5.6144448 60.36603846 8.04186909 60.00976562 11.48583984 C57.44653646 14.11160906 55.75744934 15.35443692 52.11961365 15.99377441 C50.52887779 15.99854797 50.52887779 15.99854797 48.90600586 16.00341797 C47.69802841 16.01602661 46.49005096 16.02863525 45.24546814 16.04162598 C43.94952225 16.03352905 42.65357635 16.02543213 41.31835938 16.01708984 C39.96745016 16.01978656 38.61654285 16.02367048 37.26564026 16.02868652 C34.44033245 16.03457131 31.61553187 16.02605124 28.7902832 16.00732422 C25.17293495 15.98451211 21.55677241 15.99767662 17.93946743 16.02161407 C15.15211583 16.03608172 12.36504453 16.03146229 9.5776844 16.02110291 C7.5968206 16.01714669 5.61594579 16.02926928 3.63511658 16.04162598 C2.43029129 16.02901733 1.225466 16.01640869 -0.01586914 16.00341797 C-1.07556412 16.0002356 -2.13525909 15.99705322 -3.22706604 15.99377441 C-6.6952938 15.35623353 -7.88011646 14.26869635 -9.99023438 11.48583984 C-10.49023438 7.98583984 -10.49023438 7.98583984 -9.99023438 4.48583984 C-6.99289567 0.52694791 -4.87070367 -0.01306252 0 0 Z " fill="#60B7FF" transform="translate(83.990234375,180.51416015625)"/>
<path d="M0 0 C0.77261673 0.00565979 1.54523346 0.01131958 2.34126282 0.01715088 C4.80756754 0.03953173 7.27241617 0.08972797 9.73828125 0.140625 C11.4107863 0.16068794 13.08331414 0.17893908 14.75585938 0.1953125 C18.85472721 0.23940169 22.95250742 0.30843825 27.05078125 0.390625 C26.39078125 0.720625 25.73078125 1.050625 25.05078125 1.390625 C24.72078125 10.300625 24.39078125 19.210625 24.05078125 28.390625 C12.50078125 28.390625 0.95078125 28.390625 -10.94921875 28.390625 C-11.01109375 24.513125 -11.07296875 20.635625 -11.13671875 16.640625 C-11.16403076 15.42407227 -11.19134277 14.20751953 -11.21948242 12.95410156 C-11.2269751 11.98956055 -11.23446777 11.02501953 -11.2421875 10.03125 C-11.25789795 9.04672852 -11.2736084 8.06220703 -11.28979492 7.04785156 C-10.38049476 -0.04664519 -6.28921344 -0.17309955 0 0 Z " fill="#6354B1" transform="translate(366.94921875,49.609375)"/>
<path d="M0 0 C9.17708211 3.52964697 18.23603023 7.10153228 27.25 11 C27.86149902 11.25426758 28.47299805 11.50853516 29.10302734 11.77050781 C30.89415034 12.51613796 32.67389425 13.28892141 34.453125 14.0625 C36.01788574 14.72958984 36.01788574 14.72958984 37.61425781 15.41015625 C40 17 40 17 40.84667969 19.68359375 C40.89727539 20.44800781 40.94787109 21.21242188 41 22 C35.47219368 25.46311832 29.55794611 28.01507062 23.6171875 30.6706543 C21.6353632 31.55786069 19.65746084 32.45341546 17.6796875 33.34960938 C16.40387577 33.92238744 15.12784116 34.49466937 13.8515625 35.06640625 C12.70510254 35.58146729 11.55864258 36.09652832 10.37744141 36.62719727 C7 38 7 38 0 40 C0 26.8 0 13.6 0 0 Z " fill="#463B85" transform="translate(225,26)"/>
<path d="M0 0 C0.98367554 -0.0038269 1.96735107 -0.00765381 2.98083496 -0.01159668 C5.05868555 -0.01431627 7.13657035 -0.00695182 9.21435547 0.00976562 C12.39498211 0.03117416 15.57334987 0.00996512 18.75390625 -0.015625 C20.77344249 -0.01298173 22.79297732 -0.00785678 24.8125 0 C25.76362671 -0.00809692 26.71475342 -0.01619385 27.69470215 -0.02453613 C34.2546765 0.06863771 34.2546765 0.06863771 37.50585938 2.37695312 C39.43088727 5.33832797 39.48368454 7.06664277 38.90625 10.53125 C37.0391509 12.83400556 35.54977259 14.20948871 32.90625 15.53125 C31.57516009 15.64497327 30.23880609 15.70047953 28.90307617 15.72412109 C27.66620308 15.74821548 27.66620308 15.74821548 26.40434265 15.77279663 C22.63146801 15.81727528 18.85876891 15.85831263 15.08569336 15.88134766 C13.09631653 15.89790551 11.10699915 15.92519328 9.11791992 15.96337891 C6.24887245 16.01817264 3.38121913 16.04002517 0.51171875 16.0546875 C-0.37489944 16.07735687 -1.26151764 16.10002625 -2.17500305 16.12338257 C-6.63762598 16.10813311 -8.50681953 15.97957045 -12.15893555 13.18994141 C-14.09375 10.53125 -14.09375 10.53125 -14.65625 7.46875 C-13.1022132 -0.64677552 -6.85758387 -0.05837848 0 0 Z " fill="#FE7A06" transform="translate(450.09375,123.46875)"/>
<path d="M0 0 C0.598125 0.78375 1.19625 1.5675 1.8125 2.375 C4.40928855 5.49114625 5.92115501 6.88544015 10.00268555 7.31884766 C11.2019165 7.35026855 12.40114746 7.38168945 13.63671875 7.4140625 C14.93544922 7.45273437 16.23417969 7.49140625 17.57226562 7.53125 C18.94400573 7.56270517 20.31575061 7.59395251 21.6875 7.625 C23.07098785 7.66319197 24.45445223 7.70224442 25.83789062 7.7421875 C29.22503472 7.83660267 32.61249911 7.91939572 36 8 C36 13.61 36 19.22 36 25 C31.96109391 25.06906299 27.92370195 25.1287351 23.88452148 25.16479492 C22.51205483 25.17983432 21.13963586 25.20027133 19.76733398 25.22631836 C17.78911344 25.26291221 15.81053486 25.27816698 13.83203125 25.29296875 C12.64327393 25.3086792 11.4545166 25.32438965 10.22973633 25.34057617 C6.63476271 24.96148567 4.8266516 24.22697321 2 22 C0.10153033 19.20112959 -0.24306361 17.01445289 -0.1953125 13.671875 C-0.18886719 12.87265625 -0.18242188 12.0734375 -0.17578125 11.25 C-0.15902344 10.425 -0.14226563 9.6 -0.125 8.75 C-0.11597656 7.90953125 -0.10695313 7.0690625 -0.09765625 6.203125 C-0.07415817 4.13529396 -0.03828908 2.06761005 0 0 Z " fill="#FB2B3A" transform="translate(7,41)"/>
<path d="M0 0 C0.71353638 -0.0038269 1.42707275 -0.00765381 2.16223145 -0.01159668 C3.66497211 -0.01430847 5.16776056 -0.00699854 6.67041016 0.00976562 C8.96233987 0.03119008 11.25113579 0.00994361 13.54296875 -0.015625 C15.00781937 -0.01298159 16.47266806 -0.00785632 17.9375 0 C18.95801453 -0.01214539 18.95801453 -0.01214539 19.99914551 -0.02453613 C24.73112998 0.06808541 27.17445487 1.15099004 30.46875 4.53125 C31.53125 7.46875 31.53125 7.46875 31.46875 10.53125 C29.98852539 13.18334961 29.98852539 13.18334961 27.46875 15.53125 C24.48146994 16.02698852 22.07285142 16.2109078 19.08984375 16.16015625 C18.2813649 16.16256821 17.47288605 16.16498016 16.63990784 16.16746521 C14.93444909 16.1664875 13.22895833 16.15311183 11.52368164 16.12817383 C8.91117882 16.09381482 6.30204975 16.1075277 3.68945312 16.12695312 C2.03123559 16.12005586 0.37302678 16.11038454 -1.28515625 16.09765625 C-2.06645401 16.10261612 -2.84775177 16.10757599 -3.65272522 16.11268616 C-9.02388663 15.99578684 -9.02388663 15.99578684 -11.51538086 13.71459961 C-13.04489863 10.42729429 -13.04137071 8.102095 -12.53125 4.53125 C-8.71347919 0.48187982 -5.33908625 -0.06354173 0 0 Z " fill="#64B9FF" transform="translate(86.53125,290.46875)"/>
<path d="M0 0 C0.76171509 -0.0038269 1.52343018 -0.00765381 2.30822754 -0.01159668 C3.91529668 -0.01431313 5.52241024 -0.00697044 7.12939453 0.00976562 C9.58596587 0.03118214 12.03961311 0.00995822 14.49609375 -0.015625 C16.05990227 -0.01298167 17.62370898 -0.00785658 19.1875 0 C20.28608337 -0.01214539 20.28608337 -0.01214539 21.40686035 -0.02453613 C24.85191816 0.03864446 26.7662361 0.28580937 29.55664062 2.37695312 C31.65676146 5.32032451 31.68363969 6.99191185 31.09375 10.53125 C29.2266509 12.83400556 27.73727259 14.20948871 25.09375 15.53125 C20.58147476 15.81333415 16.06555603 15.84491669 11.5456543 15.88134766 C10.04126499 15.89789188 8.5369538 15.92516251 7.03295898 15.96337891 C4.85879959 16.01831208 2.68647978 16.0400437 0.51171875 16.0546875 C-1.44084839 16.0844165 -1.44084839 16.0844165 -3.43286133 16.11474609 C-7.7819649 15.38413827 -9.22965007 13.96650907 -11.90625 10.53125 C-12.46875 7.46875 -12.46875 7.46875 -11.90625 4.53125 C-8.65940115 0.00047614 -5.21046837 -0.05760432 0 0 Z " fill="#FE7906" transform="translate(391.90625,123.46875)"/>
<path d="M0 0 C1.07242699 -0.00574036 1.07242699 -0.00574036 2.16651917 -0.01159668 C3.67523612 -0.01431259 5.18400042 -0.00697364 6.69262695 0.00976562 C8.9934272 0.03115259 11.29109438 0.00997392 13.59179688 -0.015625 C15.06120477 -0.01298105 16.53061072 -0.00785466 18 0 C18.68348007 -0.00809692 19.36696014 -0.01619385 20.07115173 -0.02453613 C23.55461131 0.04330746 25.51700701 0.50073931 28.50415039 2.34570312 C30.56640625 4.53125 30.56640625 4.53125 31.12890625 8.03125 C30.4675042 12.14664051 29.86964479 13.08020479 26.56640625 15.53125 C23.86445667 15.9294795 21.57726053 16.09325004 18.87890625 16.0625 C18.13938721 16.0663269 17.39986816 16.07015381 16.63793945 16.07409668 C15.07794835 16.07681271 13.51791147 16.06947292 11.95800781 16.05273438 C9.57383439 16.03131673 7.19267376 16.05254263 4.80859375 16.078125 C3.29035795 16.07548166 1.77212402 16.07035656 0.25390625 16.0625 C-0.81186646 16.07464539 -0.81186646 16.07464539 -1.89916992 16.08703613 C-5.27500632 16.02326807 -7.13978241 15.74891407 -9.8828125 13.71679688 C-12.15428244 10.51556908 -11.9802244 8.35766456 -11.43359375 4.53125 C-8.28778736 0.14271037 -5.07312721 -0.05992191 0 0 Z " fill="#0FCF90" transform="translate(214.43359375,355.46875)"/>
<path d="M0 0 C3.89434435 1.08176232 5.99750648 2.59382718 8.17089844 6.02490234 C9.90631164 10.15902862 9.57021788 14.58797667 9.5 19 C9.51546875 19.97195313 9.5309375 20.94390625 9.546875 21.9453125 C9.51425049 27.93191064 8.99937947 31.46055834 5 36 C2.25 37.875 2.25 37.875 0 39 C0 38.34 0 37.68 0 37 C-0.598125 36.79375 -1.19625 36.5875 -1.8125 36.375 C-4.97982344 34.38411098 -5.63011657 32.48627637 -7 29 C-7.44720653 25.6576439 -7.46474315 22.36824388 -7.4375 19 C-7.45748047 18.1234375 -7.47746094 17.246875 -7.49804688 16.34375 C-7.49303354 9.68604023 -5.85251977 6.05627118 -1.25 1.125 C-0.8375 0.75375 -0.425 0.3825 0 0 Z " fill="#0FD290" transform="translate(464,346)"/>
<path d="M0 0 C4.95 0 9.9 0 15 0 C15 10.89 15 21.78 15 33 C13.68 32.67 12.36 32.34 11 32 C6.98769466 31.85670338 3.91667901 32.02083025 0 33 C0 22.11 0 11.22 0 0 Z " fill="#C4E2FE" transform="translate(451,313)"/>
<path d="M0 0 C0.11622939 3.74973906 0.1872595 7.49901464 0.25 11.25 C0.30027344 12.84521484 0.30027344 12.84521484 0.3515625 14.47265625 C0.36445313 15.49746094 0.37734375 16.52226562 0.390625 17.578125 C0.41157227 18.52075195 0.43251953 19.46337891 0.45410156 20.43457031 C-0.13950136 23.78810767 -1.33393163 24.94379329 -4 27 C-7.71928903 27.531327 -9.94993916 27.6330154 -13.203125 25.671875 C-16.11480141 21.34233877 -15.41767103 16.8317221 -15.25 11.75 C-15.23195313 10.71875 -15.21390625 9.6875 -15.1953125 8.625 C-15.14822712 6.08238936 -15.0824805 3.54166838 -15 1 C-13.73542969 1.01740234 -13.73542969 1.01740234 -12.4453125 1.03515625 C-11.34960938 1.04417969 -10.25390625 1.05320312 -9.125 1.0625 C-7.48917969 1.07990234 -7.48917969 1.07990234 -5.8203125 1.09765625 C-3.53562203 1.01854647 -2.07139994 0 0 0 Z " fill="#C3E2FE" transform="translate(466,384)"/>
<path d="M0 0 C0.68191406 0.00257813 1.36382812 0.00515625 2.06640625 0.0078125 C5.67459126 0.11541245 8.42822879 0.48629839 11.5 2.4375 C9.55412273 3.90877305 7.60508128 5.36405144 5.60546875 6.76171875 C1.12522027 9.94625382 -2.44630653 13.37758887 -5.95703125 17.60546875 C-7.39624471 19.314307 -8.91130027 20.8692497 -10.5 22.4375 C-12.17228535 19.982824 -13.8379686 17.52410326 -15.5 15.0625 C-15.97695313 14.36382812 -16.45390625 13.66515625 -16.9453125 12.9453125 C-17.62207031 11.93984375 -17.62207031 11.93984375 -18.3125 10.9140625 C-18.73144531 10.29611816 -19.15039062 9.67817383 -19.58203125 9.04150391 C-20.5 7.4375 -20.5 7.4375 -20.5 5.4375 C-13.68723479 1.82466996 -7.66842536 -0.04221152 0 0 Z " fill="#F9C504" transform="translate(371.5,210.5625)"/>
<path d="M0 0 C14.625 5.625 14.625 5.625 20.8125 8.3125 C21.99457031 8.82425781 23.17664063 9.33601563 24.39453125 9.86328125 C25.25433594 10.23839844 26.11414063 10.61351562 27 11 C22.7472616 13.83515893 18.12912001 15.62457575 13.4375 17.625 C11.98053711 18.25535156 11.98053711 18.25535156 10.49414062 18.8984375 C9.56666016 19.29546875 8.63917969 19.6925 7.68359375 20.1015625 C6.83337646 20.46588379 5.98315918 20.83020508 5.10717773 21.20556641 C3 22 3 22 1 22 C1 27.94 1 33.88 1 40 C0.67 40 0.34 40 0 40 C0 26.8 0 13.6 0 0 Z " fill="#564898" transform="translate(225,26)"/>
</svg>
