<?xml version="1.0" encoding="UTF-8"?>
<svg version="1.1" xmlns="http://www.w3.org/2000/svg" width="512" height="512">
<path d="M0 0 C1.10794922 -0.01260864 2.21589844 -0.02521729 3.35742188 -0.03820801 C4.54916016 -0.03011108 5.74089844 -0.02201416 6.96875 -0.01367188 C8.19658203 -0.01749878 9.42441406 -0.02132568 10.68945312 -0.02526855 C13.28516459 -0.02799029 15.88090336 -0.02061099 18.4765625 -0.00390625 C22.45374599 0.01749738 26.42912282 -0.0037015 30.40625 -0.02929688 C32.92708733 -0.02665365 35.44792353 -0.02152878 37.96875 -0.01367188 C39.16048828 -0.0217688 40.35222656 -0.02986572 41.58007812 -0.03820801 C43.24200195 -0.01929504 43.24200195 -0.01929504 44.9375 0 C45.91138672 0.00318237 46.88527344 0.00636475 47.88867188 0.00964355 C51.20409705 0.66234436 52.39704339 1.8994676 54.46875 4.51757812 C55.01464844 7.17480469 55.01464844 7.17480469 55.078125 10.15820312 C55.11035156 11.228125 55.14257812 12.29804688 55.17578125 13.40039062 C55.18996094 14.5115625 55.20414063 15.62273437 55.21875 16.76757812 C55.24839844 17.89421875 55.27804687 19.02085937 55.30859375 20.18164062 C55.37923912 22.96035833 55.43196277 25.73823961 55.46875 28.51757812 C58.0294945 29.50155398 60.59216492 30.4798778 63.15625 31.45507812 C63.87748047 31.73287109 64.59871094 32.01066406 65.34179688 32.296875 C66.74952472 32.83039743 68.16372245 33.34719897 69.58422852 33.84570312 C71.09197452 34.38324905 72.57185014 34.99871755 74.0390625 35.63867188 C78.4103294 35.42081131 80.82912876 31.72080208 83.65625 28.64257812 C84.89787399 27.3309138 86.14128049 26.02093381 87.38671875 24.71289062 C88.20305786 23.83141357 88.20305786 23.83141357 89.03588867 22.93212891 C91.20135807 20.79433206 92.53979553 20.50621084 95.59375 20.01757812 C99.70171567 20.54763821 100.35954779 20.94615799 103.25415039 23.6003418 C104.30156906 24.55642838 104.30156906 24.55642838 105.37014771 25.53182983 C108.55147101 28.54207496 111.68550167 31.59128724 114.77734375 34.69335938 C115.75562889 35.67020943 115.75562889 35.67020943 116.75367737 36.66679382 C118.11525136 38.02769348 119.47558824 39.38983192 120.8347168 40.75317383 C122.92187274 42.84574137 125.01438632 44.93284637 127.10742188 47.01953125 C128.43521705 48.34798632 129.76270247 49.67675106 131.08984375 51.00585938 C131.71579941 51.6297908 132.34175507 52.25372223 132.98667908 52.89656067 C138.32648594 58.26565444 138.32648594 58.26565444 138.78125 62.26757812 C138.09414572 69.41346263 132.19560567 73.94825778 127.09570312 78.4609375 C125.42783577 79.96829706 125.42783577 79.96829706 123.46875 82.51757812 C123.3128496 84.95387053 123.3128496 84.95387053 124.46875 87.51757812 C124.79806519 88.45380005 124.79806519 88.45380005 125.1340332 89.40893555 C125.89936759 91.56346097 126.70946648 93.69649167 127.53125 95.83007812 C127.81291016 96.57064453 128.09457031 97.31121094 128.38476562 98.07421875 C129.07593575 99.89000468 129.77186689 101.70397712 130.46875 103.51757812 C131.17483398 103.52692383 131.88091797 103.53626953 132.60839844 103.54589844 C135.81255545 103.59963471 139.01525757 103.68327569 142.21875 103.76757812 C143.32992188 103.78175781 144.44109375 103.7959375 145.5859375 103.81054688 C147.19082031 103.85888672 147.19082031 103.85888672 148.828125 103.90820312 C149.81264648 103.92915039 150.79716797 103.95009766 151.81152344 103.97167969 C155.23743161 104.67549544 156.28726514 105.81556759 158.46875 108.51757812 C158.97668457 111.09765625 158.97668457 111.09765625 158.98632812 114.04882812 C158.99893677 115.15677734 159.01154541 116.26472656 159.02453613 117.40625 C159.01239075 119.19385742 159.01239075 119.19385742 159 121.01757812 C159.0038269 122.24541016 159.00765381 123.47324219 159.01159668 124.73828125 C159.01431842 127.33399272 159.00693911 129.92973149 158.99023438 132.52539062 C158.96883075 136.50257412 158.99002963 140.47795094 159.015625 144.45507812 C159.01298177 146.97591545 159.00785691 149.49675166 159 152.01757812 C159.00809692 153.20931641 159.01619385 154.40105469 159.02453613 155.62890625 C159.00562317 157.29083008 159.00562317 157.29083008 158.98632812 158.98632812 C158.98314575 159.96021484 158.97996338 160.93410156 158.97668457 161.9375 C158.32398377 165.25292518 157.08686053 166.44587151 154.46875 168.51757812 C151.81152344 169.06347656 151.81152344 169.06347656 148.828125 169.12695312 C147.75820313 169.15917969 146.68828125 169.19140625 145.5859375 169.22460938 C144.47476562 169.23878906 143.36359375 169.25296875 142.21875 169.26757812 C141.09210938 169.29722656 139.96546875 169.326875 138.8046875 169.35742188 C136.02596979 169.42806724 133.24808852 169.4807909 130.46875 169.51757812 C129.48477415 172.07832263 128.50645033 174.64099305 127.53125 177.20507812 C127.25345703 177.92630859 126.97566406 178.64753906 126.68945312 179.390625 C126.1559307 180.79835285 125.63912916 182.21255058 125.140625 183.63305664 C124.60307907 185.14080265 123.98761058 186.62067827 123.34765625 188.08789062 C123.56551682 192.45915753 127.26552604 194.87795689 130.34375 197.70507812 C131.65541432 198.94670212 132.96539432 200.19010861 134.2734375 201.43554688 C135.15491455 202.25188599 135.15491455 202.25188599 136.05419922 203.0847168 C138.19199607 205.2501862 138.48011729 206.58862366 138.96875 209.64257812 C138.43868991 213.75054379 138.04017014 214.40837591 135.38598633 217.30297852 C134.74859528 218.00125763 134.11120422 218.69953674 133.45449829 219.41897583 C130.44425317 222.60029914 127.39504088 225.73432979 124.29296875 228.82617188 C123.3161187 229.80445702 123.3161187 229.80445702 122.3195343 230.80250549 C120.95863465 232.16407948 119.5964962 233.52441636 118.2331543 234.88354492 C116.14058675 236.97070086 114.05348176 239.06321445 111.96679688 241.15625 C110.63834181 242.48404517 109.30957707 243.8115306 107.98046875 245.13867188 C107.35653732 245.76462753 106.7326059 246.39058319 106.08976746 247.0355072 C100.72067369 252.37531407 100.72067369 252.37531407 96.71875 252.83007812 C89.57286549 252.14297385 85.03807035 246.24443379 80.52539062 241.14453125 C79.01803106 239.47666389 79.01803106 239.47666389 76.46875 237.51757812 C74.03245759 237.36167773 74.03245759 237.36167773 71.46875 238.51757812 C70.53252808 238.84689331 70.53252808 238.84689331 69.57739258 239.18286133 C67.42286716 239.94819572 65.28983646 240.7582946 63.15625 241.58007812 C62.41568359 241.86173828 61.67511719 242.14339844 60.91210938 242.43359375 C59.09632345 243.12476388 57.28235101 243.82069501 55.46875 244.51757812 C55.45473145 245.5767041 55.45473145 245.5767041 55.44042969 246.65722656 C55.38669341 249.86138358 55.30305243 253.0640857 55.21875 256.26757812 C55.20457031 257.37875 55.19039062 258.48992187 55.17578125 259.63476562 C55.14355469 260.7046875 55.11132812 261.77460938 55.078125 262.87695312 C55.05717773 263.86147461 55.03623047 264.84599609 55.01464844 265.86035156 C54.31083268 269.28625973 53.17076054 270.33609326 50.46875 272.51757812 C47.88867188 273.0255127 47.88867188 273.0255127 44.9375 273.03515625 C43.82955078 273.04776489 42.72160156 273.06037354 41.58007812 273.07336426 C40.38833984 273.06526733 39.19660156 273.05717041 37.96875 273.04882812 C36.12700195 273.05456848 36.12700195 273.05456848 34.24804688 273.0604248 C31.65233541 273.06314654 29.05659664 273.05576724 26.4609375 273.0390625 C22.48375401 273.01765887 18.50837718 273.03885775 14.53125 273.06445312 C12.01041267 273.0618099 9.48957647 273.05668503 6.96875 273.04882812 C5.77701172 273.05692505 4.58527344 273.06502197 3.35742188 273.07336426 C1.69549805 273.05445129 1.69549805 273.05445129 0 273.03515625 C-0.97388672 273.03197388 -1.94777344 273.0287915 -2.95117188 273.0255127 C-6.26659705 272.37281189 -7.45954339 271.13568865 -9.53125 268.51757812 C-10.07714844 265.86035156 -10.07714844 265.86035156 -10.140625 262.87695312 C-10.17285156 261.80703125 -10.20507812 260.73710937 -10.23828125 259.63476562 C-10.25246094 258.52359375 -10.26664062 257.41242188 -10.28125 256.26757812 C-10.31089844 255.1409375 -10.34054688 254.01429688 -10.37109375 252.85351562 C-10.44173912 250.07479792 -10.49446277 247.29691664 -10.53125 244.51757812 C-13.0919945 243.53360227 -15.65466492 242.55527845 -18.21875 241.58007812 C-18.93998047 241.30228516 -19.66121094 241.02449219 -20.40429688 240.73828125 C-21.81154505 240.20494062 -23.22491082 239.68742645 -24.64428711 239.18725586 C-26.16060298 238.64911969 -27.65515318 238.04984596 -29.140625 237.43164062 C-32.67511748 237.55869754 -34.02785504 239.46288576 -36.39648438 241.953125 C-36.95658203 242.57251953 -37.51667969 243.19191406 -38.09375 243.83007812 C-39.21537128 245.0388654 -40.3415411 246.24345126 -41.47265625 247.44335938 C-41.96451416 247.98387939 -42.45637207 248.52439941 -42.96313477 249.08129883 C-45.51013609 251.41416646 -47.91860357 252.39226408 -51.28125 253.08007812 C-54.84779747 252.46279106 -55.67135524 251.79059118 -58.27758789 249.4309082 C-58.98150665 248.79408112 -59.68542542 248.15725403 -60.41067505 247.50112915 C-63.61329076 244.50545495 -66.74421612 241.44766708 -69.83984375 238.34179688 C-70.81812889 237.36494682 -70.81812889 237.36494682 -71.81617737 236.36836243 C-73.17775136 235.00746277 -74.53808824 233.64532433 -75.8972168 232.28198242 C-77.98437274 230.18941488 -80.07688632 228.10230988 -82.16992188 226.015625 C-83.49771705 224.68716993 -84.82520247 223.35840519 -86.15234375 222.02929688 C-86.77829941 221.40536545 -87.40425507 220.78143402 -88.04917908 220.13859558 C-93.23901785 214.92029242 -93.23901785 214.92029242 -94.15625 210.51757812 C-94.11339021 205.38511828 -90.28586175 202.37366001 -86.9375 198.87695312 C-85.50123689 197.46866916 -84.04821574 196.07671352 -82.5625 194.72070312 C-80.71304446 193.0819171 -80.71304446 193.0819171 -78.53125 190.51757812 C-78.8755743 185.89859355 -80.94063732 181.49703426 -82.59375 177.20507812 C-82.87541016 176.46451172 -83.15707031 175.72394531 -83.44726562 174.9609375 C-84.13843575 173.14515157 -84.83436689 171.33117913 -85.53125 169.51757812 C-86.23733398 169.50823242 -86.94341797 169.49888672 -87.67089844 169.48925781 C-90.87505545 169.43552154 -94.07775757 169.35188056 -97.28125 169.26757812 C-98.39242187 169.25339844 -99.50359375 169.23921875 -100.6484375 169.22460938 C-102.25332031 169.17626953 -102.25332031 169.17626953 -103.890625 169.12695312 C-104.87514648 169.10600586 -105.85966797 169.08505859 -106.87402344 169.06347656 C-110.29993161 168.35966081 -111.34976514 167.21958866 -113.53125 164.51757812 C-114.03918457 161.9375 -114.03918457 161.9375 -114.04882812 158.98632812 C-114.06143677 157.87837891 -114.07404541 156.77042969 -114.08703613 155.62890625 C-114.07893921 154.43716797 -114.07084229 153.24542969 -114.0625 152.01757812 C-114.0663269 150.78974609 -114.07015381 149.56191406 -114.07409668 148.296875 C-114.07681842 145.70116353 -114.06943911 143.10542476 -114.05273438 140.50976562 C-114.03133075 136.53258213 -114.05252963 132.55720531 -114.078125 128.58007812 C-114.07548177 126.0592408 -114.07035691 123.53840459 -114.0625 121.01757812 C-114.07059692 119.82583984 -114.07869385 118.63410156 -114.08703613 117.40625 C-114.07442749 116.29830078 -114.06181885 115.19035156 -114.04882812 114.04882812 C-114.04564575 113.07494141 -114.04246338 112.10105469 -114.03918457 111.09765625 C-113.38648377 107.78223107 -112.14936053 106.58928474 -109.53125 104.51757812 C-106.87402344 103.97167969 -106.87402344 103.97167969 -103.890625 103.90820312 C-102.82070312 103.87597656 -101.75078125 103.84375 -100.6484375 103.81054688 C-99.53726563 103.79636719 -98.42609375 103.7821875 -97.28125 103.76757812 C-96.15460938 103.73792969 -95.02796875 103.70828125 -93.8671875 103.67773438 C-91.08846979 103.60708901 -88.31058852 103.55436535 -85.53125 103.51757812 C-84.54727415 100.95683362 -83.56895033 98.3941632 -82.59375 95.83007812 C-82.31595703 95.10884766 -82.03816406 94.38761719 -81.75195312 93.64453125 C-81.21858541 92.23721161 -80.70107204 90.82376346 -80.20092773 89.40429688 C-79.66316077 87.88921735 -79.06381184 86.39606282 -78.4453125 84.91210938 C-78.57244221 81.36981324 -80.47970923 79.98846982 -82.96679688 77.60351562 C-83.58619141 77.03890625 -84.20558594 76.47429687 -84.84375 75.89257812 C-86.05009601 74.75659163 -87.25459641 73.61864127 -88.45703125 72.47851562 C-88.99755127 71.9814209 -89.53807129 71.48432617 -90.0949707 70.97216797 C-92.51117263 68.52516285 -93.49580009 66.71846094 -94.09375 63.33007812 C-93.49981496 59.30451839 -93.05684405 58.59181572 -90.44458008 55.73608398 C-89.80775299 55.03724091 -89.1709259 54.33839783 -88.51480103 53.61837769 C-85.5078755 50.43371153 -82.45762636 47.30091165 -79.35546875 44.20898438 C-78.70423538 43.55679428 -78.05300201 42.90460419 -77.3820343 42.23265076 C-76.02113465 40.87107677 -74.6589962 39.51073989 -73.2956543 38.15161133 C-71.20308675 36.06445539 -69.11598176 33.9719418 -67.02929688 31.87890625 C-65.70084181 30.55111108 -64.37207707 29.22362565 -63.04296875 27.89648438 C-62.41903732 27.27052872 -61.7951059 26.64457306 -61.15226746 25.99964905 C-55.78317369 20.65984218 -55.78317369 20.65984218 -51.78125 20.20507812 C-44.63536549 20.8921824 -40.10057035 26.79072246 -35.58789062 31.890625 C-34.08053106 33.55849236 -34.08053106 33.55849236 -31.53125 35.51757812 C-29.09495759 35.67347852 -29.09495759 35.67347852 -26.53125 34.51757812 C-25.59502808 34.18826294 -25.59502808 34.18826294 -24.63989258 33.85229492 C-22.48536716 33.08696053 -20.35233646 32.27686165 -18.21875 31.45507812 C-17.10790039 31.03258789 -17.10790039 31.03258789 -15.97460938 30.6015625 C-14.15882345 29.91039237 -12.34485101 29.21446124 -10.53125 28.51757812 C-10.5219043 27.81149414 -10.51255859 27.10541016 -10.50292969 26.37792969 C-10.44919341 23.17377267 -10.36555243 19.97107055 -10.28125 16.76757812 C-10.26707031 15.65640625 -10.25289063 14.54523438 -10.23828125 13.40039062 C-10.20605469 12.33046875 -10.17382812 11.26054687 -10.140625 10.15820312 C-10.11967773 9.17368164 -10.09873047 8.18916016 -10.07714844 7.17480469 C-8.92021491 1.54329102 -5.38272686 0.01758916 0 0 Z M-1.90625 115.83007812 C-2.82064765 117.03022504 -3.69672748 118.26057858 -4.53125 119.51757812 C-4.94375 120.13890625 -5.35625 120.76023437 -5.78125 121.40039062 C-9.6152859 128.40283119 -9.76954811 136.76374881 -8.53125 144.51757812 C-5.46241396 154.41849439 0.52482386 161.06248949 9.53125 165.95507812 C17.42159025 169.108484 27.04815696 168.77059514 34.96875 165.89257812 C43.47909288 161.83466629 48.33058178 155.93277927 52.46875 147.51757812 C55.21989015 139.44756703 54.38756259 129.37995072 50.77734375 121.75976562 C45.53240198 112.77291017 38.13311047 107.60673445 28.046875 104.85742188 C16.75380204 103.1154053 5.79260239 107.51222253 -1.90625 115.83007812 Z " fill="#E2E2E2" transform="translate(233.53125,119.482421875)"/>
<path d="M0 0 C1.10794922 -0.01260864 2.21589844 -0.02521729 3.35742188 -0.03820801 C4.54916016 -0.03011108 5.74089844 -0.02201416 6.96875 -0.01367188 C8.19658203 -0.01749878 9.42441406 -0.02132568 10.68945312 -0.02526855 C13.28516459 -0.02799029 15.88090336 -0.02061099 18.4765625 -0.00390625 C22.45374599 0.01749738 26.42912282 -0.0037015 30.40625 -0.02929688 C32.92708733 -0.02665365 35.44792353 -0.02152878 37.96875 -0.01367188 C39.16048828 -0.0217688 40.35222656 -0.02986572 41.58007812 -0.03820801 C43.24200195 -0.01929504 43.24200195 -0.01929504 44.9375 0 C45.91138672 0.00318237 46.88527344 0.00636475 47.88867188 0.00964355 C50.46875 0.51757812 50.46875 0.51757812 52.78210449 1.88293457 C55.47784125 6.09384045 55.02495291 10.29217614 54.98632812 15.18945312 C54.99684204 16.81929138 54.99684204 16.81929138 55.00756836 18.48205566 C55.02518868 22.07748897 55.01351058 25.67213666 55 29.26757812 C55.00269373 31.76334789 55.00657516 34.25911664 55.01159668 36.75488281 C55.01749721 41.98706088 55.00929146 47.21903421 54.99023438 52.45117188 C54.96846569 58.49754824 54.97551724 64.54338509 54.99754 70.58974838 C55.01788847 76.40970779 55.01572294 82.22946233 55.00401306 88.04943848 C55.00134155 90.52461828 55.00463036 92.99981182 55.01393127 95.47497559 C55.02407109 98.93225772 55.00863019 102.38849869 54.98632812 105.84570312 C54.99442505 106.87232056 55.00252197 107.89893799 55.01086426 108.95666504 C54.928948 115.79872068 54.928948 115.79872068 52.78210449 119.15222168 C49.95709515 120.81956005 48.21273893 121.02445374 44.9375 121.03515625 C43.82955078 121.04776489 42.72160156 121.06037354 41.58007812 121.07336426 C40.38833984 121.06526733 39.19660156 121.05717041 37.96875 121.04882812 C36.12700195 121.05456848 36.12700195 121.05456848 34.24804688 121.0604248 C31.65233541 121.06314654 29.05659664 121.05576724 26.4609375 121.0390625 C22.48375401 121.01765887 18.50837718 121.03885775 14.53125 121.06445312 C12.01041267 121.0618099 9.48957647 121.05668503 6.96875 121.04882812 C5.77701172 121.05692505 4.58527344 121.06502197 3.35742188 121.07336426 C2.24947266 121.06075562 1.14152344 121.04814697 0 121.03515625 C-0.97388672 121.03197388 -1.94777344 121.0287915 -2.95117188 121.0255127 C-6.299088 120.36641547 -7.50838435 119.22931073 -9.53125 116.51757812 C-9.53125 115.19757813 -9.53125 113.87757813 -9.53125 112.51757812 C-26.04386469 111.36744576 -34.76855137 114.96323533 -47.23144531 125.60107422 C-50.87170766 128.63462617 -54.7274449 131.34487292 -58.59375 134.08007812 C-60.08683571 135.15435167 -61.57902553 136.22987149 -63.0703125 137.30664062 C-65.30028289 138.91202412 -67.53051236 140.51704727 -69.76074219 142.12207031 C-71.99735142 143.73223319 -74.23329272 145.34331635 -76.46875 146.95507812 C-77.20512695 147.48593018 -77.94150391 148.01678223 -78.70019531 148.5637207 C-85.02003383 153.12904119 -91.29620323 157.75264654 -97.54858398 162.40991211 C-99.00172683 163.48717231 -100.46857544 164.54619917 -101.94877625 165.58596802 C-104.58205429 167.47682972 -104.58205429 167.47682972 -106.92391968 169.79075623 C-117.7817421 179.11367038 -130.01638075 177.73665293 -143.67578125 177.53710938 C-146.21635797 177.5304646 -148.75694572 177.52724098 -151.29753113 177.52726746 C-156.60091669 177.51801034 -161.90289187 177.480096 -167.20581055 177.41625977 C-173.31768047 177.34290941 -179.42840063 177.31494462 -185.54068452 177.31311113 C-191.45309999 177.31107308 -197.36519635 177.28547937 -203.27750206 177.2475338 C-205.78005345 177.23232964 -208.28263655 177.2216328 -210.78522682 177.21558571 C-214.28159553 177.20216395 -217.77665717 177.16222036 -221.27270508 177.11450195 C-222.81192879 177.1148645 -222.81192879 177.1148645 -224.38224792 177.11523438 C-231.74605253 176.97326467 -237.17685691 175.45705499 -242.7734375 170.55273438 C-243.58167969 169.57626953 -243.58167969 169.57626953 -244.40625 168.58007812 C-244.96054688 167.93167969 -245.51484375 167.28328125 -246.0859375 166.61523438 C-250.56537097 160.11400256 -250.20588728 153.14616896 -249.53125 145.51757812 C-247.85039417 138.85798479 -243.06746678 134.33210365 -237.53125 130.51757812 C-233.75436276 128.72131183 -230.77830972 128.27093122 -226.61108398 128.27807617 C-224.85918007 128.27247932 -224.85918007 128.27247932 -223.07188416 128.26676941 C-221.81968582 128.27090347 -220.56748749 128.27503754 -219.27734375 128.27929688 C-217.30195042 128.26782683 -215.32655675 128.25632792 -213.35117435 128.2431078 C-208.48939208 128.21293759 -203.62773081 128.20226085 -198.76586914 128.2121582 C-196.03288458 128.21687716 -193.30053597 128.20846289 -190.56764221 128.18574524 C-187.9957342 128.16508722 -185.42357512 128.16429649 -182.85166931 128.18522644 C-181.10449364 128.16544487 -181.10449364 128.16544487 -179.32202148 128.14526367 C-178.29785629 128.14463425 -177.2736911 128.14400482 -176.2184906 128.14335632 C-173.31305814 127.71008404 -173.31305814 127.71008404 -171.10682678 125.16584778 C-170.58688644 124.29191879 -170.06694611 123.41798981 -169.53125 122.51757812 C-169.86125 121.52757812 -170.19125 120.53757812 -170.53125 119.51757812 C-170.72987586 117.33553115 -170.84374221 115.14525484 -170.90625 112.95507812 C-170.95523438 111.79878906 -171.00421875 110.6425 -171.0546875 109.45117188 C-169.4273141 97.22158222 -160.26817682 89.53302831 -151.9375 81.29492188 C-150.58493067 79.94152201 -149.23317927 78.58730428 -147.88220215 77.23231506 C-145.05566483 74.40293002 -142.22061045 71.58246022 -139.37890625 68.76831055 C-135.76749278 65.1908618 -132.17635622 61.59385272 -128.59128571 57.99002743 C-125.80347091 55.19155184 -123.00585034 52.40304359 -120.20524597 49.61737251 C-118.87903432 48.29628453 -117.55555162 46.97245031 -116.23506165 45.64564323 C-106.44462253 35.82598357 -96.32083823 26.38725353 -83.28125 21.08007812 C-82.20359375 20.62761719 -81.1259375 20.17515625 -80.015625 19.70898438 C-71.25471103 16.71338038 -63.20468094 16.24422871 -53.96484375 16.32226562 C-52.69020767 16.32509552 -51.41557159 16.32792542 -50.10231018 16.33084106 C-46.7436446 16.34008823 -43.3852604 16.35799942 -40.02667236 16.38024902 C-36.58746752 16.40085345 -33.14823339 16.40987372 -29.70898438 16.41992188 C-22.98299639 16.44189454 -16.25713941 16.47530617 -9.53125 16.51757812 C-9.57765625 15.69773437 -9.6240625 14.87789063 -9.671875 14.03320312 C-9.70796875 12.95554687 -9.7440625 11.87789063 -9.78125 10.76757812 C-9.82765625 9.70023437 -9.8740625 8.63289063 -9.921875 7.53320312 C-9.53125 4.51757812 -9.53125 4.51757812 -7.86132812 2.15930176 C-5.01121541 0.15117278 -3.46627261 0.01132675 0 0 Z " fill="#010000" transform="translate(457.53125,335.482421875)"/>
<path d="M0 0 C2.54057672 0.00664477 5.08116447 0.0098684 7.62174988 0.00984192 C12.92513544 0.01909903 18.22711062 0.05701338 23.5300293 0.12084961 C29.64189922 0.19419997 35.75261938 0.22216476 41.86490327 0.22399825 C47.77731874 0.22603629 53.6894151 0.25163001 59.60172081 0.28957558 C62.1042722 0.30477974 64.6068553 0.31547657 67.10944557 0.32152367 C70.60581428 0.33494542 74.10087592 0.37488902 77.59692383 0.42260742 C79.13614754 0.42224487 79.13614754 0.42224487 80.70646667 0.421875 C88.07027128 0.56384471 93.50107566 2.08005438 99.09765625 6.984375 C99.63648438 7.63535156 100.1753125 8.28632813 100.73046875 8.95703125 C101.28476562 9.60542969 101.8390625 10.25382813 102.41015625 10.921875 C106.88958972 17.42310682 106.53010603 24.39094042 105.85546875 32.01953125 C104.17461292 38.67912458 99.39168553 43.20500572 93.85546875 47.01953125 C90.07858151 48.81579755 87.10252847 49.26617815 82.93530273 49.2590332 C81.76736679 49.26276443 80.59943085 49.26649567 79.39610291 49.27033997 C78.14390457 49.2662059 76.89170624 49.26207184 75.6015625 49.2578125 C73.62616917 49.26928254 71.6507755 49.28078146 69.6753931 49.29400158 C64.81361083 49.32417178 59.95194956 49.33484852 55.09008789 49.32495117 C52.35710333 49.32023222 49.62475472 49.32864648 46.89186096 49.35136414 C44.31995295 49.37202215 41.74779387 49.37281289 39.17588806 49.35188293 C38.01110428 49.36507065 36.8463205 49.37825836 35.64624023 49.3918457 C34.62207504 49.39247513 33.59790985 49.39310455 32.54270935 49.39375305 C29.63727689 49.82702533 29.63727689 49.82702533 27.43104553 52.3712616 C26.91110519 53.24519058 26.39116486 54.11911957 25.85546875 55.01953125 C26.18546875 56.00953125 26.51546875 56.99953125 26.85546875 58.01953125 C27.05409461 60.20157823 27.16796096 62.39185454 27.23046875 64.58203125 C27.27945313 65.73832031 27.3284375 66.89460938 27.37890625 68.0859375 C25.75153285 80.31552716 16.59239557 88.00408107 8.26171875 96.2421875 C6.90914942 97.59558736 5.55739802 98.94980509 4.2064209 100.30479431 C1.37988358 103.13417936 -1.4551708 105.95464915 -4.296875 108.76879883 C-7.90828847 112.34624758 -11.49942503 115.94325666 -15.08449554 119.54708195 C-17.87231034 122.34555754 -20.66993091 125.13406579 -23.47053528 127.91973686 C-24.79674693 129.24082484 -26.12022963 130.56465907 -27.4407196 131.89146614 C-42.85708421 147.35384243 -59.97033927 160.81475412 -82.83105469 161.36010742 C-85.22205783 161.35964049 -87.61309987 161.34317669 -90.00390625 161.3125 C-91.27429749 161.30825516 -92.54468872 161.30401031 -93.85357666 161.29963684 C-97.18769431 161.28581037 -100.52116285 161.25898689 -103.85510254 161.2255249 C-107.27443922 161.19451817 -110.6938437 161.181067 -114.11328125 161.16601562 C-120.79053957 161.13313429 -127.46749806 161.08307767 -134.14453125 161.01953125 C-134.098125 161.839375 -134.05171875 162.65921875 -134.00390625 163.50390625 C-133.9678125 164.5815625 -133.93171875 165.65921875 -133.89453125 166.76953125 C-133.848125 167.836875 -133.80171875 168.90421875 -133.75390625 170.00390625 C-134.14453125 173.01953125 -134.14453125 173.01953125 -135.81445312 175.37780762 C-138.66456584 177.38593659 -140.20950864 177.52578262 -143.67578125 177.53710938 C-144.78373047 177.54971802 -145.89167969 177.56232666 -147.03320312 177.57531738 C-148.22494141 177.56722046 -149.41667969 177.55912354 -150.64453125 177.55078125 C-152.4862793 177.55652161 -152.4862793 177.55652161 -154.36523438 177.56237793 C-156.96094584 177.56509967 -159.55668461 177.55772036 -162.15234375 177.54101562 C-166.12952724 177.519612 -170.10490407 177.54081088 -174.08203125 177.56640625 C-176.60286858 177.56376302 -179.12370478 177.55863816 -181.64453125 177.55078125 C-182.83626953 177.55887817 -184.02800781 177.5669751 -185.25585938 177.57531738 C-186.9177832 177.55640442 -186.9177832 177.55640442 -188.61328125 177.53710938 C-190.07411133 177.53233582 -190.07411133 177.53233582 -191.56445312 177.52746582 C-194.14453125 177.01953125 -194.14453125 177.01953125 -196.45788574 175.6541748 C-199.1536225 171.44326893 -198.70073416 167.24493324 -198.66210938 162.34765625 C-198.66911865 161.26109741 -198.67612793 160.17453857 -198.68334961 159.05505371 C-198.70096993 155.4596204 -198.68929183 151.86497271 -198.67578125 148.26953125 C-198.67847498 145.77376148 -198.68235641 143.27799273 -198.68737793 140.78222656 C-198.69327846 135.5500485 -198.68507271 130.31807517 -198.66601562 125.0859375 C-198.64424694 119.03956113 -198.65129849 112.99372429 -198.67332125 106.94736099 C-198.69366972 101.12740159 -198.69150419 95.30764705 -198.67979431 89.4876709 C-198.6771228 87.0124911 -198.68041161 84.53729756 -198.68971252 82.06213379 C-198.69985234 78.60485166 -198.68441144 75.14861068 -198.66210938 71.69140625 C-198.6702063 70.66478882 -198.67830322 69.63817139 -198.68664551 68.58044434 C-198.60472925 61.7383887 -198.60472925 61.7383887 -196.45788574 58.3848877 C-193.6328764 56.71754932 -191.88852018 56.51265563 -188.61328125 56.50195312 C-187.50533203 56.48934448 -186.39738281 56.47673584 -185.25585938 56.46374512 C-184.06412109 56.47184204 -182.87238281 56.47993896 -181.64453125 56.48828125 C-180.41669922 56.48445435 -179.18886719 56.48062744 -177.92382812 56.47668457 C-175.32811666 56.47396283 -172.73237789 56.48134214 -170.13671875 56.49804688 C-166.15953526 56.5194505 -162.18415843 56.49825162 -158.20703125 56.47265625 C-155.68619392 56.47529948 -153.16535772 56.48042434 -150.64453125 56.48828125 C-149.45279297 56.48018433 -148.26105469 56.4720874 -147.03320312 56.46374512 C-145.3712793 56.48265808 -145.3712793 56.48265808 -143.67578125 56.50195312 C-142.70189453 56.5051355 -141.72800781 56.50831787 -140.72460938 56.51159668 C-137.37669325 57.17069391 -136.1673969 58.30779864 -134.14453125 61.01953125 C-134.14453125 62.33953125 -134.14453125 63.65953125 -134.14453125 65.01953125 C-117.63191656 66.16966362 -108.90722988 62.57387405 -96.44433594 51.93603516 C-92.80407359 48.9024832 -88.94833635 46.19223645 -85.08203125 43.45703125 C-83.58894554 42.38275771 -82.09675572 41.30723788 -80.60546875 40.23046875 C-78.37549836 38.62508525 -76.14526889 37.02006211 -73.91503906 35.41503906 C-71.67842983 33.80487618 -69.44248853 32.19379302 -67.20703125 30.58203125 C-66.4706543 30.0511792 -65.73427734 29.52032715 -64.97558594 28.97338867 C-58.65574742 24.40806818 -52.37957802 19.78446283 -46.12719727 15.12719727 C-44.67405442 14.04993706 -43.20720581 12.99091021 -41.727005 11.95114136 C-39.09372696 10.06027965 -39.09372696 10.06027965 -36.75186157 7.74635315 C-25.89403915 -1.576561 -13.6594005 -0.19954355 0 0 Z " fill="#010000" transform="translate(198.14453125,-1.01953125)"/>
<path d="M0 0 C1.10794922 -0.01260864 2.21589844 -0.02521729 3.35742188 -0.03820801 C4.54916016 -0.03011108 5.74089844 -0.02201416 6.96875 -0.01367188 C8.19658203 -0.01749878 9.42441406 -0.02132568 10.68945312 -0.02526855 C13.28516459 -0.02799029 15.88090336 -0.02061099 18.4765625 -0.00390625 C22.45374599 0.01749738 26.42912282 -0.0037015 30.40625 -0.02929688 C32.92708733 -0.02665365 35.44792353 -0.02152878 37.96875 -0.01367188 C39.16048828 -0.0217688 40.35222656 -0.02986572 41.58007812 -0.03820801 C43.24200195 -0.01929504 43.24200195 -0.01929504 44.9375 0 C45.91138672 0.00318237 46.88527344 0.00636475 47.88867188 0.00964355 C51.20409705 0.66234436 52.39704339 1.8994676 54.46875 4.51757812 C55.01464844 7.17480469 55.01464844 7.17480469 55.078125 10.15820312 C55.11035156 11.228125 55.14257812 12.29804688 55.17578125 13.40039062 C55.18996094 14.5115625 55.20414063 15.62273437 55.21875 16.76757812 C55.24839844 17.89421875 55.27804687 19.02085937 55.30859375 20.18164062 C55.37923912 22.96035833 55.43196277 25.73823961 55.46875 28.51757812 C58.0294945 29.50155398 60.59216492 30.4798778 63.15625 31.45507812 C63.87748047 31.73287109 64.59871094 32.01066406 65.34179688 32.296875 C66.74952472 32.83039743 68.16372245 33.34719897 69.58422852 33.84570312 C71.09197452 34.38324905 72.57185014 34.99871755 74.0390625 35.63867188 C78.4103294 35.42081131 80.82912876 31.72080208 83.65625 28.64257812 C84.89787399 27.3309138 86.14128049 26.02093381 87.38671875 24.71289062 C88.20305786 23.83141357 88.20305786 23.83141357 89.03588867 22.93212891 C91.20135807 20.79433206 92.53979553 20.50621084 95.59375 20.01757812 C99.70171567 20.54763821 100.35954779 20.94615799 103.25415039 23.6003418 C104.30156906 24.55642838 104.30156906 24.55642838 105.37014771 25.53182983 C108.55147101 28.54207496 111.68550167 31.59128724 114.77734375 34.69335938 C115.75562889 35.67020943 115.75562889 35.67020943 116.75367737 36.66679382 C118.11525136 38.02769348 119.47558824 39.38983192 120.8347168 40.75317383 C122.92187274 42.84574137 125.01438632 44.93284637 127.10742188 47.01953125 C128.43521705 48.34798632 129.76270247 49.67675106 131.08984375 51.00585938 C131.71579941 51.6297908 132.34175507 52.25372223 132.98667908 52.89656067 C138.32648594 58.26565444 138.32648594 58.26565444 138.78125 62.26757812 C138.09414572 69.41346263 132.19560567 73.94825778 127.09570312 78.4609375 C125.42783577 79.96829706 125.42783577 79.96829706 123.46875 82.51757812 C123.3128496 84.95387053 123.3128496 84.95387053 124.46875 87.51757812 C124.79806519 88.45380005 124.79806519 88.45380005 125.1340332 89.40893555 C125.89936759 91.56346097 126.70946648 93.69649167 127.53125 95.83007812 C127.81291016 96.57064453 128.09457031 97.31121094 128.38476562 98.07421875 C129.07593575 99.89000468 129.77186689 101.70397712 130.46875 103.51757812 C131.17483398 103.52692383 131.88091797 103.53626953 132.60839844 103.54589844 C135.81255545 103.59963471 139.01525757 103.68327569 142.21875 103.76757812 C143.32992188 103.78175781 144.44109375 103.7959375 145.5859375 103.81054688 C147.19082031 103.85888672 147.19082031 103.85888672 148.828125 103.90820312 C149.81264648 103.92915039 150.79716797 103.95009766 151.81152344 103.97167969 C155.23743161 104.67549544 156.28726514 105.81556759 158.46875 108.51757812 C158.97668457 111.09765625 158.97668457 111.09765625 158.98632812 114.04882812 C158.99893677 115.15677734 159.01154541 116.26472656 159.02453613 117.40625 C159.01239075 119.19385742 159.01239075 119.19385742 159 121.01757812 C159.0038269 122.24541016 159.00765381 123.47324219 159.01159668 124.73828125 C159.01431842 127.33399272 159.00693911 129.92973149 158.99023438 132.52539062 C158.96883075 136.50257412 158.99002963 140.47795094 159.015625 144.45507812 C159.01298177 146.97591545 159.00785691 149.49675166 159 152.01757812 C159.00809692 153.20931641 159.01619385 154.40105469 159.02453613 155.62890625 C159.00562317 157.29083008 159.00562317 157.29083008 158.98632812 158.98632812 C158.98314575 159.96021484 158.97996338 160.93410156 158.97668457 161.9375 C158.32398377 165.25292518 157.08686053 166.44587151 154.46875 168.51757812 C151.81152344 169.06347656 151.81152344 169.06347656 148.828125 169.12695312 C147.75820313 169.15917969 146.68828125 169.19140625 145.5859375 169.22460938 C144.47476562 169.23878906 143.36359375 169.25296875 142.21875 169.26757812 C141.09210938 169.29722656 139.96546875 169.326875 138.8046875 169.35742188 C136.02596979 169.42806724 133.24808852 169.4807909 130.46875 169.51757812 C129.48477415 172.07832263 128.50645033 174.64099305 127.53125 177.20507812 C127.25345703 177.92630859 126.97566406 178.64753906 126.68945312 179.390625 C126.1559307 180.79835285 125.63912916 182.21255058 125.140625 183.63305664 C124.60307907 185.14080265 123.98761058 186.62067827 123.34765625 188.08789062 C123.56551682 192.45915753 127.26552604 194.87795689 130.34375 197.70507812 C131.65541432 198.94670212 132.96539432 200.19010861 134.2734375 201.43554688 C135.15491455 202.25188599 135.15491455 202.25188599 136.05419922 203.0847168 C138.19199607 205.2501862 138.48011729 206.58862366 138.96875 209.64257812 C138.43868991 213.75054379 138.04017014 214.40837591 135.38598633 217.30297852 C134.74859528 218.00125763 134.11120422 218.69953674 133.45449829 219.41897583 C130.44425317 222.60029914 127.39504088 225.73432979 124.29296875 228.82617188 C123.3161187 229.80445702 123.3161187 229.80445702 122.3195343 230.80250549 C120.95863465 232.16407948 119.5964962 233.52441636 118.2331543 234.88354492 C116.14058675 236.97070086 114.05348176 239.06321445 111.96679688 241.15625 C110.63834181 242.48404517 109.30957707 243.8115306 107.98046875 245.13867188 C107.35653732 245.76462753 106.7326059 246.39058319 106.08976746 247.0355072 C100.72067369 252.37531407 100.72067369 252.37531407 96.71875 252.83007812 C89.57286549 252.14297385 85.03807035 246.24443379 80.52539062 241.14453125 C79.01803106 239.47666389 79.01803106 239.47666389 76.46875 237.51757812 C74.03245759 237.36167773 74.03245759 237.36167773 71.46875 238.51757812 C70.53252808 238.84689331 70.53252808 238.84689331 69.57739258 239.18286133 C67.42286716 239.94819572 65.28983646 240.7582946 63.15625 241.58007812 C62.41568359 241.86173828 61.67511719 242.14339844 60.91210938 242.43359375 C59.09632345 243.12476388 57.28235101 243.82069501 55.46875 244.51757812 C55.45473145 245.5767041 55.45473145 245.5767041 55.44042969 246.65722656 C55.38669341 249.86138358 55.30305243 253.0640857 55.21875 256.26757812 C55.20457031 257.37875 55.19039062 258.48992187 55.17578125 259.63476562 C55.14355469 260.7046875 55.11132812 261.77460938 55.078125 262.87695312 C55.05717773 263.86147461 55.03623047 264.84599609 55.01464844 265.86035156 C54.31083268 269.28625973 53.17076054 270.33609326 50.46875 272.51757812 C47.88867188 273.0255127 47.88867188 273.0255127 44.9375 273.03515625 C43.82955078 273.04776489 42.72160156 273.06037354 41.58007812 273.07336426 C40.38833984 273.06526733 39.19660156 273.05717041 37.96875 273.04882812 C36.12700195 273.05456848 36.12700195 273.05456848 34.24804688 273.0604248 C31.65233541 273.06314654 29.05659664 273.05576724 26.4609375 273.0390625 C22.48375401 273.01765887 18.50837718 273.03885775 14.53125 273.06445312 C12.01041267 273.0618099 9.48957647 273.05668503 6.96875 273.04882812 C5.77701172 273.05692505 4.58527344 273.06502197 3.35742188 273.07336426 C1.69549805 273.05445129 1.69549805 273.05445129 0 273.03515625 C-0.97388672 273.03197388 -1.94777344 273.0287915 -2.95117188 273.0255127 C-6.26659705 272.37281189 -7.45954339 271.13568865 -9.53125 268.51757812 C-10.07714844 265.86035156 -10.07714844 265.86035156 -10.140625 262.87695312 C-10.17285156 261.80703125 -10.20507812 260.73710937 -10.23828125 259.63476562 C-10.25246094 258.52359375 -10.26664062 257.41242188 -10.28125 256.26757812 C-10.31089844 255.1409375 -10.34054688 254.01429688 -10.37109375 252.85351562 C-10.44173912 250.07479792 -10.49446277 247.29691664 -10.53125 244.51757812 C-13.0919945 243.53360227 -15.65466492 242.55527845 -18.21875 241.58007812 C-18.93998047 241.30228516 -19.66121094 241.02449219 -20.40429688 240.73828125 C-21.81154505 240.20494062 -23.22491082 239.68742645 -24.64428711 239.18725586 C-26.16060298 238.64911969 -27.65515318 238.04984596 -29.140625 237.43164062 C-32.67511748 237.55869754 -34.02785504 239.46288576 -36.39648438 241.953125 C-36.95658203 242.57251953 -37.51667969 243.19191406 -38.09375 243.83007812 C-39.21537128 245.0388654 -40.3415411 246.24345126 -41.47265625 247.44335938 C-41.96451416 247.98387939 -42.45637207 248.52439941 -42.96313477 249.08129883 C-45.51013609 251.41416646 -47.91860357 252.39226408 -51.28125 253.08007812 C-54.84779747 252.46279106 -55.67135524 251.79059118 -58.27758789 249.4309082 C-58.98150665 248.79408112 -59.68542542 248.15725403 -60.41067505 247.50112915 C-63.61329076 244.50545495 -66.74421612 241.44766708 -69.83984375 238.34179688 C-70.81812889 237.36494682 -70.81812889 237.36494682 -71.81617737 236.36836243 C-73.17775136 235.00746277 -74.53808824 233.64532433 -75.8972168 232.28198242 C-77.98437274 230.18941488 -80.07688632 228.10230988 -82.16992188 226.015625 C-83.49771705 224.68716993 -84.82520247 223.35840519 -86.15234375 222.02929688 C-86.77829941 221.40536545 -87.40425507 220.78143402 -88.04917908 220.13859558 C-93.23901785 214.92029242 -93.23901785 214.92029242 -94.15625 210.51757812 C-94.11339021 205.38511828 -90.28586175 202.37366001 -86.9375 198.87695312 C-85.50123689 197.46866916 -84.04821574 196.07671352 -82.5625 194.72070312 C-80.71304446 193.0819171 -80.71304446 193.0819171 -78.53125 190.51757812 C-78.8755743 185.89859355 -80.94063732 181.49703426 -82.59375 177.20507812 C-82.87541016 176.46451172 -83.15707031 175.72394531 -83.44726562 174.9609375 C-84.13843575 173.14515157 -84.83436689 171.33117913 -85.53125 169.51757812 C-86.23733398 169.50823242 -86.94341797 169.49888672 -87.67089844 169.48925781 C-90.87505545 169.43552154 -94.07775757 169.35188056 -97.28125 169.26757812 C-98.39242187 169.25339844 -99.50359375 169.23921875 -100.6484375 169.22460938 C-102.25332031 169.17626953 -102.25332031 169.17626953 -103.890625 169.12695312 C-104.87514648 169.10600586 -105.85966797 169.08505859 -106.87402344 169.06347656 C-110.29993161 168.35966081 -111.34976514 167.21958866 -113.53125 164.51757812 C-114.03918457 161.9375 -114.03918457 161.9375 -114.04882812 158.98632812 C-114.06143677 157.87837891 -114.07404541 156.77042969 -114.08703613 155.62890625 C-114.07893921 154.43716797 -114.07084229 153.24542969 -114.0625 152.01757812 C-114.0663269 150.78974609 -114.07015381 149.56191406 -114.07409668 148.296875 C-114.07681842 145.70116353 -114.06943911 143.10542476 -114.05273438 140.50976562 C-114.03133075 136.53258213 -114.05252963 132.55720531 -114.078125 128.58007812 C-114.07548177 126.0592408 -114.07035691 123.53840459 -114.0625 121.01757812 C-114.07059692 119.82583984 -114.07869385 118.63410156 -114.08703613 117.40625 C-114.07442749 116.29830078 -114.06181885 115.19035156 -114.04882812 114.04882812 C-114.04564575 113.07494141 -114.04246338 112.10105469 -114.03918457 111.09765625 C-113.38648377 107.78223107 -112.14936053 106.58928474 -109.53125 104.51757812 C-106.87402344 103.97167969 -106.87402344 103.97167969 -103.890625 103.90820312 C-102.82070312 103.87597656 -101.75078125 103.84375 -100.6484375 103.81054688 C-99.53726563 103.79636719 -98.42609375 103.7821875 -97.28125 103.76757812 C-96.15460938 103.73792969 -95.02796875 103.70828125 -93.8671875 103.67773438 C-91.08846979 103.60708901 -88.31058852 103.55436535 -85.53125 103.51757812 C-84.54727415 100.95683362 -83.56895033 98.3941632 -82.59375 95.83007812 C-82.31595703 95.10884766 -82.03816406 94.38761719 -81.75195312 93.64453125 C-81.21858541 92.23721161 -80.70107204 90.82376346 -80.20092773 89.40429688 C-79.66316077 87.88921735 -79.06381184 86.39606282 -78.4453125 84.91210938 C-78.57244221 81.36981324 -80.47970923 79.98846982 -82.96679688 77.60351562 C-83.58619141 77.03890625 -84.20558594 76.47429687 -84.84375 75.89257812 C-86.05009601 74.75659163 -87.25459641 73.61864127 -88.45703125 72.47851562 C-88.99755127 71.9814209 -89.53807129 71.48432617 -90.0949707 70.97216797 C-92.51117263 68.52516285 -93.49580009 66.71846094 -94.09375 63.33007812 C-93.49981496 59.30451839 -93.05684405 58.59181572 -90.44458008 55.73608398 C-89.80775299 55.03724091 -89.1709259 54.33839783 -88.51480103 53.61837769 C-85.5078755 50.43371153 -82.45762636 47.30091165 -79.35546875 44.20898438 C-78.70423538 43.55679428 -78.05300201 42.90460419 -77.3820343 42.23265076 C-76.02113465 40.87107677 -74.6589962 39.51073989 -73.2956543 38.15161133 C-71.20308675 36.06445539 -69.11598176 33.9719418 -67.02929688 31.87890625 C-65.70084181 30.55111108 -64.37207707 29.22362565 -63.04296875 27.89648438 C-62.41903732 27.27052872 -61.7951059 26.64457306 -61.15226746 25.99964905 C-55.78317369 20.65984218 -55.78317369 20.65984218 -51.78125 20.20507812 C-44.63536549 20.8921824 -40.10057035 26.79072246 -35.58789062 31.890625 C-34.08053106 33.55849236 -34.08053106 33.55849236 -31.53125 35.51757812 C-29.09495759 35.67347852 -29.09495759 35.67347852 -26.53125 34.51757812 C-25.59502808 34.18826294 -25.59502808 34.18826294 -24.63989258 33.85229492 C-22.48536716 33.08696053 -20.35233646 32.27686165 -18.21875 31.45507812 C-17.10790039 31.03258789 -17.10790039 31.03258789 -15.97460938 30.6015625 C-14.15882345 29.91039237 -12.34485101 29.21446124 -10.53125 28.51757812 C-10.5219043 27.81149414 -10.51255859 27.10541016 -10.50292969 26.37792969 C-10.44919341 23.17377267 -10.36555243 19.97107055 -10.28125 16.76757812 C-10.26707031 15.65640625 -10.25289063 14.54523438 -10.23828125 13.40039062 C-10.20605469 12.33046875 -10.17382812 11.26054687 -10.140625 10.15820312 C-10.11967773 9.17368164 -10.09873047 8.18916016 -10.07714844 7.17480469 C-8.92021491 1.54329102 -5.38272686 0.01758916 0 0 Z M6.46875 16.51757812 C6.18017453 23.24834688 6.18017453 23.24834688 5.90063477 29.97949219 C5.86252686 30.8222168 5.82441895 31.66494141 5.78515625 32.53320312 C5.74849854 33.39204102 5.71184082 34.25087891 5.67407227 35.13574219 C5.48171486 37.36717956 5.08028756 39.36740336 4.46875 41.51757812 C3.84871094 41.66453125 3.22867188 41.81148437 2.58984375 41.96289062 C-6.99238575 44.38983085 -16.72515693 47.62962865 -25.26953125 52.66601562 C-29.23014628 54.91431685 -31.05054935 55.38227474 -35.53125 54.51757812 C-38.52649105 52.50098019 -40.99861186 50.07989562 -43.53125 47.51757812 C-44.211875 46.84984375 -44.8925 46.18210937 -45.59375 45.49414062 C-47.25691607 43.8510935 -48.89768481 42.18989999 -50.53125 40.51757812 C-55.96858055 45.04749609 -60.99583931 49.86052028 -65.96875 54.89257812 C-66.70029297 55.62863281 -67.43183594 56.3646875 -68.18554688 57.12304688 C-69.96977723 58.91893887 -71.75161124 60.71713798 -73.53125 62.51757812 C-70.3795718 66.25427884 -67.24201965 69.93405975 -63.71875 73.33007812 C-60.7841219 76.1610549 -59.62770077 77.47848186 -59.23828125 81.67382812 C-59.57812609 86.13259246 -61.07967273 89.19983995 -63.21875 93.01757812 C-69.8313306 105.19860571 -69.8313306 105.19860571 -72.53125 118.51757812 C-75.55894315 119.37869328 -78.37391637 119.69988706 -81.515625 119.83398438 C-82.35834961 119.87209229 -83.20107422 119.9102002 -84.06933594 119.94946289 C-85.6592334 120.01411743 -85.6592334 120.01411743 -87.28125 120.08007812 C-92.355 120.29664063 -92.355 120.29664063 -97.53125 120.51757812 C-97.53125 131.07757813 -97.53125 141.63757813 -97.53125 152.51757812 C-90.75544537 152.80638154 -90.75544537 152.80638154 -83.97924805 153.08569336 C-83.13402588 153.12380127 -82.28880371 153.16190918 -81.41796875 153.20117188 C-80.12185669 153.25615845 -80.12185669 153.25615845 -78.79956055 153.31225586 C-76.53125 153.51757812 -76.53125 153.51757812 -73.53125 154.51757812 C-71.51740565 157.53834464 -70.84627395 159.67239627 -69.90625 163.14257812 C-67.99801772 169.63930786 -65.30306252 175.5173632 -62.17333984 181.51611328 C-59.91982035 186.00290788 -58.85656178 189.38004394 -59.53125 194.51757812 C-60.81640625 196.70507812 -60.81640625 196.70507812 -62.59375 198.51757812 C-63.22539062 199.17757812 -63.85703125 199.83757812 -64.5078125 200.51757812 C-65.17554688 201.17757812 -65.84328125 201.83757812 -66.53125 202.51757812 C-67.19898438 203.19820312 -67.86671875 203.87882813 -68.5546875 204.58007812 C-70.19773463 206.2432442 -71.85892813 207.88401294 -73.53125 209.51757812 C-69.00133204 214.95490868 -64.18830784 219.98216744 -59.15625 224.95507812 C-58.05216797 226.05239258 -58.05216797 226.05239258 -56.92578125 227.171875 C-55.12988926 228.95610535 -53.33169015 230.73793936 -51.53125 232.51757812 C-47.79454928 229.36589992 -44.11476837 226.22834777 -40.71875 222.70507812 C-37.88777323 219.77045003 -36.57034627 218.61402889 -32.375 218.22460938 C-27.91623566 218.56445422 -24.84898817 220.06600086 -21.03125 222.20507812 C-8.85022241 228.81765872 -8.85022241 228.81765872 4.46875 231.51757812 C5.4419181 234.43708243 5.6617046 236.57202764 5.78515625 239.62304688 C5.82326416 240.50887451 5.86137207 241.39470215 5.90063477 242.30737305 C5.96528931 243.98923706 5.96528931 243.98923706 6.03125 245.70507812 C6.175625 249.27320313 6.32 252.84132813 6.46875 256.51757812 C17.02875 256.51757812 27.58875 256.51757812 38.46875 256.51757812 C38.63898348 249.45791856 38.63898348 249.45791856 38.76660156 242.39746094 C39.01562646 235.21243732 39.01562646 235.21243732 41.16015625 231.92382812 C43.81638265 230.3058222 46.13746404 229.52517358 49.15625 228.76757812 C55.66709572 226.94306994 61.47805458 224.28508096 67.4675293 221.15917969 C71.95448084 218.90637941 75.33130691 217.84290186 80.46875 218.51757812 C82.65625 219.80273438 82.65625 219.80273438 84.46875 221.58007812 C85.12875 222.21171875 85.78875 222.84335937 86.46875 223.49414062 C87.12875 224.161875 87.78875 224.82960938 88.46875 225.51757812 C89.149375 226.1853125 89.83 226.85304688 90.53125 227.54101562 C92.19441607 229.18406275 93.83518481 230.84525626 95.46875 232.51757812 C100.90608055 227.98766016 105.93333931 223.17463597 110.90625 218.14257812 C112.00356445 217.03849609 112.00356445 217.03849609 113.12304688 215.91210938 C114.90727723 214.11621738 116.68911124 212.31801827 118.46875 210.51757812 C115.3170718 206.78087741 112.17951965 203.1010965 108.65625 199.70507812 C105.73601086 196.88798209 104.56700706 195.56565344 104.17578125 191.39257812 C104.53101347 186.69403998 106.00540424 183.63679977 108.15625 179.51757812 C111.61028766 172.61331437 114.18917893 165.79785075 116.36328125 158.39648438 C117.46875 155.51757812 117.46875 155.51757812 120.46875 153.51757812 C122.82885742 153.19873047 122.82885742 153.19873047 125.57421875 153.10351562 C126.90296021 153.0501001 126.90296021 153.0501001 128.25854492 152.99560547 C129.3797876 152.96160645 130.50103027 152.92760742 131.65625 152.89257812 C137.0084375 152.70695312 137.0084375 152.70695312 142.46875 152.51757812 C142.46875 141.95757812 142.46875 131.39757812 142.46875 120.51757812 C135.36383594 120.22874319 135.36383594 120.22874319 128.25854492 119.94946289 C127.37271729 119.91135498 126.48688965 119.87324707 125.57421875 119.83398438 C124.66824951 119.79732666 123.76228027 119.76066895 122.82885742 119.72290039 C120.46875 119.51757812 120.46875 119.51757812 117.46875 118.51757812 C116.73046875 116.54101563 116.73046875 116.54101563 116.15625 113.89257812 C114.9459035 109.01297066 113.39505559 104.42563826 111.53125 99.76757812 C110.80615234 97.95 110.80615234 97.95 110.06640625 96.09570312 C108.91087668 93.50776892 107.74841436 91.20211247 106.3203125 88.77929688 C104.07201127 84.81868184 103.60405338 82.99827878 104.46875 78.51757812 C106.48534793 75.52233708 108.90643251 73.05021626 111.46875 70.51757812 C112.13648438 69.83695313 112.80421875 69.15632813 113.4921875 68.45507812 C115.13523463 66.79191205 116.79642813 65.15114331 118.46875 63.51757812 C113.93883204 58.08024757 109.12580784 53.05298881 104.09375 48.08007812 C103.35769531 47.34853516 102.62164062 46.61699219 101.86328125 45.86328125 C100.06738926 44.0790509 98.26919015 42.29721689 96.46875 40.51757812 C92.73204928 43.66925633 89.05226837 46.80680848 85.65625 50.33007812 C82.87800427 53.21004453 81.52359643 54.40262691 77.421875 54.84960938 C72.30210343 54.41958904 68.72873643 52.54551515 64.21875 50.20507812 C58.06922904 47.13684706 52.26395643 44.49756684 45.5 43.05273438 C43.46875 42.51757812 43.46875 42.51757812 40.46875 40.51757812 C39.51706317 37.66251764 39.2786554 35.60820531 39.15234375 32.63085938 C39.11423584 31.78563721 39.07612793 30.94041504 39.03686523 30.06958008 C38.99376221 29.00054443 38.95065918 27.93150879 38.90625 26.83007812 C38.6896875 21.72539062 38.6896875 21.72539062 38.46875 16.51757812 C27.90875 16.51757812 17.34875 16.51757812 6.46875 16.51757812 Z " fill="#010101" transform="translate(233.53125,119.482421875)"/>
<path d="M0 0 C15.04407514 14.12814971 22.09294203 32.63201537 22.75390625 52.97265625 C22.44815242 72.88742227 14.21215126 90.53339004 0.69140625 104.91015625 C-4.80596604 110.22992112 -10.92787099 114.07103725 -17.62109375 117.72265625 C-18.39195312 118.14417969 -19.1628125 118.56570313 -19.95703125 119 C-36.0003144 126.90236066 -55.94199764 126.96086021 -72.71728516 121.41601562 C-81.93631253 118.05848322 -90.29864122 113.27432431 -97.62109375 106.72265625 C-98.74257812 105.74039063 -98.74257812 105.74039063 -99.88671875 104.73828125 C-113.29657459 92.2406605 -120.95906543 75.05757109 -121.9453125 56.8671875 C-122.57698635 37.38219217 -116.76524297 19.41317596 -103.62109375 4.72265625 C-102.96625 3.975 -102.31140625 3.22734375 -101.63671875 2.45703125 C-74.18069761 -27.00307902 -29.33352503 -25.48650535 0 0 Z M-73.99609375 32.03515625 C-74.9104914 33.23530317 -75.78657123 34.4656567 -76.62109375 35.72265625 C-77.03359375 36.34398437 -77.44609375 36.9653125 -77.87109375 37.60546875 C-81.70512965 44.60790931 -81.85939186 52.96882694 -80.62109375 60.72265625 C-77.55225771 70.62357251 -71.56501989 77.26756761 -62.55859375 82.16015625 C-54.6682535 85.31356213 -45.04168679 84.97567326 -37.12109375 82.09765625 C-28.61075087 78.03974442 -23.75926197 72.13785739 -19.62109375 63.72265625 C-16.8699536 55.65264516 -17.70228116 45.58502884 -21.3125 37.96484375 C-26.55744177 28.9779883 -33.95673328 23.81181257 -44.04296875 21.0625 C-55.33604171 19.32048343 -66.29724136 23.71730066 -73.99609375 32.03515625 Z " fill="#030303" transform="translate(305.62109375,203.27734375)"/>
<path d="M0 0 C1.00736206 -0.00554901 2.01472412 -0.01109802 3.0526123 -0.01681519 C6.36743402 -0.02858296 9.6808803 -0.00436745 12.99560547 0.02148438 C15.30532774 0.02319604 17.61505195 0.02312923 19.92477417 0.0213623 C24.75830748 0.02301383 29.59137604 0.04168463 34.42480469 0.07324219 C40.62006202 0.11296321 46.81471216 0.11728112 53.01007271 0.10977936 C57.77645429 0.10671033 62.54269936 0.11882715 67.3090477 0.13591003 C69.5935976 0.14293963 71.87816298 0.14606462 74.16272354 0.1452179 C77.35355879 0.14701538 80.54366568 0.16839249 83.734375 0.1953125 C85.14962967 0.1909166 85.14962967 0.1909166 86.59347534 0.18643188 C91.38472505 0.24880613 94.95041913 0.32167906 98.73779297 3.61523438 C99.9096021 7.57009021 100.14260627 9.68416379 98.48779297 13.49023438 C96.73779297 15.61523438 96.73779297 15.61523438 93.73779297 16.61523438 C91.80153113 16.6972661 89.86253218 16.71972358 87.92456055 16.70947266 C86.7293428 16.70682404 85.53412506 16.70417542 84.3026886 16.70144653 C83.00896835 16.69619965 81.71524811 16.69095276 80.38232422 16.68554688 C77.64857908 16.69125427 74.91487433 16.70438293 72.18115234 16.71679688 C67.86669501 16.73505102 63.55295092 16.74385796 59.23852539 16.71484375 C55.746164 16.69219956 52.25534912 16.70386788 48.76309776 16.73785019 C46.79791616 16.74784052 44.83265663 16.72196837 42.86763 16.69534302 C36.78158909 16.77708308 32.78707059 16.89544283 28.17407227 21.10693359 C27.61608444 21.73719452 27.05809662 22.36745544 26.48320007 23.01681519 C24.28194656 25.03269208 22.67939593 25.34889097 19.73779297 25.61523438 C19.07779297 25.28523438 18.41779297 24.95523438 17.73779297 24.61523438 C10.01797404 23.93942531 3.07503902 24.17940056 -3.1640625 29.12182617 C-11.64349606 36.77331776 -19.69591846 44.86286246 -27.76977539 52.9375 C-30.34453134 55.51004164 -32.92722144 58.07444375 -35.51025391 60.63867188 C-37.14811151 62.2736 -38.78549877 63.90899948 -40.42236328 65.54492188 C-41.19516129 66.31053436 -41.96795929 67.07614685 -42.76417542 67.86495972 C-43.82679848 68.93219772 -43.82679848 68.93219772 -44.91088867 70.02099609 C-45.53580704 70.64448944 -46.1607254 71.26798279 -46.80458069 71.91036987 C-48.48648595 73.66116931 -48.48648595 73.66116931 -49.26220703 76.61523438 C-48.45783203 76.92460937 -48.45783203 76.92460937 -47.63720703 77.24023438 C-44.26044163 79.19520382 -41.95745864 81.79747133 -39.26220703 84.61523438 C-35.82339901 83.13495699 -33.60902779 81.20000493 -30.984375 78.54858398 C-30.15026093 77.71109116 -29.31614685 76.87359833 -28.45675659 76.01072693 C-27.11908737 74.65286827 -27.11908737 74.65286827 -25.75439453 73.26757812 C-24.34622815 71.85146596 -22.9380593 70.43535624 -21.52974129 69.01939487 C-19.56161115 67.03814532 -17.59806099 65.05238702 -15.63452148 63.06658936 C-12.19143596 59.58546877 -8.7434748 56.10919221 -5.29202271 52.6363678 C-3.45518799 50.78723658 -1.62103234 48.93543967 0.2102356 47.08079529 C1.03804535 46.24645462 1.8658551 45.41211395 2.71875 44.55249023 C3.44836945 43.81461777 4.17798889 43.0767453 4.92971802 42.31651306 C7.25853532 40.12525034 8.34613315 39.65875213 11.55029297 39.30273438 C15.46855747 39.68687795 16.95072564 40.90779754 19.73779297 43.61523438 C21.24668766 46.63302375 21.23805573 48.23846075 20.73779297 51.61523438 C15.3227598 59.39221691 7.58580091 65.9493607 0.90185547 72.65429688 C-0.01494932 73.57534273 -0.01494932 73.57534273 -0.95027542 74.51499557 C-4.18046622 77.76008766 -7.41345252 81.00236246 -10.64892578 84.2421875 C-13.96960332 87.5683583 -17.28088929 90.90371675 -20.59007835 94.24131203 C-23.15709695 96.82703973 -25.73088227 99.40595216 -28.30650711 101.98310471 C-29.52968085 103.20928321 -30.75037985 104.43793605 -31.96842575 105.66920853 C-40.13309588 113.91623391 -47.90650305 121.37821548 -59.01220703 125.42773438 C-60.07955078 125.82605469 -61.14689453 126.224375 -62.24658203 126.63476562 C-66.83616738 128.12697537 -70.96314572 128.74005653 -75.78686523 128.72875977 C-77.43048035 128.72857849 -77.43048035 128.72857849 -79.1072998 128.72839355 C-80.247677 128.72327759 -81.3880542 128.71816162 -82.56298828 128.71289062 C-83.61949585 128.71188354 -84.67600342 128.71087646 -85.76452637 128.70983887 C-89.70126434 128.70461717 -93.6379868 128.6906559 -97.57470703 128.67773438 C-106.38158203 128.65710938 -115.18845703 128.63648438 -124.26220703 128.61523438 C-124.26220703 107.49523437 -124.26220703 86.37523437 -124.26220703 64.61523438 C-115.68220703 64.28523438 -107.10220703 63.95523438 -98.26220703 63.61523438 C-92.45379074 60.32256835 -92.45379074 60.32256835 -87.05517578 56.61914062 C-86.31332031 56.06742188 -85.57146484 55.51570313 -84.80712891 54.94726562 C-84.02917969 54.36332031 -83.25123047 53.779375 -82.44970703 53.17773438 C-80.75625984 51.91786238 -79.06223577 50.65876547 -77.36767578 49.40039062 C-76.5147998 48.76633301 -75.66192383 48.13227539 -74.78320312 47.47900391 C-70.96687525 44.65759707 -67.11606134 41.88504557 -63.26220703 39.11523438 C-57.06531808 34.65551166 -50.90240142 30.15268509 -44.76220703 25.61523438 C-35.64548507 18.87919868 -26.47326345 12.2216623 -17.26220703 5.61523438 C-16.27461395 4.77118546 -15.28702087 3.92713654 -14.26950073 3.05751038 C-9.68388108 -0.1930197 -5.47179339 -0.07725092 0 0 Z " fill="#FED3C7" transform="translate(188.26220703125,15.384765625)"/>
<path d="M0 0 C1.06810913 0.00402832 2.13621826 0.00805664 3.23669434 0.01220703 C7.16188152 0.03286665 11.08682055 0.08870805 15.01171875 0.140625 C23.81859375 0.223125 32.62546875 0.305625 41.69921875 0.390625 C41.69921875 21.510625 41.69921875 42.630625 41.69921875 64.390625 C28.33421875 64.885625 28.33421875 64.885625 14.69921875 65.390625 C8.51148836 69.11135177 3.98927341 71.94869465 -1.19580078 76.57226562 C-4.70824915 79.60644743 -8.5093889 82.22017668 -12.30078125 84.890625 C-13.80348992 85.97331081 -15.30479495 87.05794749 -16.8046875 88.14453125 C-19.78987233 90.30067799 -22.77699513 92.45410004 -25.765625 94.60546875 C-34.29398058 100.74838105 -42.78914134 106.93257318 -51.23022461 113.19506836 C-52.68512279 114.27194394 -54.15173986 115.33316195 -55.62948608 116.37846375 C-58.38085969 118.37957493 -58.38085969 118.37957493 -60.99150085 120.88742065 C-71.71382368 130.3934767 -82.72511645 129.7772924 -96.4609375 129.54296875 C-98.78306944 129.53699706 -101.10521364 129.53474662 -103.42735291 129.536026 C-108.26672208 129.52824815 -113.10421719 129.48714991 -117.94311523 129.41967773 C-124.14411377 129.33429974 -130.34307705 129.31562045 -136.54459476 129.31940365 C-141.32740178 129.31804499 -146.10976437 129.29064461 -150.89242363 129.25439644 C-153.1797392 129.23850274 -155.46710494 129.22863533 -157.75447273 129.2249279 C-160.94274218 129.21408964 -164.12884645 129.17034993 -167.31665039 129.11694336 C-168.25850693 129.11920929 -169.20036346 129.12147522 -170.17076111 129.12380981 C-174.69513094 129.01292738 -176.69284349 128.85528581 -180.38572693 126.0327301 C-182.30078125 123.390625 -182.30078125 123.390625 -182.92578125 120.390625 C-182.2879144 117.32886412 -181.51833035 115.59177216 -179.2331543 113.43829346 C-174.61464356 110.9342904 -168.74957631 111.73637044 -163.64453125 111.7890625 C-162.29600749 111.78355821 -160.94749213 111.77542987 -159.59899902 111.76480103 C-156.0563441 111.74195433 -152.51430712 111.74611939 -148.97161865 111.75860596 C-143.30212235 111.77693733 -137.63298762 111.76688936 -131.96357727 111.73274612 C-129.98885686 111.72666058 -128.01410745 111.7405322 -126.03942871 111.75473022 C-124.23230408 111.74924667 -124.23230408 111.74924667 -122.38867188 111.74365234 C-121.33119751 111.74763031 -120.27372314 111.75160828 -119.1842041 111.75570679 C-114.46322859 111.15796505 -111.96818337 109.1435915 -108.86328125 105.640625 C-108.01765625 104.898125 -107.17203125 104.155625 -106.30078125 103.390625 C-103.67578125 103.578125 -103.67578125 103.578125 -100.30078125 104.390625 C-91.93097204 105.14560001 -85.17846585 104.23424288 -78.45057678 98.93266296 C-70.48538129 91.86298577 -62.96158047 84.34970611 -55.40698242 76.84692383 C-53.61702273 75.07366671 -51.82169599 73.30581199 -50.02124023 71.54321289 C-47.41354374 68.98992719 -44.82235825 66.42090215 -42.234375 63.84765625 C-41.42310654 63.05905716 -40.61183807 62.27045807 -39.77598572 61.45796204 C-39.04094315 60.72006943 -38.30590057 59.98217682 -37.54858398 59.22192383 C-36.89542709 58.57685379 -36.2422702 57.93178375 -35.56932068 57.26716614 C-34.06604441 55.472715 -34.06604441 55.472715 -34.504776 53.27348328 C-35.51033477 50.8949504 -36.80490476 49.4174801 -38.61328125 47.578125 C-39.20753906 46.95292969 -39.80179688 46.32773437 -40.4140625 45.68359375 C-42.17577274 44.18186655 -42.17577274 44.18186655 -44.14559937 44.55700684 C-46.99861106 45.66054357 -48.52180427 47.25917734 -50.67041016 49.43554688 C-51.9516124 50.72193054 -51.9516124 50.72193054 -53.25869751 52.03430176 C-54.17235077 52.96657593 -55.08600403 53.8988501 -56.02734375 54.859375 C-56.98017579 55.82034551 -57.93374925 56.7805814 -58.88803101 57.7401123 C-61.3958868 60.26507257 -63.89503603 62.79846937 -66.39202881 65.33416748 C-70.39363252 69.39500938 -74.4080249 73.44320065 -78.42295456 77.49085999 C-79.82496393 78.90684684 -81.22288494 80.32687789 -82.62075806 81.74694824 C-83.46858856 82.60453735 -84.31641907 83.46212646 -85.18994141 84.34570312 C-85.93732574 85.10435669 -86.68471008 85.86301025 -87.45474243 86.64465332 C-89.80516528 88.86766818 -90.87464358 89.34327637 -94.11328125 89.703125 C-98.03154575 89.31898142 -99.51371392 88.09806183 -102.30078125 85.390625 C-103.80967594 82.37283563 -103.80104401 80.76739863 -103.30078125 77.390625 C-97.90237389 69.65955813 -90.2406267 63.11199822 -83.60546875 56.421875 C-82.99925816 55.81034073 -82.39304756 55.19880646 -81.76846695 54.56874084 C-78.56010765 51.33381208 -75.34818657 48.10246339 -72.13378906 44.87353516 C-69.49876343 42.2251812 -66.8711961 39.56975608 -64.25 36.90771484 C-61.05663093 33.6646233 -57.85078254 30.43436114 -54.63599014 27.21250916 C-53.42547408 25.99535092 -52.21915652 24.77399981 -51.01748276 23.54811096 C-36.3394264 8.59123115 -21.63149038 -0.39486856 0 0 Z " fill="#FED3C7" transform="translate(406.30078125,367.609375)"/>
<path d="M0 0 C3.63303084 1.69586126 5.94549046 3.73800488 8.75 6.625 C9.54921875 7.44226562 10.3484375 8.25953125 11.171875 9.1015625 C11.77515625 9.72804688 12.3784375 10.35453125 13 11 C11.59155282 14.21524305 9.89655214 16.32183868 7.375 18.75 C6.74335938 19.36359375 6.11171875 19.9771875 5.4609375 20.609375 C4.97882813 21.06828125 4.49671875 21.5271875 4 22 C4.66193359 22.10957031 5.32386719 22.21914062 6.00585938 22.33203125 C28.65818892 26.16718133 49.78571156 31.93582827 70 43 C70.93070312 43.46664062 71.86140625 43.93328125 72.8203125 44.4140625 C85.58866647 50.9316402 97.16978934 59.72299777 107.484375 69.625 C109.9562582 72.02530578 109.9562582 72.02530578 112.62890625 74.09375 C116.24003347 76.99692971 119.017554 80.47106292 122 84 C122.75410156 84.85464844 123.50820313 85.70929688 124.28515625 86.58984375 C135.37801576 99.40552455 143.8988603 113.64824114 151 129 C151.53238281 130.12535156 152.06476563 131.25070313 152.61328125 132.41015625 C163.14634609 155.68088089 167.7955771 180.54153294 167 206 C161.39 206 155.78 206 150 206 C149.90203125 204.41574219 149.8040625 202.83148438 149.703125 201.19921875 C147.13724929 163.0362929 135.66108381 127.13367336 110 98 C109.23558594 97.12601562 108.47117187 96.25203125 107.68359375 95.3515625 C100.94583857 87.75876225 94.09945607 80.76445538 86 74.625 C84.88915039 73.78255737 84.88915039 73.78255737 83.75585938 72.9230957 C60.67647932 55.68500623 35.21683734 46.0071632 7 41 C8.98 42.98 10.96 44.96 13 47 C11.46356148 50.68069887 9.21849055 52.98775204 6.375 55.75 C5.14910156 56.94882813 5.14910156 56.94882813 3.8984375 58.171875 C3.27195312 58.77515625 2.64546875 59.3784375 2 60 C-3.53578694 57.68443457 -7.41150031 52.998566 -11.59130859 48.83422852 C-13.11503764 47.32238465 -14.65640932 45.83022512 -16.19921875 44.33789062 C-17.17823116 43.36834516 -18.15613316 42.3976769 -19.1328125 41.42578125 C-20.46143311 40.11734253 -20.46143311 40.11734253 -21.81689453 38.7824707 C-24.40441101 35.48455912 -25.40339608 33.15015113 -26 29 C-24.35914714 24.14086159 -21.29717659 20.88921263 -17.67578125 17.3828125 C-17.16951706 16.88079315 -16.66325287 16.3787738 -16.14164734 15.86154175 C-14.53889483 14.27544801 -12.92598539 12.70016662 -11.3125 11.125 C-10.2174078 10.04497119 -9.12299954 8.96424842 -8.02929688 7.8828125 C-5.36070477 5.24711946 -2.68295764 2.62106521 0 0 Z " fill="#00080A" transform="translate(273,50)"/>
<path d="M0 0 C5.61 0 11.22 0 17 0 C17.0825 2.51625 17.165 5.0325 17.25 7.625 C18.05170716 24.18950324 21.39877885 40.40829669 27 56 C27.44085938 57.2271875 27.88171875 58.454375 28.3359375 59.71875 C44.05434166 101.05554768 75.45074988 133.61913135 115.4597168 152.18383789 C129.84902914 158.62000906 144.51917488 162.25288072 160 165 C158.02 163.02 156.04 161.04 154 159 C155.53643852 155.31930113 157.78150945 153.01224796 160.625 150.25 C161.85089844 149.05117188 161.85089844 149.05117188 163.1015625 147.828125 C163.72804687 147.22484375 164.35453125 146.6215625 165 146 C170.53578694 148.31556543 174.41150031 153.001434 178.59130859 157.16577148 C180.11503764 158.67761535 181.65640932 160.16977488 183.19921875 161.66210938 C184.17823116 162.63165484 185.15613316 163.6023231 186.1328125 164.57421875 C187.01855957 165.44651123 187.90430664 166.31880371 188.81689453 167.2175293 C191.40441101 170.51544088 192.40339608 172.84984887 193 177 C191.35914714 181.85913841 188.29717659 185.11078737 184.67578125 188.6171875 C184.16951706 189.11920685 183.66325287 189.6212262 183.14164734 190.13845825 C181.53889483 191.72455199 179.92598539 193.29983338 178.3125 194.875 C177.2174078 195.95502881 176.12299954 197.03575158 175.02929688 198.1171875 C172.36070477 200.75288054 169.68295764 203.37893479 167 206 C163.36696916 204.30413874 161.05450954 202.26199512 158.25 199.375 C157.05117188 198.14910156 157.05117188 198.14910156 155.828125 196.8984375 C155.22484375 196.27195312 154.6215625 195.64546875 154 195 C155.40844718 191.78475695 157.10344786 189.67816132 159.625 187.25 C160.25664062 186.63640625 160.88828125 186.0228125 161.5390625 185.390625 C162.02117187 184.93171875 162.50328125 184.4728125 163 184 C162.33806641 183.89042969 161.67613281 183.78085937 160.99414062 183.66796875 C138.34181108 179.83281867 117.21428844 174.06417173 97 163 C95.60394531 162.30003906 95.60394531 162.30003906 94.1796875 161.5859375 C77.62055461 153.13336519 64.03910397 141.03910397 51 128 C50.37738281 127.4121875 49.75476563 126.824375 49.11328125 126.21875 C21.29501241 99.6676908 1.07638805 55.03371531 -0.07275391 16.56445312 C-0.15746725 11.04073471 -0.10598595 5.52304572 0 0 Z " fill="#00080A" transform="translate(72,256)"/>
<path d="M0 0 C9.44360665 8.68754751 15.65030515 20.42153308 16.58203125 33.2734375 C17.08105315 48.19872876 12.38979082 60.52395511 2.3359375 71.56640625 C-8.06433984 81.49154402 -21.07715386 85.37988167 -35.140625 85.125 C-48.246727 84.20960707 -59.37841015 78.25799256 -68.3671875 68.796875 C-76.90739965 57.94731977 -80.6375695 45.6007192 -79.6640625 31.87890625 C-77.7047644 17.78513171 -71.7763923 6.85424955 -60.6640625 -2.12109375 C-41.44598934 -14.71546208 -18.32498792 -14.59012968 0 0 Z M-56.0390625 16.19140625 C-56.95346015 17.39155317 -57.82953998 18.6219067 -58.6640625 19.87890625 C-59.0765625 20.50023437 -59.4890625 21.1215625 -59.9140625 21.76171875 C-63.7480984 28.76415931 -63.90236061 37.12507694 -62.6640625 44.87890625 C-59.59522646 54.77982251 -53.60798864 61.42381761 -44.6015625 66.31640625 C-36.71122225 69.46981213 -27.08465554 69.13192326 -19.1640625 66.25390625 C-10.65371962 62.19599442 -5.80223072 56.29410739 -1.6640625 47.87890625 C1.08707765 39.80889516 0.25475009 29.74127884 -3.35546875 22.12109375 C-8.60041052 13.1342383 -15.99970203 7.96806257 -26.0859375 5.21875 C-37.37901046 3.47673343 -48.34021011 7.87355066 -56.0390625 16.19140625 Z " fill="#010101" transform="translate(287.6640625,219.12109375)"/>
<path d="M0 0 C10.56 0 21.12 0 32 0 C32 29.04 32 58.08 32 88 C21.44 88 10.88 88 0 88 C0 58.96 0 29.92 0 0 Z " fill="#FC9942" transform="translate(464,352)"/>
<path d="M0 0 C10.56 0 21.12 0 32 0 C32 29.04 32 58.08 32 88 C21.44 88 10.88 88 0 88 C0 58.96 0 29.92 0 0 Z " fill="#FFAC5A" transform="translate(16,72)"/>
<path d="M0 0 C11.2566423 9.88759121 18.56259505 23.26116478 19.97265625 38.22265625 C20.40369548 52.5608434 17.11354232 65.50440068 8.6015625 77.28515625 C7.94414062 78.21521484 7.94414062 78.21521484 7.2734375 79.1640625 C-0.83998453 89.58561321 -13.91518978 96.59489445 -26.8046875 99 C-43.46973983 100.83215184 -58.15992134 97.6420016 -71.8359375 87.47265625 C-83.15917716 77.98561762 -91.00115433 64.06913925 -92.61938477 49.26367188 C-93.55065461 32.89230384 -89.30958995 18.25975756 -78.6484375 5.53515625 C-57.44960527 -16.99111709 -24.24420462 -18.68969665 0 0 Z M-73.1015625 11.44921875 C-79.57089335 19.43686194 -83.61303763 28.01783794 -84.3984375 38.28515625 C-84.47964844 39.32542969 -84.56085938 40.36570313 -84.64453125 41.4375 C-85.19657303 55.50620122 -79.80689809 67.7037759 -70.3359375 77.97265625 C-59.59929995 88.18423058 -47.48032568 91.84691294 -33.0234375 91.59765625 C-19.92372599 90.46837078 -8.52267896 84.41091417 0.4921875 74.98046875 C9.4122938 63.58255514 12.74343683 50.60140568 11.6015625 36.28515625 C9.09950674 23.50476915 2.90476069 12.37196878 -7.3984375 4.28515625 C-29.44595662 -9.08625581 -54.78131205 -7.97958189 -73.1015625 11.44921875 Z " fill="#A7A7A7" transform="translate(292.3984375,212.71484375)"/>
<path d="M0 0 C1.00736206 -0.00554901 2.01472412 -0.01109802 3.0526123 -0.01681519 C6.36743402 -0.02858296 9.6808803 -0.00436745 12.99560547 0.02148438 C15.30532774 0.02319604 17.61505195 0.02312923 19.92477417 0.0213623 C24.75830748 0.02301383 29.59137604 0.04168463 34.42480469 0.07324219 C40.62006202 0.11296321 46.81471216 0.11728112 53.01007271 0.10977936 C57.77645429 0.10671033 62.54269936 0.11882715 67.3090477 0.13591003 C69.5935976 0.14293963 71.87816298 0.14606462 74.16272354 0.1452179 C77.35355879 0.14701538 80.54366568 0.16839249 83.734375 0.1953125 C85.14962967 0.1909166 85.14962967 0.1909166 86.59347534 0.18643188 C95.13974382 0.29769034 95.13974382 0.29769034 98.73779297 3.61523438 C99.55029297 6.30273437 99.55029297 6.30273437 99.73779297 8.61523438 C99.17016991 8.60932659 98.60254684 8.60341881 98.01772308 8.597332 C84.13393534 8.4570198 70.25119609 8.38507841 56.36667633 8.38463974 C49.65163059 8.38320543 42.93830032 8.35831499 36.22363281 8.28271484 C29.73257404 8.21046229 23.24377388 8.19765395 16.75239563 8.22452545 C14.28704466 8.22458087 11.82159561 8.20390283 9.35661316 8.16127777 C-5.1415109 7.92595094 -15.23535393 8.59702371 -26.21084595 18.69160461 C-26.99349209 19.45047643 -26.99349209 19.45047643 -27.79194927 20.22467899 C-29.76055286 22.08656498 -31.90579549 23.6315267 -34.12939453 25.17382812 C-34.79704834 25.65456787 -35.46470215 26.13530762 -36.15258789 26.63061523 C-37.13497437 27.33456421 -37.13497437 27.33456421 -38.13720703 28.05273438 C-39.65674372 29.14647682 -41.17627481 30.24022705 -42.69580078 31.33398438 C-44.21792145 32.42775489 -45.7400568 33.52150499 -47.26220703 34.61523438 C-55.70858516 40.69118329 -64.15057143 46.77214786 -72.52075195 52.95288086 C-74.1352117 54.14088566 -75.75516836 55.3214576 -77.38061523 56.49438477 C-81.06068823 59.163577 -84.58713079 61.84182409 -87.91455078 64.94335938 C-96.83562774 72.95108798 -104.23892888 73.61173253 -116.13574219 73.17724609 C-118.84936255 73.02789921 -121.55435755 72.84504 -124.26220703 72.61523438 C-124.26220703 69.97523437 -124.26220703 67.33523437 -124.26220703 64.61523438 C-123.13576782 64.60121582 -123.13576782 64.60121582 -121.98657227 64.58691406 C-118.55697059 64.53295873 -115.12869595 64.4493589 -111.69970703 64.36523438 C-110.51828125 64.35105469 -109.33685547 64.336875 -108.11962891 64.32226562 C-101.20586684 64.12860282 -96.86286833 63.72374868 -91.26220703 59.61523438 C-90.59680908 59.14327637 -89.93141113 58.67131836 -89.24584961 58.18505859 C-86.95532065 56.54776307 -84.70144258 54.86793521 -82.44970703 53.17773438 C-80.75625984 51.91786238 -79.06223577 50.65876547 -77.36767578 49.40039062 C-76.5147998 48.76633301 -75.66192383 48.13227539 -74.78320312 47.47900391 C-70.96687525 44.65759707 -67.11606134 41.88504557 -63.26220703 39.11523438 C-57.06531808 34.65551166 -50.90240142 30.15268509 -44.76220703 25.61523438 C-35.64548507 18.87919868 -26.47326345 12.2216623 -17.26220703 5.61523438 C-16.27461395 4.77118546 -15.28702087 3.92713654 -14.26950073 3.05751038 C-9.68388108 -0.1930197 -5.47179339 -0.07725092 0 0 Z " fill="#F7A48D" transform="translate(188.26220703125,15.384765625)"/>
<path d="M0 0 C0 2.64 0 5.28 0 8 C-0.72364746 7.96221436 -1.44729492 7.92442871 -2.19287109 7.88549805 C-19.35742475 7.19581436 -29.99254965 8.67640791 -42.89501953 20.18164062 C-46.4074679 23.21582243 -50.20860765 25.82955168 -54 28.5 C-55.50270867 29.58268581 -57.0040137 30.66732249 -58.50390625 31.75390625 C-61.48909108 33.91005299 -64.47621388 36.06347504 -67.46484375 38.21484375 C-75.99319933 44.35775605 -84.48836009 50.54194818 -92.92944336 56.80444336 C-94.38434154 57.88131894 -95.85095861 58.94253695 -97.32870483 59.98783875 C-100.08007844 61.98894993 -100.08007844 61.98894993 -102.6907196 64.49679565 C-113.41304243 74.0028517 -124.4243352 73.3866674 -138.16015625 73.15234375 C-140.48228819 73.14637206 -142.80443239 73.14412162 -145.12657166 73.145401 C-149.96594083 73.13762315 -154.80343594 73.09652491 -159.64233398 73.02905273 C-165.84333252 72.94367474 -172.0422958 72.92499545 -178.24381351 72.92877865 C-183.02662053 72.92741999 -187.80898312 72.90001961 -192.59164238 72.86377144 C-194.87895795 72.84787774 -197.16632369 72.83801033 -199.45369148 72.8343029 C-202.64196093 72.82346464 -205.8280652 72.77972493 -209.01586914 72.72631836 C-209.95772568 72.72858429 -210.89958221 72.73085022 -211.86997986 72.73318481 C-216.40501581 72.62204098 -218.40490435 72.44915791 -222.12400818 69.6421051 C-224 67 -224 67 -224 64 C-223.43514232 64.00775137 -222.87028463 64.01550274 -222.28831005 64.023489 C-208.4536236 64.20842151 -194.62025722 64.31300981 -180.78431988 64.33421898 C-174.09258404 64.34590383 -167.40324362 64.38487019 -160.7121582 64.48339844 C-154.24039147 64.57772205 -147.77161477 64.60214063 -141.29923439 64.58046341 C-138.84466568 64.58407052 -136.38999623 64.61180767 -133.93601036 64.66541672 C-116.88428259 65.01655089 -106.82595224 62.34914387 -94.07827187 50.81074905 C-90.58501764 47.76715938 -86.78974564 45.15725381 -83 42.5 C-81.50903003 41.4290111 -80.0192821 40.35631705 -78.53125 39.28125 C-77.4175 38.476875 -77.4175 38.476875 -76.28125 37.65625 C-71.53972682 34.21377426 -66.83277263 30.72426488 -62.12084961 27.24145508 C-58.16804914 24.32328296 -54.20661217 21.41850178 -50.22265625 18.54296875 C-49.44849365 17.98375732 -48.67433105 17.4245459 -47.87670898 16.84838867 C-46.34398462 15.74836506 -44.80576909 14.65594934 -43.26196289 13.5715332 C-40.00405823 11.26827869 -36.90620212 9.01781546 -34.0859375 6.1875 C-24.46465845 -2.89453333 -12.46388256 -0.84586674 0 0 Z " fill="#F7A48D" transform="translate(448,424)"/>
<path d="M0 0 C5.28 0 10.56 0 16 0 C16 29.04 16 58.08 16 88 C10.72 88 5.44 88 0 88 C0 58.96 0 29.92 0 0 Z " fill="#FFAC5A" transform="translate(464,352)"/>
<path d="M0 0 C5.28 0 10.56 0 16 0 C16 29.04 16 58.08 16 88 C10.72 88 5.44 88 0 88 C0 58.96 0 29.92 0 0 Z " fill="#FC9942" transform="translate(16,72)"/>
</svg>
